<svg xmlns="http://www.w3.org/2000/svg" height="600" width="600" viewBox="0 0 600 600"><path d="M543.982 208.554l-52.1 65.783-51.699-64.827H394.17V392h46.014V282.664l51.698 56.457 52.1-57.417V391.04H590V208.554h-46.018zm-240.491.917c-2.397-.034-4.815-.03-6.848.04h-73.73V392h48.965v-71.87h22.866l37.605 71.723 54.276.147-44.418-85.47c41.903-28.886 30.2-95.355-38.716-97.059zm-221.323.04L10 392h50.059l12.493-32.937h75.97L161.011 392h50.058l-72.168-182.49H82.168zm189.71 36.28H299.9c18.902.252 26.3 35.648.905 37.466h-28.927v-37.466zm-161.341 13.107l24 63.292H86.533l24.004-63.292zM272.92 391.676c-.081-.12.004.137.268.324-.105-.113-.171-.184-.268-.324z" fill="#FFF"/></svg>
