<?xml version="1.0" encoding="UTF-8"?>
<svg version="1.1" viewBox="0 0 400 400" xmlns="http://www.w3.org/2000/svg">
 <path d="m388 183c-.536-3.52-1.07-5.61-1.07-5.61s-1.38 1.6-3.66 4.62a132 132 0 0 0-4.57-24.9 169 169 0 0 0-11.5-29.5 123 123 0 0 0-10.5-18q-2.16-3.22-4.39-6.24c-6.96-11.4-15-18.3-24.2-31.5a95.4 95.4 0 0 1-12.1-32.8 133 133 0 0 0-5.81 21.5c-9.49-9.58-17.8-16.4-22.7-21-24.7-23-21.8-34.9-21.8-34.9s-46 51.3-26 105a103 103 0 0 0 34.2 45.6c19.3 15.8 40 28.4 50.9 60.3a102 102 0 0 0-38.4-40.5 92.5 92.5 0 0 1 7.31 36.6 87.1 87.1 0 0 1-106 84.8 80.1 80.1 0 0 1-21.6-7.31 87.7 87.7 0 0 1-25.8-23.9l-.124-.23 1.54.562a79.4 79.4 0 0 0 11 2.95 68.8 68.8 0 0 0 43.8-5.17c13.8-7.64 22.1-13.3 28.8-11.1h.124c6.61 2.1 11.8-4.3 7.08-11a35.9 35.9 0 0 0-34.7-13.6c-13.8 2.01-26.4 11.8-44.5 2.32a38.4 38.4 0 0 1-3.39-1.99c-1.22-.709 3.88 1.07 2.69.276a89.5 89.5 0 0 1-11.3-6.76c-.267-.23 2.73.852 2.44.636a43.8 43.8 0 0 1-11.8-12 21.3 21.3 0 0 1-.804-19 16.8 16.8 0 0 1 7.31-6.9 8.53 8.53 0 0 1 2.13-.963 3.1 3.1 0 0 1 .463-.0922l.889.322c1.78.815 4.45 2.16 6.61 3.35a54.8 54.8 0 0 1 5.81 5.24 26.1 26.1 0 0 0 3.58-13.7 63 63 0 0 0-.743-9.15 1.44 1.44 0 0 1 1.15.585 11.9 11.9 0 0 0-.963-2.91v-.0922s.646-.843.951-1.16a17.5 17.5 0 0 1 2.63-2.15 122 122 0 0 1 17.9-9.13c5.07-2.21 9.25-3.9 10.1-4.39a27.9 27.9 0 0 0 3.58-2.75 24 24 0 0 0 8.06-13.9 19.5 19.5 0 0 0 .207-2.17v-1.28c-.731-2.75-5.47-4.81-30.3-7.14a21.7 21.7 0 0 1-17.7-16.6v.0922-.184a62.8 62.8 0 0 1 24.3-30.1c.634-.511-2.53.138-1.9-.369a63.1 63.1 0 0 1 6.48-2.74c.877-.369-2.56-1.78-6.57-2.13a42.7 42.7 0 0 0-22.8 2.69 57.9 57.9 0 0 0-22.2 14.8 76.8 76.8 0 0 0-42.7-3.55l-.124-.0922h.147a36 36 0 0 1-7.64-8.53l-.0967-.138-.17-.276a66.8 66.8 0 0 1-2.89-4.73 67.4 67.4 0 0 1-2.14-4.13c0-.0922-.111-.138-.157-.138-.295 0-.5 1.35-.743.999v-.0922a52.7 52.7 0 0 1-3.7-20.7s-8.35 3.3-18.3 25.6a98.8 98.8 0 0 0-7.31 34c-.0967 1.36-.134 2.44-.12 3.13v1.3a80.9 80.9 0 0 0-9.96 13.4 191 191 0 0 0-21.2 51.7 126 126 0 0 1 11.3-19.8 183 183 0 0 0-12.8 67.2 174 174 0 0 1 5.5-19.9 169 169 0 0 0 15.2 79.1 184 184 0 0 0 72.7 82.5 159 159 0 0 0 42.4 20.3c1.99.719 3.99 1.42 6.09 2.11-.646-.276-1.22-.534-1.86-.815a192 192 0 0 0 54.9 8.03c65.9 0 87.7-25.1 89.7-27.6a33.4 33.4 0 0 0 7.79-10.5q1.9-.778 3.85-1.67l.817-.368 1.49-.696a138 138 0 0 0 27.8-17.4 67.2 67.2 0 0 0 25.9-37.9 23.7 23.7 0 0 0 .355-17.5q1.01-1.61 2.08-3.41a155 155 0 0 0 23.3-75.6v-2.24a94.6 94.6 0 0 0-1.4-16.9z" fill="#FFF"/>
</svg>
