<?xml version="1.0" encoding="UTF-8"?>
<svg width="600" height="600" version="1.1" viewBox="0 0 158.75 158.75" xmlns="http://www.w3.org/2000/svg">
  <path d="m96.261 74.717c4.8327 1.0307 9.5572 0.64619 13.597-0.96643 6.3462-2.5334 11.61-6.2042 15.123-11.387 3.5139-5.1826 5.8076-11.941 4.6175-20.518-2.2448-16.179-14.178-24.775-30.477-32.145-11.726-5.3022-25.593-5.4132-40.365-2.4991-30.887 9.0152-53.465 37.68-53.465 71.653 2.05e-4 21.942 9.6047 42.772 26.258 56.947-3.6426-6.8923-6.7608-14.305-7.1621-22.58-0.56962-11.277 2.4801-22.388 10.766-31.859 8.2465-9.4266 19.821-14.002 31.887-14.692 6.0689-0.34709 12.196 0.88967 17.754 3.054 3.7829 1.679 7.5607 4.1596 11.466 4.9925zm-38.152 33.435c3.7076 16.09 13.519 26.505 24.94 30.968 12.576 4.9148 29.261 3.3698 41.443-2.1239 3.5689-1.6095 5.2388-4.0649 8.1854-6.166 12.194-12.629 19.555-29.187 20.781-46.748-0.82577 2.5848-1.8937 5.1808-3.2578 7.7844-5.9868 11.427-16.614 19.805-32.261 23.421-7.552 1.7452-16.025 1.028-23.474-2.1111-7.449-3.1391-13.917-8.7897-16.99-16.904-3.1719-8.3747-0.46773-17.13 6.0766-23.485-4.2556-1.7211-9.8484-2.5104-14.668-2.4664-9.049 10.895-13.815 24.633-10.774 37.831zm-19.534-23.762c-7.498 8.571-10.161 18.282-9.6399 28.601v3e-3c0.502 10.384 6.2246 19.838 11.499 29.299 11.726 7.2985 25.242 11.165 39.032 11.165 12.451-2.2e-4 24.701-3.1527 35.622-9.1669-10.916 3.055-22.89 3.319-33.69-0.90156-12.843-5.0187-23.716-16.794-27.728-34.204-3.0892-13.406 0.96717-27.017 8.8977-38.172-9.0697 1.6948-17.843 6.346-23.993 13.376z" fill="#fff" />
</svg>
