<?xml version="1.0" encoding="UTF-8"?>
<svg fill="#fff" version="1.1" viewBox="0 0 600 600" xmlns="http://www.w3.org/2000/svg">
 <g transform="matrix(36.3 0 0 36.3 9.53 10.7)" >
  <path d="m4.67 3.76c2.92 0 5.28 1.86 5.32 4.17 0 .013.007.025.007.039v.023c0 .029-.014.224-.024.292a1.99 1.99 0 0 1-.4.932 2.29 2.29 0 0 1-.165.19v.005a.285.285 0 0 0-.052.076.343.343 0 0 0-.046.162.6.6 0 0 0 .295.452 1.42 1.42 0 0 0 .173.109 4.88 4.88 0 0 0 2.2.435h.227a3.72 3.72 0 0 0 1.89-.524 3.84 3.84 0 0 0 1.9-3.3 6.13 6.13 0 0 0-.15-1.34c-.011-.038-.021-.076-.032-.113a8.09 8.09 0 0 0-.526-1.3 8.02 8.02 0 0 0-7.29-4.08 8 8 0 0 0-7.58 5.47 5.85 5.85 0 0 1 4.25-1.7z"/>
  <path d="m4.24 11a5.33 5.33 0 0 1 2.78-4.76h.007c.049-.027.1-.052.152-.075l.036-.018.048-.018a1.88 1.88 0 0 1 .968-.124 5.29 5.29 0 0 0-3.55-1.29c-2.57 0-4.67 1.6-4.67 3.57 0 .051 0 .1.005.153v.013a7.99 7.99 0 0 0 5.54 7.15 8.06 8.06 0 0 0 1.9.339 5.3 5.3 0 0 1-3.22-4.93z"/>
  <path d="m4.9 11a4.53 4.53 0 0 0 4.4 4.64 5.79 5.79 0 0 0 1.75-.3 8.01 8.01 0 0 0 3.72-3.1.251.251 0 0 0-.334-.353 5.74 5.74 0 0 1-.658.294 6.37 6.37 0 0 1-2.24.4 6.3 6.3 0 0 1-2.67-.58c-.02-.009-.04-.021-.06-.031a4.68 4.68 0 0 1-2.79-3.72c-.009-.105-.021-.209-.021-.315v-.008a4.8 4.8 0 0 0-1.1 3.07z"/>
 </g>
</svg>
