<svg xmlns="http://www.w3.org/2000/svg" width="600" height="600" viewBox="0 0 600 600"><path fill="#FFF" d="M247.697 321.346l1.753-1.378v-18.544c0-11.917-.258-19.11-.722-20.129-1.727-3.79-1.818-3.8-34.186-3.8H184.83l-1.944 1.945-1.945 1.944v17.699c0 18.62.363 21.3 3.097 22.889.822.477 11.229.72 31.567.733 29.703.02 30.377-.009 32.093-1.359zm-81.461 23.772c-6.825-2.833-9.532-5.385-12.545-11.827l-2.057-4.399.186-29.19.187-29.19 1.793-3.826c2.367-5.051 7.679-10.596 12.04-12.568l3.46-1.565 42.462-.19c46.91-.21 47.381-.175 53.793 3.94 4.038 2.59 6.603 5.868 8.409 10.742 1.381 3.729 1.426 4.8 1.42 34.254l-.007 30.405-1.575 3.326c-2.017 4.258-5.043 7.101-10.052 9.442l-3.991 1.865-44.897.165-44.897.164-3.73-1.548zm368.697-37.192c-.715-1.19-4.378-7.849-8.141-14.8-3.763-6.95-6.966-12.784-7.119-12.964-.378-.446-.818.348-8.95 16.124l-7.115 13.801h32.624l-1.299-2.161zm-87.272 39.116c0-.233 29.806-54.99 36.369-66.812.891-1.606 4.778-8.714 8.637-15.797l7.016-12.878h19.535c19.53 0 19.536 0 20.498 1.497 1.777 2.762 50.284 93.19 50.284 93.74 0 .299-7.858.543-17.461.543h-17.461l-4.88-8.314-4.88-8.314H492.99l-4.756 8.314-4.756 8.314H465.57c-9.85 0-17.908-.132-17.908-.293zm-32.818-15.778c-.242-8.84-.44-30.198-.44-47.464v-31.392l14.277-.48c7.851-.265 14.586-.29 14.965-.055.466.288.69 15.855.69 47.944v47.518h-29.053l-.44-16.071zm-128.146-31.819v-47.89h28.601v20.998c0 20.452.034 20.993 1.298 20.786.714-.117 11.499-9.416 23.967-20.665l22.67-20.453h40.831l-1.648 1.566c-.906.862-12.07 11.077-24.808 22.7-12.739 11.624-22.915 21.361-22.615 21.639.985.91 53.034 45.345 55.405 47.3l2.313 1.909h-44.359l-2.416-2.106c-1.328-1.158-5.408-4.858-9.067-8.222-27.783-25.548-38.286-34.901-39.192-34.901-.934 0-1.049 2.47-1.049 22.614v22.615h-29.931v-47.89zM10 300.11v-47.89l24.776.012 24.777.011 25.94 31.684 25.94 31.684.173-32.04.173-32.04 15.458.179 15.458.178.17 47.731.171 47.732-25.06-.174-25.06-.175-18.89-23.28c-10.39-12.803-21.937-27.087-25.661-31.74l-6.771-8.463-.173 32.24L41.25 348H10v-47.89z"/></svg>
