<svg xmlns="http://www.w3.org/2000/svg" fill="#fff" height="600" width="600" viewBox="0 0 600 600"><path d="m268 42.1a258 258 0 0 0 -258 258 258 258 0 0 0 7.61 61 64 64 0 0 1 55.5 -32.3 64 64 0 0 1 26.4 5.79 173 173 0 0 1 -3.67 -34.5 173 173 0 0 1 173 -173 173 173 0 0 1 173 173 173 173 0 0 1 -3.48 34.4 64 64 0 0 1 26.2 -5.69 64 64 0 0 1 55.5 32.3 258 258 0 0 0 7.6 -61 258 258 0 0 0 -258 -258zm-195 301a49.8 49.8 0 0 0 -48.9 40.8 258 258 0 0 0 244 175 258 258 0 0 0 244 -175 49.8 49.8 0 0 0 -48.9 -40.7 49.8 49.8 0 0 0 -31.7 11.5 173 173 0 0 1 -164 118 173 173 0 0 1 -164 -118 49.8 49.8 0 0 0 -31.8 -11.6zm474 111a42.9 42.9 0 0 0 -42.9 42.9 42.9 42.9 0 0 0 42.9 42.9 42.9 42.9 0 0 0 42.9 -42.9 42.9 42.9 0 0 0 -42.9 -42.9z" /></svg>
