<?xml version="1.0" encoding="UTF-8"?>
<svg version="1.1" viewBox="0 0 400 400" xmlns="http://www.w3.org/2000/svg">
 <path d="m200 5c-86.3 0-122 16-155 49.2-34.1 36.9-39.6 96.4-39.6 146 1e-5 49.4 5.5 109 39.6 146 33 33.2 69.2 49.2 155 49.2 86.3 0 122-16 155-49.2 34.1-36.9 39.6-96.4 39.6-146 2e-5-49.4-5.5-109-39.6-146-33-33.2-69.2-49.2-155-49.2zm118 185c7.9 6.12 14.3 12.4 19 19 6.26 8.77 9.66 18.8 7.07 28.5-2.59 9.75-10.5 16.7-20.3 21.2s-22 7.06-36.1 8.15c-28.3 2.18-64.5-1.69-103-11.9-38.4-10.2-71.8-24.8-95.3-40.8-11.7-7.97-21.1-16.2-27.3-25-6.26-8.77-9.66-18.8-7.07-28.5 2.59-9.75 10.5-16.7 20.3-21.2 7.42-3.42 16.2-5.71 26.2-7.09 22.1-32.4 58.8-51.8 98.2-51.6 61.9.57 113 47.9 118 109zm-31.7 60.5c9.12-15.3 14-32.9 14-50.7 0-55.1-44.7-99.8-99.8-99.7s-99.8 44.7-99.8 101c21.3 14.9 52.9 28.9 89.3 38.2 36.4 9.42 70.8 13 96.3 11.2zm-203-95.1c-7.04 3.24-10.1 6.78-11 10.2-.91 3.43-.0134 8.01 4.49 14.3 1.51 2.12 3.42 4.36 5.69 6.67 1.34-11.8 4.43-23.3 9.18-34.2-3.16.904-5.96 1.9-8.36 3.02zm226 91.4c3.03-.867 5.73-1.84 8.05-2.91 7.04-3.24 10.1-6.78 11-10.2s.0134-8.01-4.49-14.3c-1.49-2.08-3.36-4.28-5.56-6.56-1.3 11.7-4.33 23.2-9 34zm-224-16.1c7.83 5.03 16.4 9.86 25.7 14.4 17 33.5 51.4 54.6 89 54.6 19.4-.0221 38.5-5.72 54.7-16.4 10.4.649 20.3.724 29.7.222-22.3 22.5-52.7 35.2-84.4 35.3-53.9.037-101-36.1-115-88.1z" fill="#fff"/>
</svg>
