<svg xmlns="http://www.w3.org/2000/svg" width="600" height="600" viewBox="0 0 600 600"><path fill="#FFF" d="M268.64 587.58c-72.9-6.838-136.673-38.321-188.143-92.882-119.725-126.915-93.78-330.925 54.614-429.423C232.561.59 367.221.59 464.67 65.275c107.6 71.42 155.718 204.45 117.137 323.842-42.04 130.092-170.971 211.8-313.167 198.463zm14.084-63.87c35.473-12.444 55.149-39.575 55.285-76.232.151-40.622-19.618-59.915-101.101-98.668-38.757-18.433-54.723-28.158-71.067-43.29-38.473-35.619-54.888-81.233-46.702-129.77 5.13-30.411 19.361-61.108 36.352-78.407 15.624-15.909 13.556-16.447-7.754-2.018-32.137 21.759-65.182 59.642-82.13 94.155-21.056 42.879-27.398 68.973-27.61 113.594-.186 38.975 4.173 62.218 17.909 95.487 19.359 46.89 64.626 99.382 100.072 116.044 37.597 17.673 91.322 21.532 126.746 9.105zm162.448-8.742c54.945-35.513 92.59-87.786 110.23-153.066 8.185-30.288 8.171-90.857-.028-121.329-16.551-61.515-67.05-123.841-123.815-152.811-43.299-22.098-98.2-27.426-130.005-12.615-58.802 27.382-72.131 95.696-25.502 130.704 19.018 14.278 30.028 20.526 84.08 47.712 58.357 29.352 84.52 51.356 100.593 84.602 26.129 54.045 14.358 125.152-28.822 174.113-8 9.071-13.093 16.493-11.317 16.493 1.776 0 12.84-6.211 24.586-13.803z"/></svg>
