<?xml version="1.0" encoding="UTF-8"?>
<svg width="600" height="600" version="1.1" viewBox="0 0 158.75 158.75" xmlns="http://www.w3.org/2000/svg">
  <path d="m79.375 5.2917c-40.915 0-74.083 33.168-74.083 74.083 0 19.648 7.8053 38.492 21.699 52.385 13.893 13.893 32.737 21.698 52.385 21.698 19.648 0 38.491-7.8049 52.385-21.698 13.893-13.893 21.699-32.737 21.699-52.385 0-19.648-7.8053-38.491-21.699-52.385-13.893-13.893-32.737-21.699-52.385-21.699zm62.467 45.402c4.0937 8.9132 6.2743 18.684 6.2742 28.681-1e-5 6.424-0.90044 12.755-2.6291 18.825-5.5868-14.172-17.267-30.679-40.991-40.606-8.6732-3.6292-17.044-5.0286-24.815-5.0025-9.9924 0.03358-18.995 2.4237-26.381 5.4616-1.3561 0.55779-2.6556 1.1378-3.9016 1.7285 13.955-12.854 31.893-21.145 51.667-21.043 16.443 0.08471 31.193 2.8222 40.777 11.955zm-62.191 5.8844c7.2866-0.02657 15.132 1.293 23.3 4.7104 23.974 10.031 34.729 26.739 39.647 40.603 0.29557 0.83331 0.56448 1.6529 0.81851 2.4633-3.4229 8.7752-8.6442 16.839-15.433 23.628-3.2308 3.2308-6.7505 6.1066-10.498 8.6026 3.8196-14.66 5.1278-33.352-4.7905-49.717-12.151-20.048-28.236-26.728-42.984-27.138-3.4035-0.09452-6.736 0.14464-9.9323 0.63079-0.84555 0.1286-1.6792 0.27795-2.5056 0.43759 6.4996-2.4126 14.076-4.1909 22.379-4.2211zm-10.838 7.0947c13.818 0.04061 28.678 5.8368 40.457 25.271 10.043 16.57 7.4367 36.305 3.021 50.779-10.008 5.4583-21.311 8.3934-32.916 8.3934-8.3171 0-16.477-1.5117-24.118-4.3748 0.21879-0.0174 0.42938-0.0366 0.65776-0.0516 20.516 1.9274 41.654-17.399 41.393-40.625-0.12082-10.753-6.5026-22.251-14.417-29.02-6.9444-5.9387-15.896-9.3093-24.327-9.4149 0.60144-0.1108 1.206-0.21608 1.8165-0.30895 2.7413-0.41695 5.5646-0.65642 8.4325-0.64799z" fill="#fff"/>
</svg>
