<svg xmlns="http://www.w3.org/2000/svg" fill="#fff" height="600" width="600" viewBox="0 0 600 600"><path d="M234.896 44.261c-28.576.447-62.582 7.656-104.816 25.118L74.608 261.592c44.76-18.508 80.019-26.923 109.64-26.694 44.894.34 76.508 18.818 105.901 38.611l55.393-191.308c-30.463-20.647-63.018-38.684-110.646-37.94zm139.935 58.094l-55.459 192.353c48.665 32.97 107.422 60.077 215.269 11.797L590 114.791c-112.408 46.474-166.456 20.347-215.169-12.436zM170.056 270.33c-28.597.447-62.622 7.664-104.883 25.137L10 488.172c112.674-46.59 165.742-19.564 214.563 13.294l56.218-193.171c-30.484-20.662-63.063-38.712-110.725-37.966zm139.968 56.51l-55.32 191.195c48.71 33.031 102.761 59.39 215.309 12.842l55.459-191.568c-112.527 46.512-166.688 20.361-215.448-12.47z"/></svg>
