<svg xmlns="http://www.w3.org/2000/svg" fill="#fff" height="600" width="600" viewBox="0 0 600 600"><path d="M300 10A290 290 0 0 0 10 300a290 290 0 0 0 290 290 290 290 0 0 0 290-290A290 290 0 0 0 300 10zM154.72 126h97.919c19.42 0 29.138 10.668 29.138 32.016v73.603h-47.513v-60.928h-60.748v104.737h79.955c19.42 0 29.129 10.45 29.129 31.353V442.21c0 21.199-9.71 31.791-29.13 31.791h-98.134C135.778 474 126 463.408 126 442.209V158.016c0-21.348 9.576-32.016 28.72-32.016zm233.85 0h43.54v1.998l-66.772 236.16h46.098V259.416h40.794v104.742H474v44.244h-21.77V474h-40.794v-65.598H317.4v-30.906L388.57 126zM173.516 319.68v109.629h61.775v-109.63h-61.775z" /></svg>
