<svg xmlns="http://www.w3.org/2000/svg" height="600" width="600" viewBox="0 0 600 600"><path d="M300 10c-52.2 0-104.4 14.511-145 40.611C204.3 39.011 291.3 91.2 300 97c8.7-5.8 92.8-57.989 145-46.389C401.5 24.511 352.2 10 300 10zm191.388 81.789c-14.613 1.614-45.652 15.01-107.277 74.822 58 69.6 168.2 237.789 145 307.389v2.889H532c37.7-49.3 58-110.189 58-176.889 0-81.2-31.9-153.689-87-205.889 0 0-2.843-3.29-11.612-2.322zm-384.023.17C98.512 90.838 95.912 94.111 97 94.111 44.8 146.311 10 218.8 10 300c0 66.7 23.2 127.589 58 176.889h2.888c2.9 0 0 .011 0-2.889-23.2-66.7 87-234.9 145-304.5-61.625-61.625-93.768-75.672-108.523-77.541zM300 239.111C210.1 305.811 62.211 471.1 108.611 517.5 160.811 561 227.5 590 300 590c72.5 0 139.188-26.1 191.388-72.5C534.888 471.1 387 305.811 300 239.111z" fill="#FFF"/></svg>
