<?xml version="1.0" encoding="UTF-8"?>
<svg fill="#fff" version="1.1" viewBox="0 0 600 600" xmlns="http://www.w3.org/2000/svg">
 <path d="m300 10a290 290 0 0 0-290 290 290 290 0 0 0 290 290 290 290 0 0 0 290-290 290 290 0 0 0-290-290zm121 151a6.7 6.7 0 0 1 5.83 10.4l-32 55.3a189 189 0 0 1 98.1 151h-385a189 189 0 0 1 98.1-152l-32-55.3a6.7 6.7 0 0 1 11.6-6.7l32.4 56.2a201 201 0 0 1 165 0l32.4-56.1a6.7 6.7 0 0 1 5.73-3.72zm-32.6 130a16 16 0 0 0 .666 32.1 16 16 0 0 0 16-16 16 16 0 0 0-16.7-16zm-177 .004a16 16 0 0 0 .777 32.1 16 16 0 0 0 16-16 16 16 0 0 0-16.8-16z" />
</svg>
