<?xml version="1.0" encoding="UTF-8"?>
<svg fill="#fff" version="1.1" viewBox="0 0 600 600" xmlns="http://www.w3.org/2000/svg">
 <path d="m560 202a159 159 0 0 0-55.9-70.9c13.1 26.1 22.4 55.9 26.1 85.8-31.7-78.3-83.9-112-129-179-1.86-3.73-11.2-18.6-13.1-28a203 203 0 0 0-97 140c-18.6 0-37.3 5.59-55.9 13.1-3.73 1.86-5.59 5.59-3.73 9.32 0 3.73 3.73 5.59 7.46 5.59 5.59 0 22.4-13.1 59.7-14.9 74.6 0 112 52.2 123 72.7-18.6-14.9-42.9-18.6-67.1-18.6a116 116 0 0 1-54.1 220c-89.5 0-123-65.3-129-104-3.73-39.2 13.1-48.5 93.2-48.5 14.9-5.59 26.1-16.8 33.6-29.8 0-3.73-48.5-22.4-67.1-41l-18.6-18.6-7.46-5.59a127 127 0 0 1 0-69c-26.1 13.1-50.4 29.8-69 52.2-11.2-14.9-9.32-59.7-9.32-70.9-3.73 1.86-106 59.7-106 209a280 280 0 0 0 280 280c138 0 261-112 278-250 3.73-39.2-1.86-93.2-18.6-138z" />
</svg>
