<?xml version="1.0" encoding="utf-8"?>
<!-- Generator: Adobe Illustrator 25.0.0, SVG Export Plug-In . SVG Version: 6.00 Build 0)  -->
<svg version="1.1"
	 id="svg4" xmlns:cc="http://creativecommons.org/ns#" xmlns:dc="http://purl.org/dc/elements/1.1/" xmlns:inkscape="http://www.inkscape.org/namespaces/inkscape" xmlns:rdf="http://www.w3.org/1999/02/22-rdf-syntax-ns#" xmlns:sodipodi="http://sodipodi.sourceforge.net/DTD/sodipodi-0.dtd" xmlns:svg="http://www.w3.org/2000/svg"
	 xmlns="http://www.w3.org/2000/svg" xmlns:xlink="http://www.w3.org/1999/xlink" x="0px" y="0px" viewBox="0 0 450 450"
	 style="enable-background:new 0 0 450 450;" xml:space="preserve">
<style type="text/css">
	.st0{fill:url(#SVGID_1_);}
	.st1{fill:#FFFBF0;}
</style>
<sodipodi:namedview  bordercolor="#666666" borderopacity="1" gridtolerance="10" guidetolerance="10" id="namedview4533" inkscape:current-layer="svg4" inkscape:cx="270" inkscape:cy="270" inkscape:pageopacity="0" inkscape:pageshadow="2" inkscape:window-height="1055" inkscape:window-maximized="0" inkscape:window-width="1256" inkscape:window-x="674" inkscape:window-y="237" inkscape:zoom="0.43703704" objecttolerance="10" pagecolor="#ffffff" showgrid="false">
	</sodipodi:namedview>
<linearGradient id="SVGID_1_" gradientUnits="userSpaceOnUse" x1="125.5792" y1="23.1011" x2="324.4208" y2="426.8989">
	<stop  offset="6.014861e-02" style="stop-color:#56AAAA"/>
	<stop  offset="0.9176" style="stop-color:#339999"/>
</linearGradient>
<circle class="st0" cx="225" cy="225" r="225"/>
<g>
	<path class="st1" d="M277.4,32.2c-11.4-3.1-21.6,8-17.4,19.1l23.5,61.8c2.2,5.9,0.4,12.6-4.5,16.5l-51,40.5
		c-6.1,4.8-7.3,13.6-2.7,19.9l54.1,73.7c3.4,4.7,3.7,11,0.8,15.9l-26.8,45.2c-7,11.7,4.7,25.7,17.5,20.9l91.9-34.1
		c6-2.2,12.7-0.2,16.6,4.8h0c6.5,8.6,19.7,7.3,24.5-2.3c13.8-27.6,21.1-58.1,21.2-89.2v0C424.9,133.7,363.3,55.4,277.4,32.2z"/>
	<path class="st1" d="M170.7,186.4c-3.4-4.7-3.7-11-0.8-15.9l26.8-45.2c7-11.7-4.7-25.7-17.5-20.9l-91.9,34
		c-6,2.2-12.7,0.2-16.6-4.9l0-0.1c-6.5-8.6-19.7-7.3-24.5,2.3C32.5,163,25.2,193.1,25,223.8v2.8c0.8,90.6,62.3,168.1,147.7,191.2
		c11.4,3.1,21.5-8,17.3-19.1l-23.5-61.9c-2.2-5.9-0.4-12.6,4.5-16.5l51-40.5c6.1-4.8,7.3-13.6,2.7-19.9L170.7,186.4z"/>
</g>
</svg>
