<?xml version="1.0" encoding="utf-8"?>
<!-- Generator: Adobe Illustrator 25.0.0, SVG Export Plug-In . SVG Version: 6.00 Build 0)  -->
<svg version="1.1"
	 id="svg4" sodipodi:docname="hx-cr2-3.svg" xmlns:cc="http://creativecommons.org/ns#" xmlns:dc="http://purl.org/dc/elements/1.1/" xmlns:inkscape="http://www.inkscape.org/namespaces/inkscape" xmlns:rdf="http://www.w3.org/1999/02/22-rdf-syntax-ns#" xmlns:sodipodi="http://sodipodi.sourceforge.net/DTD/sodipodi-0.dtd" xmlns:svg="http://www.w3.org/2000/svg"
	 xmlns="http://www.w3.org/2000/svg" xmlns:xlink="http://www.w3.org/1999/xlink" x="0px" y="0px" viewBox="0 0 540 540"
	 style="enable-background:new 0 0 540 540;" xml:space="preserve">
<style type="text/css">
	.st0{fill:url(#SVGID_1_);}
	.st1{fill:#FFFBF0;}
</style>
<linearGradient id="SVGID_1_" gradientUnits="userSpaceOnUse" x1="155.1137" y1="505.3054" x2="384.8863" y2="38.6946" gradientTransform="matrix(1 0 0 -1 0 542)">
	<stop  offset="6.014861e-02" style="stop-color:#56AAAA"/>
	<stop  offset="0.9176" style="stop-color:#339999"/>
</linearGradient>
<circle class="st0" cx="270" cy="270" r="260"/>
<g>
	<path class="st1" d="M330.8,115.1c-4.2-11,7.1-21.7,17.8-16.8C414.9,128.5,459.9,195,460,271.2v0v0c0,24.1-4.7,47.8-13.6,70
		c-2.6,6.4-11.1,7.6-15.3,2.1l0,0c-2.4-3.1-6.5-4.3-10.1-3l-76.6,28.4c-10.5,3.9-20.1-7.6-14.4-17.3l9.8-16.5
		c6.1-10.3,5.5-23.3-1.6-33l-41.3-56.2c-7.9-10.8-5.9-25.9,4.6-34.3l39.1-31c6.9-5.5,9.5-14.8,6.3-23L330.8,115.1z"/>
	<path class="st1" d="M209.2,424.9c4.2,11-7.1,21.7-17.8,16.8C125.1,411.5,80.1,345,80,268.8v0v0c0-24.1,4.7-47.8,13.6-70
		c2.6-6.4,11.1-7.6,15.3-2.1l0,0c2.4,3.1,6.5,4.3,10.1,3l76.6-28.4c10.5-3.9,20.1,7.6,14.4,17.3l-9.8,16.5
		c-6.1,10.3-5.5,23.3,1.6,33l41.3,56.2c7.9,10.8,5.9,25.9-4.6,34.3l-39.1,31c-6.9,5.5-9.5,14.8-6.3,23L209.2,424.9z"/>
</g>
<sodipodi:namedview  bordercolor="#666666" borderopacity="1" gridtolerance="10" guidetolerance="10" id="namedview4533" inkscape:current-layer="svg4" inkscape:cx="270" inkscape:cy="270" inkscape:document-rotation="0" inkscape:pageopacity="0" inkscape:pageshadow="2" inkscape:window-height="1017" inkscape:window-maximized="1" inkscape:window-width="1920" inkscape:window-x="-8" inkscape:window-y="-8" inkscape:zoom="1.5296296" objecttolerance="10" pagecolor="#ffffff" showgrid="false">
	</sodipodi:namedview>
</svg>
