<?xml version="1.0" encoding="utf-8"?>
<!-- Generator: Adobe Illustrator 25.0.0, SVG Export Plug-In . SVG Version: 6.00 Build 0)  -->
<svg version="1.1" id="图层_1" xmlns="http://www.w3.org/2000/svg" xmlns:xlink="http://www.w3.org/1999/xlink" x="0px" y="0px"
	 viewBox="0 0 540 540" style="enable-background:new 0 0 540 540;" xml:space="preserve">
<style type="text/css">
	.st0{fill:url(#SVGID_1_);}
	.st1{fill:#FFFBF0;}
</style>
<linearGradient id="SVGID_1_" gradientUnits="userSpaceOnUse" x1="10" y1="270" x2="530" y2="270">
	<stop  offset="2.172830e-02" style="stop-color:#56AAAA"/>
	<stop  offset="0.9176" style="stop-color:#339999"/>
</linearGradient>
<circle class="st0" cx="270" cy="270" r="260"/>
<g>
	<path class="st1" d="M192.4,386.7c-1.7-4.5-0.3-9.6,3.5-12.6l53.2-42.2c9-7.1,10.7-20.1,3.9-29.4l-56.7-77.3
		c-2.6-3.6-2.9-8.4-0.6-12.2l27.1-45.6c5-8.5-3.4-18.6-12.7-15.2l-98.5,36.5c-4.4,1.6-9.3,0.2-12.1-3.5l0,0
		c-5.4-7.2-16.5-5.8-20.1,2.5c-11.1,25.9-16.9,53.9-16.9,82.3c0,87.9,54.8,165.2,135.1,195.6c11.2,4.2,22.2-6.7,17.9-17.9
		L192.4,386.7z"/>
	<path class="st1" d="M347.6,153.3c1.7,4.5,0.3,9.6-3.5,12.6l-53.2,42.2c-9,7.1-10.7,20.1-3.9,29.4l56.7,77.3
		c2.6,3.6,2.9,8.4,0.6,12.2l-27.1,45.6c-5,8.5,3.4,18.6,12.7,15.2l98.5-36.5c4.4-1.6,9.3-0.2,12.1,3.5l0,0
		c5.4,7.2,16.5,5.8,20.1-2.5c11.1-25.9,16.9-53.9,16.9-82.3c0-87.9-54.8-165.2-135.1-195.6c-11.2-4.2-22.2,6.7-17.9,17.9
		L347.6,153.3z"/>
</g>
</svg>
