<?xml version="1.0" encoding="UTF-8" standalone="no"?>
<svg
   xmlns:dc="http://purl.org/dc/elements/1.1/"
   xmlns:cc="http://creativecommons.org/ns#"
   xmlns:rdf="http://www.w3.org/1999/02/22-rdf-syntax-ns#"
   xmlns:svg="http://www.w3.org/2000/svg"
   xmlns="http://www.w3.org/2000/svg"
   xmlns:sodipodi="http://sodipodi.sourceforge.net/DTD/sodipodi-0.dtd"
   xmlns:inkscape="http://www.inkscape.org/namespaces/inkscape"
   height="540"
   width="540"
   viewBox="0 0 540 540"
   version="1.1"
   id="svg4"
   sodipodi:docname="hx-cr2.svg"
   inkscape:version="0.92.3 (2405546, 2018-03-11)">
  <sodipodi:namedview
     pagecolor="#ffffff"
     bordercolor="#666666"
     borderopacity="1"
     objecttolerance="10"
     gridtolerance="10"
     guidetolerance="10"
     inkscape:pageopacity="0"
     inkscape:pageshadow="2"
     inkscape:window-width="1256"
     inkscape:window-height="1055"
     id="namedview4533"
     showgrid="false"
     inkscape:zoom="0.43703704"
     inkscape:cx="270"
     inkscape:cy="270"
     inkscape:window-x="674"
     inkscape:window-y="237"
     inkscape:window-maximized="0"
     inkscape:current-layer="svg4" />
  <metadata
     id="metadata10">
    <rdf:RDF>
      <cc:Work
         rdf:about="">
        <dc:format>image/svg+xml</dc:format>
        <dc:type
           rdf:resource="http://purl.org/dc/dcmitype/StillImage" />
        <dc:title></dc:title>
      </cc:Work>
    </rdf:RDF>
  </metadata>
  <defs
     id="defs8" />
  <path
     style="fill:#008080"
     d="M 495,270 A 225,225 0 0 0 270,45 225,225 0 0 0 45,270 225,225 0 0 0 270,495 225,225 0 0 0 495,270 Z m -25.02929,0 a 200,200 0 0 1 -32.49414,108.95312 l -19.66602,-26.05273 -140.30078,52 52.50977,-88.59961 L 262.00977,223.69922 332.25,167.99 295.74219,71.86695 A 200,200 0 0 1 469.97071,269.99023 Z M 278.01954,316.29078 207.7793,371.99 244.32227,468.13258 A 200,200 0 0 1 70.0293,271.64062 v -2.82031 a 200,200 0 0 1 32.48047,-107.85352 l 19.71094,26.12305 140.29883,-51.98047 -52.50977,88.58008 z"
     id="path4495-3-6"
     inkscape:connector-curvature="0" />
</svg>
