<?xml version="1.0" encoding="UTF-8"?>
<svg width="540" height="540" version="1.1" viewBox="0 0 540 540" xmlns="http://www.w3.org/2000/svg" xmlns:xlink="http://www.w3.org/1999/xlink">
 <defs>
  <linearGradient id="linearGradient1516" x1="238.81" x2="385.36" y1="147.28" y2="499.53" gradientTransform="translate(0 43.675)" gradientUnits="userSpaceOnUse">
   <stop stop-color="#00c2c5" offset="0"/>
   <stop stop-color="#22a4e2" offset="1"/>
  </linearGradient>
 </defs>
 <path d="m530 342.91c0-143.59-116.41-260-260-260s-260 116.41-260 260v54.185c0 33.24 26.76 60 60 60h400c33.24 0 60-26.76 60-60zm-260-224.5c46.2 0 89.065 14.252 124.46 38.584-6.0916 2.6721-25.259 11.776-28.24 21.965-16.258 55.568 104.82 125.77 60.363 162.87-30.599 25.532-63.046-62.918-102.85-60.957-44.403 2.1877-63.434 84.864-107.5 78.949-34.379-4.6151-31.213-72.329-64.656-81.537-29.037-7.9953-77.997 20.366-100.11 34.639 12.636-109.49 105.64-194.51 218.52-194.51z" fill="url(#linearGradient1516)" stroke="#00c4c5"/>
</svg>
