<?xml version="1.0" encoding="UTF-8" standalone="no"?>
<svg
   xmlns:dc="http://purl.org/dc/elements/1.1/"
   xmlns:cc="http://creativecommons.org/ns#"
   xmlns:rdf="http://www.w3.org/1999/02/22-rdf-syntax-ns#"
   xmlns:svg="http://www.w3.org/2000/svg"
   xmlns="http://www.w3.org/2000/svg"
   xmlns:sodipodi="http://sodipodi.sourceforge.net/DTD/sodipodi-0.dtd"
   xmlns:inkscape="http://www.inkscape.org/namespaces/inkscape"
   height="600"
   width="600"
   viewBox="0 0 600 600"
   version="1.1"
   id="svg4"
   sodipodi:docname="hxegg.svg"
   inkscape:version="0.92.1 r15371">
  <metadata
     id="metadata10">
    <rdf:RDF>
      <cc:Work
         rdf:about="">
        <dc:format>image/svg+xml</dc:format>
        <dc:type
           rdf:resource="http://purl.org/dc/dcmitype/StillImage" />
        <dc:title></dc:title>
      </cc:Work>
    </rdf:RDF>
  </metadata>
  <defs
     id="defs8" />
  <sodipodi:namedview
     pagecolor="#ffffff"
     bordercolor="#666666"
     borderopacity="1"
     objecttolerance="10"
     gridtolerance="10"
     guidetolerance="10"
     inkscape:pageopacity="0"
     inkscape:pageshadow="2"
     inkscape:window-width="1855"
     inkscape:window-height="1056"
     id="namedview6"
     showgrid="false"
     inkscape:snap-smooth-nodes="true"
     inkscape:snap-intersection-paths="true"
     inkscape:snap-object-midpoints="true"
     inkscape:zoom="1.1125147"
     inkscape:cx="172.4554"
     inkscape:cy="279.67735"
     inkscape:window-x="65"
     inkscape:window-y="24"
     inkscape:window-maximized="1"
     inkscape:current-layer="svg4" />
  <path
     style="opacity:1;fill:#f00684;"
     d="M 300 10 A 290 290 0 0 0 10 300 A 290 290 0 0 0 300 590 A 290 290 0 0 0 590 300 A 290 290 0 0 0 300 10 z M 299.98633 42.259766 L 299.98828 42.259766 A 257.77778 257.77778 0 0 1 440.41602 84.140625 L 406.83594 109.48828 L 473.85938 290.32031 L 359.66406 222.64062 L 240.31055 310.29883 L 168.51953 219.76758 L 44.628906 266.82031 A 257.77778 257.77778 0 0 1 299.98633 42.259766 z "
     id="path4505" />
</svg>
