<?xml version="1.0" encoding="UTF-8"?>
<svg version="1.1" viewBox="0 0 480 480" xml:space="preserve" xmlns="http://www.w3.org/2000/svg"><linearGradient id="a" x1="164.51" x2="331.98" y1="-4.2112" y2="473.97" gradientTransform="rotate(-90)" gradientUnits="userSpaceOnUse"><stop stop-color="#ffbf00" offset=".22616"/><stop stop-color="#ffa52b" offset=".4849"/><stop stop-color="#ff5627" offset=".80724"/></linearGradient><path transform="rotate(90)" d="m465-240a225 225 0 0 1-225 225 225 225 0 0 1-225-225 225 225 0 0 1 225-225 225 225 0 0 1 225 225z" fill="url(#a)"/><path d="m278.6 185.7c4.7-3.4 11-3.7 15.9-0.8l45.2 26.8c11.7 7 25.7-4.7 20.9-17.5l-34-91.9c-2.2-6-0.2-12.7 4.9-16.6h0.1c8.6-6.5 7.3-19.7-2.3-24.5-27.3-13.7-57.4-21-88.1-21.2h-2.8c-90.6 0.8-168.1 62.3-191.2 147.7-3.1 11.4 8 21.5 19.1 17.3l61.9-23.5c5.9-2.2 12.6-0.4 16.5 4.5l40.5 51c4.8 6.1 13.6 7.3 19.9 2.7z" fill="#fffbf0"/></svg>
