<?xml version="1.0" encoding="UTF-8"?>
<svg viewBox="0 0 540 540" xml:space="preserve" xmlns="http://www.w3.org/2000/svg"><linearGradient id="a" x1="135.16" x2="403.8" y1="47.772" y2="494.52" gradientUnits="userSpaceOnUse"><stop stop-color="#4592d1" offset=".5"/><stop stop-color="#46a3d2" offset=".9"/></linearGradient><circle class="st0" cx="270" cy="270" r="260" fill="url(#a)"/><g transform="rotate(90,270,270)" fill="#fffbf0"><path d="m192.4 386.7c-1.7-4.5-0.3-9.6 3.5-12.6l53.2-42.2c9-7.1 10.7-20.1 3.9-29.4l-56.7-77.3c-2.6-3.6-2.9-8.4-0.6-12.2l27.1-45.6c5-8.5-3.4-18.6-12.7-15.2l-98.5 36.5c-4.4 1.6-9.3 0.2-12.1-3.5-5.4-7.2-16.5-5.8-20.1 2.5-11.1 25.9-16.9 53.9-16.9 82.3 0 87.9 54.8 165.2 135.1 195.6 11.2 4.2 22.2-6.7 17.9-17.9z"/><path d="m347.6 153.3c1.7 4.5 0.3 9.6-3.5 12.6l-53.2 42.2c-9 7.1-10.7 20.1-3.9 29.4l56.7 77.3c2.6 3.6 2.9 8.4 0.6 12.2l-27.1 45.6c-5 8.5 3.4 18.6 12.7 15.2l98.5-36.5c4.4-1.6 9.3-0.2 12.1 3.5 5.4 7.2 16.5 5.8 20.1-2.5 11.1-25.9 16.9-53.9 16.9-82.3 0-87.9-54.8-165.2-135.1-195.6-11.2-4.2-22.2 6.7-17.9 17.9z"/></g></svg>
