<svg viewBox="0 0 600 600" xmlns="http://www.w3.org/2000/svg"><path d="M132 229v133h18.8v-133zm439 0v133h18.8v-133zm-169 .801v132h18.8v-93.7h18.9v-18.7h-18.9v-19.9zm-123 22.4c-12 12-18.8 28.2-18.8 45.2 0 17 6.81 33.2 18.8 45.2 12.1 12 28.3 18.7 45.4 18.7 9.51 0 18.7-2.1 27.2-6.11l36.9 15.8v-73.7c0-17-6.81-33.2-18.8-45.2-12.1-12-28.3-18.7-45.3-18.6-17 .055-33.3 6.77-45.4 18.8zm-62.6-1.7c-31.3.068-56.7 25.3-56.7 56.5 0 31.1 25.3 56.4 56.7 56.4 15-.032 29.3-6.01 39.9-16.6l-14-14c-7.01 7.01-16.6 11-26.5 11-20.7 0-37.5-16.7-37.5-37.4s16.8-37.4 37.5-37.4c9.91 0 19.5 4 26.5 11l13.4-13.4c-10-10-24-16-39-16zm109 .1c27.1 0 49 21.8 49 48.9v48.8h-16.3v-12.6c-8.91 8.11-20.5 12.6-32.6 12.6-27.1.069-49.1-21.8-49.1-48.8 0-27 21.9-48.9 49-48.9zm181 0c-15.1 0-29.5 5.91-40.1 16.5-10.6 10.5-16.5 24.9-16.5 39.9s6.01 29.3 16.5 39.9c10.6 10.6 25 16.5 40 16.5 21.6 0 41.2-12.3 50.9-31.6h-22.7c-7.11 8.01-17.3 12.6-28 12.6-17.1 0-32-11.6-36.3-28h92.2c.501-3.1.799-6.21.799-9.41 0-15-6.01-29.3-16.5-39.9-10.6-10.6-25-16.5-40.1-16.5zm-441 .1c-30.5 0-56 25-56 56s25.5 56.1 56.7 56.1c13.8 0 27.1-5.01 37.4-14v14.5h18.8v-56.4c-.2-30.9-25.3-56-56.4-56.2zm259 16.4c-17.9 0-32.4 14.5-32.4 32.3s14.5 32.3 32.4 32.3 32.4-14.5 32.4-32.3-14.5-32.3-32.4-32.3zm-258 3c20.5 0 37.2 16.4 37.5 36.9.302 20.7-16.3 37.8-37.3 37.9-21 .15-37.9-16.7-37.8-37.7.149-20.8 17-37.2 37.5-37.2zm440 0c17.2 0 32.1 11.6 36.4 28h-72.7c4.3-16.5 19.2-28 36.3-28z"/></svg>