<svg viewBox="0 0 600 600" xmlns="http://www.w3.org/2000/svg"><path d="M300 10c-160 0-290 130-290 290s130 290 290 290 290-130 290-290-130-290-290-290zm29.9 242l-26.6 20.8c-27.9-19.2-59-45.7-89.6-45.7-44.2.163-79 33.1-79 71.8 0 38.6 34.1 70.3 79 71.1 31.1.537 52.9-20.5 74.5-43.5 37.5-40.5 52.9-78.3 81.3-123 6.5-10.2 21.5-9.83 27.6.643l99.4 173c8.66 15.2-9.6 31.3-23.6 20.9l-118-88.5 26.9-20.1 48 35.9-46.9-81.7c-19.7 33.8-37.4 67.7-71.1 104-22.1 23.8-52.2 54.8-97.9 54.1-60.1-1.04-111-45.7-111-103 0-57.5 50.7-104 111-104 45.7-.17 92.3 40.5 116 57.1z"/></svg>