<?xml version="1.0" encoding="UTF-8"?>
<svg version="1.1" viewBox="0 0 600 600" xmlns="http://www.w3.org/2000/svg">
 <path d="m225 261c-36.1 0-65.3 17.3-65.3 38.5 0 21.3 29.3 38.5 65.3 38.5 36.1 0 65.3-17.3 65.3-38.5 0-21.3-29.3-38.5-65.3-38.5zm150 0c-36.1 0-65.3 17.3-65.3 38.5 0 21.3 29.3 38.5 65.3 38.5 36.1 0 65.3-17.3 65.3-38.5 0-21.3-29.3-38.5-65.3-38.5zm-364 0.132v77h23.5c22.6 0 42.7 0.415 67.2-2.25 19.3-2.11 39.7-13.8 39.7-36.2 0-22.4-20.5-34.1-39.7-36.2-18.3-2-34.2-2.31-50.6-2.33zm449 1.82c16.1 21.5 29.8 45.3 48.3 64.2 4.95 5.06 10.5 9.1 16.9 9.14 6.38 8e-3 12-4.08 17-9.14 18.6-19 32.3-42.7 48.3-64.2h-32.2c-6.53 16.8-13.2 33.5-21.1 48-3.5 6.34-7.44 11.5-12 11.5-4.49-8e-3 -8.46-5.14-11.9-11.5-7.93-14.4-14.6-31-21.1-48zm-234 6.91c24.2 0 43.8 13.3 43.8 29.7s-19.6 29.7-43.8 29.7c-24.2 0-43.8-13.3-43.8-29.7s19.6-29.7 43.8-29.7zm150 0c24.2 0 43.8 13.3 43.8 29.7s-19.6 29.7-43.8 29.7c-24.2 0-43.8-13.3-43.8-29.7s19.6-29.7 43.8-29.7zm-321 1.95c15.7-4e-3 25.9 0.189 37.5 1.63 12.3 1.52 25.3 9.97 25.3 26.1 0 16.2-13 24.6-25.3 26.1-15.5 1.92-28.4 1.62-42.7 1.62h-15v-55.5z" stroke-width="2.92e3"/>
</svg>
