<?xml version="1.0" encoding="UTF-8"?>
<svg version="1.1" viewBox="0 0 600 600" xmlns="http://www.w3.org/2000/svg">
 <path d="m300 10c-21.3 1e-3 -39 17.3-39 38.6 0 21.3 17.7 38.8 39 38.8 14.3 0 26.7-7.91 33.4-19.5 23.6 14 45.7 42.9 62 82.8 18.2 44.4 29.3 102 29.3 164 0 50.9-7.25 98.3-19.8 138l17.9 5.69c13.2-41.9 20.8-91.2 20.8-144 0-64.6-11.4-124-30.7-171-18.2-44.3-43.3-78-74.2-94.1l0.072-0.848c0-21.3-17.5-38.6-38.8-38.6zm1e-3 18.7c11.3 0 20.1 8.8 20.1 19.8s-8.84 19.9-20.1 19.9-20.2-8.84-20.2-19.9c0-11 8.88-19.8 20.2-19.8zm-131 100l-2e-3 0.012c-16.5-0.071-31.8 1.46-45.8 4.81-28 6.7-50.9 20.7-63.7 42.8-19 32.7-11.7 74.9 12.5 117l16.3-9.44c-22.3-38.5-26.9-73-12.5-97.7 9.7-16.7 27.3-28.1 51.9-34 24.6-5.86 55.7-5.82 90.3 0.426l3.34-18.5c-18.3-3.29-35.8-5.02-52.2-5.1zm266 0.367l-0.291 18.9c43.8 0.569 75.5 13.9 89.6 38.2 9.68 16.6 10.8 37.3 3.74 61.2-7.09 23.9-22.6 50.7-45.2 77.2l14.3 12.2c23.9-28 40.9-56.6 49-84 8.12-27.4 7.25-54.1-5.54-76.1-18.7-32.1-58.1-47-106-47.6zm-67.4 7.24c-44.2 9.38-92 27.8-139 54.8-57.4 32.8-104 73-136 114-29.6 38.3-46 77.2-43.5 112-11.5 6.75-19.3 19.1-19.3 33.2 0 21.3 17.5 38.6 38.8 38.6s39-17.3 39-38.6-17.6-38.7-39-38.7c-0.355 0-0.676 0.07-1.03 0.141-0.362-27.1 13.4-60.8 39.9-95.1 29.7-38.4 74.7-77.4 130-109 45.6-26.1 91.9-43.7 134-52.6zm-67.9 151v0.019c-1.79 0.019-3.61 0.213-5.43 0.568-14.6 3.13-23.8 17.4-20.7 31.8 3.16 14.4 17.5 23.7 32.1 20.5 14.6-3.13 23.9-17.4 20.7-31.8-2.76-12.6-14.1-21.3-26.7-21.1zm-175 45.8l-13.9 12.7c30.2 32.9 70 64.5 117 91.2 55.7 31.9 112 51.8 163 59 46.9 6.75 88.3 2.58 118-14.5 6.26 4.28 13.8 6.83 21.9 6.83 21.3 0 39-17.3 39-38.6s-17.6-38.7-39-38.7-38.8 17.4-38.8 38.7c0 6.27 1.65 12.1 4.33 17.3-24.3 12.4-60.4 16.4-103 10.3-47.5-6.82-102-25.9-156-56.8-45.2-25.9-83.4-56.4-112-87.6zm-56.6 96.9c11.3 0 20.1 8.8 20.1 19.8s-8.84 19.9-20.1 19.9c-11.3 0-20.1-8.84-20.1-19.9s8.84-19.8 20.1-19.8zm462 0c11.3 0 20.1 8.8 20.1 19.8s-8.84 19.9-20.1 19.9-20.1-8.84-20.1-19.9 8.84-19.8 20.1-19.8zm-331 35.7l-17.8 6.39c12.5 34.6 29.1 63.6 49 84.3 19.9 20.7 43.6 33.2 69.1 33.2 37 0 69.5-26 93.8-65.9l-16.1-9.7c-22.3 36.7-49.5 56.9-77.7 56.9-19.4 0-38.3-9.37-55.6-27.5-17.4-18.1-32.8-44.9-44.7-77.6z"/>
</svg>
