<svg viewBox="0 0 600 600" xmlns="http://www.w3.org/2000/svg"><path d="M260 30l.006.012.18-.012h-.186zm.006.012c-55.3 3.24-96.6 44-81.4 107 20.3 76.5 68.2 145 105 198 8.48-90.7 19.7-216-23.8-305zm78.5-.012l.18.012.006-.012h-.186zm.18.012c-43.6 88.7-32.3 214-23.8 305 37.1-52.8 85.1-121 105-198 15.7-63.1-26-104-81.4-107zm148 71.8l.373.938c-53 72-115 160-149 245 53.7-24.3 147-72 182-123 19.5-33.4 8.21-84.1-33.9-123zm-373 .938c-42.1 38.5-53.3 89.1-33.9 123 35.5 50.6 129 98.5 182 123-33.7-84.3-95.9-173-149-245l.371-.938zm451 137v.76c-71.3 40.3-148 78.6-213 127 67.4 1.22 136 2.61 157-5.45 34.1-10.2 78.6-73 55.9-122zm-527 .76c-22.6 48.6 21.9 112 55.9 122 21.9 8.07 90.1 6.67 157 5.45-65.1-48.4-142-86.6-213-127v-.76zm318 143l-.373.055c29.6 21.1 80.3 62.3 111 53.5 19-6.73 41.9-21.8 55.3-48.7-55.8-3.42-111-4.84-166-4.84zm-107 .055c-55.3 0-110 1.43-166 4.84 13.4 26.9 36.3 41.9 55.3 48.7 30.4 8.82 80.9-32.5 111-53.5l-.371-.057zm-116 96.3v47.5c-.23 34.3 12.9 42.9 44 43.1 35.4-1.02 41.4-13.3 41.5-43.7v-46.7h-21.8v49.2c.532 17.3-3.2 25.8-20.3 25.9-20.8-.687-21.6-11.4-21.6-26.9v-48.1l-21.8-.104zm-101 1.58v88.9h21.8v-38.8h42.4v38.8h21.8v-88.9h-21.8v35h-42.4v-35h-21.8zm283 0l25.3 88.9h23.9l21.3-66.4 21.2 66.4h23.3l25.9-88.9h-21.9l-16.4 62.1-18.8-62.1h-25.9l-19.6 61.1-16-61.1h-22.3zm236 0v88.9h21.8v-88.9h-21.8zm-286 .002l-41.8 88.9h23l8.94-20.3h43.1l9.29 20.3h23.5l-43.1-88.9h-22.9zm224 0c-20.2 0-36.5 19.9-36.5 44.5s16.3 44.5 36.5 44.5h47.9v-14.7h-39.9c-11.6 0-21.3-9.52-24-22.4h58.3v-14.7h-58.3c2.73-12.9 12.4-22.4 24-22.4h39.9v-14.7h-47.9zm-212 20.7l15 32.9h-29.5l14.5-32.9z"/></svg>