<svg xmlns="http://www.w3.org/2000/svg" width="600" height="600" viewBox="0 0 158.7    158.7   "><path d=


"M83.2 141c-7.7 0-13.3 1.8-17.2 5-3.8 3.2-6 7.6-7 12.1-2.1 9.1-.4 19.3-.5 23.7-.5 6.8-1.8 11.6-6.5 18.3-9.4 13.4-21 27.7-18.8 44.5-2 2-3.4 4.5-5.4 6-1.4 1-3.1 1.6-4.8 2.3-1.7 .7-3.5 1.8-4.5 4-1.5 3.3-1.5 6.1-1.2 8.3 .3 2.2 .6 3.8 .2 5.4-1.1 4-1.7 7.1-.7 9.7 1 2.6 3.4 4.1 7 5 5.4 1 12 1 17.4 3.5 4.2 2 9.2 3.5 14 3.4 4.5-.1 8.7-2 11.2-6.1 15.1-3.5 16.4-2.1 28.7-.7 .8 2.8 3 5 5.4 6.5 2.7 1.6 5.8 2.5 8.5 2.3 5.2-.4 10.6-3.6 15-8.8l0 0c3.8-4.3 10.1-6.4 14.7-9.1l0 0 0 0c3.4-2.3 4.5-5.6 4-8.5-.5-2.8-2.3-5.3-4-7.2-1.2-2.2-2-5.3-3-8.1-.5-1.4-1-2.7-1.8-4-.6-.8-1.4-1.5-2.4-2 4.1-17.6-5-32.6-15.2-45.4-5-6.2-9.6-12-9.6-20.3 .1-6.3 .5-16-2.1-24.4-1.3-4-3.5-8-7-10.8-3.4-2.8-8-4.6-14.1-4.6zm0 2.6c5.6 0 9.5 1.6 12.4 4 3 2.4 4.8 5.8 6 9.6 2.5 7.7 2.1 17 2 23.6l0 0v0c0 9.3 5 15.7 10.1 22 10.3 13 19 27 14.6 44.1l-.3 1.2 1.2 .3c.8 .2 1.5 .7 2.1 1.6 .6 .8 1 2 1.5 3.2 1 2.6 1.6 5.8 3.1 8.6l0 .1 .1 .1c1.6 1.7 3.1 4 3.5 6 .4 2.1 0 4-2.7 5.8-4.2 2.4-11 4.6-15.4 9.6l0 0 0 0c-4 4.7-9 7.5-13.1 7.8-2 .1-4.7-.5-7-2-2.3-1.4-4-3.4-4.5-5.7l-.1-1-1-.1c-13.4-1.4-14.6-3-31 .8l-.6 .1-.3 .5c-2 3.7-5.3 5.1-9.4 5.3-4 .1-8.7-1.1-12.6-3.1-6.1-3-13-2.7-18-3.7-3.2-.7-4.5-1.7-5.1-3.3-.5-1.6-.3-4.2 .8-8 .7-2.4 .1-4.5-.1-6.5-.2-2-.3-4 1-7 .6-1.4 1.7-2 3.2-2.7 1.5-.6 3.4-1.3 5.3-2.6 2.8-2 4.2-5 6-6.6l.5-.5-.1-.7c-2.4-15.6 8.7-29.5 18.3-43.2 5-7 6.4-12.5 7-19.6l0 0 0 0c.1-5-1.5-14.7 .4-23.2 1-4.2 2.8-8 6.1-10.7s8.2-4.5 15.5-4.4zm3.7 22.5c-3.8 0-7.8 3.6-8 9 0 .6 0 1.1 .1 1.7l3.7 1.2c0-.6 0-1.3 0-2 1.6-7.6 7-4.8 6.4 .8-.1 1.3-.6 2.5-1.4 3.4l3.3 2c1.6-1.8 2.6-4.4 2.6-7.1-.3-6.5-3.5-9.1-7-9zm-17.7 1.4c-3 0-6 3.2-6.1 8.3 0 2.6 .7 5.1 2 6.7 .8-.6 1.7-1.4 2.6-2-1-.6-1.5-2-1.7-3.3-.3-6.1 4.4-5.4 5.1-.7 0 .7 0 1.4 0 2l3-1.3c0-.4 0-1 0-1.3-.1-5.7-2.4-8.2-4.8-8.3zm7.7 10.2c-4.1 0-13 5.2-13.8 9-.7 3.7 9 10.5 12.6 10.8 4.4 .3 18.3-5.6 18-11.1-.1-3-13-8.4-16.3-8.6l-.4 0zm-3 2.2a.6 1.2 76 0 1 .7 .3 .6 1.2 76 0 1-1 .8 .6 1.2 76 0 1-1.3-.3 .6 1.2 76 0 1 1-.8 .6 1.2 76 0 1 .6 0zm5.2 0a1.2 .6 14 0 1 .6 0 1.2 .6 14 0 1 1 .8 1.2 .6 14 0 1-1.3 .3 1.2 .6 14 0 1-1-.8 1.2 .6 14 0 1 .7-.3zm10.6 5.3a.5 .5 0 0 1 .3 .8s-5.8 6.6-14.4 7c-3 .1-5.6-1.4-7.6-3-2-1.5-3.3-3.1-3.3-3.1a.5 .5 0 1 1 .8-.6s1.2 1.5 3.1 3c1.8 1.5 4.4 3 7 2.7 8.1-.4 13.7-6.6 13.7-6.6a.5 .5 0 0 1 .4-.1zm3.7 4.6c-3.6 4.2-12.5 9.1-17.7 8.7-4.2-.4-7.8-3.7-10.6-6.6 .4 18.6-15.6 33.3-14.8 50.1-1.6-1.5-3-3.8-3.4-9.2-.4-7.6 3.6-13.5 6.6-19.8 .2-.4 0-1-.4-.2-9 15-8.5 19.2-8.3 24 .1 3.8 2.2 7.4 4.2 8.8 8 5.6 20.5 14.6 15.8 20.5-.8 1-2.2 1.3-4 1.3 1.3 1.4 2.4 2.8 3.3 4.2 4.2 3.6 9.1 5.7 14.4 5.7 6.5 0 13.4-2 19.2-6 .3-2 .7-4 1-6.6 .8-9 1.3-19.8 8.5-23 .2-1 .7-1.8 1.5-2.5 1-.8 2.2-1.1 3.6-1.1 5.2 0 12.6 4.4 12.7 7.7 0 .2 0 .7 0 1l1.1 .3c0-.2 .1-.8 .1-1.1 0-3.8-3.4-7.3-9-9.1 .2-1.3 .3-2.7 .3-4 0-8.6-4-16.2-10-22.1-1.2-1.1-1.7-.4-.8 .5 5.6 5.4 9 12.7 8.2 20.6-.1 1.5-.3 3-.6 4.4-1-.2-2.2-.3-3.3-.4-3-16.4-13.7-30.8-17.8-46zm13.6 55.2c-5.5 4.3-4.3 14-5.7 20.1-.6 6.2-3 12-2.7 18.5 .1 3.6 6.1 6.8 10 6.6 3.7-.1 8.4-2.8 12.2-7.4l0 0 0 0c4.7-5.4 11.6-7.5 15.6-9.8 2.4-1.6 2.5-2.8 2.2-4.5-.3-1.7-2-3.7-3.4-5.8-2.1-3-2.5-6.6-3.4-9-.5-1.4-1-3.6-2.7-4l-4.8-1.1c-1.8 3-6.4 5.8-10.2 5.6-3.5-.1-6.5-4.8-7-9.1zm-67 .4c-1.5 0-3.1 1-4.8 2.7-1.3 1.5-2.6 3.8-5.1 5.6-2.4 1.7-6.2 2.1-8 4.8-1.8 4 0 8.2-.8 13.2-1.1 4-2.8 8.4 3.3 9.7 4.6 1 11.7 .6 18.3 3.8 3.7 1.8 8.3 3.1 12 3 5.6-.2 10.7-4.6 9-11.2-.6-2.5-2.6-5.5-6-9-3.5-3.6-6.1-9.6-9.3-14.7-1.5-2.5-3.1-4.7-4.6-6.2-1.3-1.2-2.6-1.8-3.8-1.7z"




 transform="translate(0 -138.2   )"/></svg>