<svg viewBox="0 0 600 600" xmlns="http://www.w3.org/2000/svg"><path d="M300 10c-160 0-290 130-290 290s130 290 290 290 290-130 290-290-130-290-290-290zm-65 510c-15 3.2-33 0-50-9.6-18-8.8-38-8-54-11-21-4.8-24-16-16-40 2.3-8-2.1-21-1.8-30 .08-14 7.3-18 19-24 13-4.8 21-14 31-26-2.4-15 0-32 5.6-48 11-34 35-67 52-88 15-21 19-37 21-58 .8-29-21-120 72-120 71 .7 68 79 67 120 0 27 15 45 30 65 14 17 32 40 42 68 8 22 11 46 3.2 71 13 3.2 14 14 17 25 1.6 7.2 3.2 14 6.4 18 10 11 21 30 1.6 43-14 8-34 14-46 29-13 15-29 24-43 26-19 1.7-34-11-39-27-29-2.5-61-7.6-95-1.4-4.8 9.6-13 16-23 18zm87-390c-18 .96-25 22-24 35l12 4c.11-7.6 2-22 12-21 13 4.2 9.5 22 3.6 29l11 4.4c1.6-1.6 3.2-4 4-6.4 6.1-17 .51-44-19-45zm-66 52l6.4-4.8c-5.3-6.1-9.2-19-2-24 9.4-3.4 12 9.6 12 16l8.6-4.2c-1.1-12-3.1-30-16-30-21 2.9-19 38-8.6 47zm-8.2 13c-.74 13 34 34 44 35 16-.73 45-21 51-30 .68-2.3.76-4.2.4-5.9-1-4.8-5.7-7.7-10-11-16-3.2-28-17-44-16-9.3.74-40 18-42 28zm50-21c.89.044 1.9.27 2.7.72 4.9 2.6.37 4.9-2.9 3.1-4.4-2.4-2.5-4 .18-3.8zm-17 .018c2.2.034 3.3 1.2-.76 3.1-5.5 3.1-6.6-1.8-2.4-2.4 1-.5 2.2-.72 3.2-.71zm6.2 41c-11-.24-29-9.1-34-19-1.3-3.8 1.9-3.3 3.1-.85 5.5 9.6 24 17 31 17 12 .33 29-9.6 39-18 7-8.9 7.5-3 3.1 2.2-12 10-26 20-42 19zm56-3.6c-16 12-34 27-52 27-15 .18-30-12-38-20-1.6 34-25 77-35 100-8 18-12 37-13 55-29-20 6.2-73 11-93-23 45-32 60-25 85 3.2 10 10 20 22 27 17 10 28 21 34 30 7.2 8.8 8.8 17 7.2 22-2.4 5.6-8.8 8-15 8 4 5.6 8.8 11 13 18 34 24 75 14 100-5.6 3.2-10 5.6-20 6.4-30s.8-22 4-33c2.4-9.6 7.2-19 19-26 2.8-17 17-18 35-10l3 1.2c18 8 24 14 21 24h4c3.2-12-2.4-19-28-32 6.7-22-15-77-33-85 11 11 35 54 25 83-4-.8-7.2-1.6-9.6-1.6-4.8-26-16-48-22-58-10-19-27-59-34-86zm44 170l.051.46c.31-.15.62-.31.95-.46zm.051.46c-6.6 3.3-10 8.8-13 19-2.4 9.6-3.2 22-4 34 0 13-5.6 26-8.8 38s-4.8 26-.8 33c6.4 14 18 18 30 18 13-.8 27-8.8 39-23 14-17 36-23 48-30 14-8.8 8.8-22-2.4-34-5.6-5.6-5.5-14-8-21-7-20-13-22-28-22-7.2 8-24 18-35 14-9.9-2.4-16-14-17-26zm-250 33c-9.1 3.2-13 7.2-14 13-2.5 12 4 25 .64 37 0 0-.12.54-.078.8 1.6 9.7-7.2 24 12 27 18 4 38 2.4 55 12 17 8.8 34 12 46 8.8 12-3 15-8.6 22-21 1.6-23-28-41-37-62l-18-33c-6.9-8.8-14-14-22-14-4.4-.035-8.9 1.9-14 6.1-15 17-9.1 18-31 26z"/></svg>