<svg xmlns="http://www.w3.org/2000/svg" width="600" height="600" viewBox="0 0 158.75 158.75"><path d="M83.223 140.898c-7.786-.076-13.369 1.854-17.237 5.052-3.868 3.198-5.949 7.6-7.012 12.161-2.125 9.14-.4 19.368-.5 23.694-.513 6.875-1.842 11.606-6.532 18.315-9.4 13.425-21.093 27.71-18.816 44.515-2 2-3.439 4.549-5.42 6-1.426 1.033-3.117 1.6-4.825 2.356-1.709.774-3.5 1.885-4.503 4.036-1.567 3.348-1.524 6.113-1.242 8.333.3 2.22.682 3.829.207 5.448-1.177 4.014-1.708 7.117-.786 9.701.922 2.6 3.4 4.168 7.019 4.955 5.469 1 12.063.893 17.4 3.538 4.22 2 9.236 3.545 13.933 3.4 4.5-.159 8.7-2 11.2-6.13 15.117-3.507 16.418-2.125 28.766-.759.865 2.839 2.94 5 5.4 6.557 2.728 1.652 5.867 2.5 8.554 2.3 5.19-.4 10.62-3.637 14.96-8.79l-.023.027c3.845-4.326 10.141-6.4 14.786-9.116l.031-.019.03-.019c3.464-2.31 4.5-5.622 3.909-8.554-.545-2.835-2.3-5.337-4.026-7.251-1.27-2.256-1.97-5.339-2.941-8.154-.5-1.411-1.047-2.765-1.879-3.926-.609-.849-1.454-1.512-2.418-2.022 4.14-17.669-4.963-32.6-15.261-45.409-4.992-6.22-9.607-11.9-9.607-20.3.13-6.356.529-16.064-2.156-24.409-1.344-4-3.5-8.042-6.891-10.877-3.404-2.835-8.042-4.6-14.11-4.637zm-.025 2.602c5.59.055 9.548 1.602 12.47 4.036 2.923 2.434 4.838 5.819 6 9.674 2.5 7.711 2.162 17 2.031 23.6l-.003.013v.014c0 9.333 5 15.69 10.18 21.901 10.359 12.908 19.059 27 14.6 44.154l-.323 1.23 1.22.351c.886.256 1.513.762 2.101 1.6.6.82 1 1.956 1.534 3.259.898 2.607 1.6 5.849 3.144 8.608l.075.132.104.113c1.6 1.709 3.137 4.05 3.55 6 .411 2.137-.016 4.025-2.775 5.875-4.209 2.466-10.899 4.6-15.4 9.611l-.012.014-.011.013c-3.992 4.74-8.942 7.562-13.157 7.87-1.964.143-4.732-.541-7.014-1.924-2.3-1.4-4.048-3.4-4.5-5.771l-.178-.955-.965-.1c-13.441-1.4-14.602-3.01-30.892.809l-.6.135-.3.523c-1.972 3.721-5.331 5.175-9.413 5.32-4.082.145-8.778-1.174-12.684-3.11-6.138-3.042-13.095-2.69-18.007-3.751-3.224-.696-4.549-1.694-5.116-3.3-.567-1.59-.3-4.255.832-8.095.704-2.402.134-4.5-.123-6.507-.257-2.02-.323-4.043 1.016-6.903.671-1.432 1.708-2 3.219-2.768 1.511-.684 3.439-1.3 5.3-2.619 2.835-2.053 4.214-4.985 6.087-6.678l.523-.5-.109-.694c-2.461-15.683 8.753-29.551 18.343-43.27 4.907-7.019 6.469-12.5 6.999-19.655l.003-.03.003-.031c.14-5.054-1.529-14.785.427-23.198.978-4.206 2.814-7.996 6.136-10.743s8.204-4.528 15.553-4.457zm3.732 22.513c-3.825.091-7.836 3.66-7.964 9.035.003.6.046 1.174.133 1.752l3.733 1.246c-.082-.651-.076-1.339.017-2.023 1.671-7.6 7.073-4.808 6.4.886-.183 1.306-.674 2.518-1.4 3.4l3.367 1.926c1.642-1.796 2.6-4.414 2.6-7.171-.29-6.5-3.52-9.115-6.894-9.035zm-17.699 1.435c-2.918-.084-6.092 3.261-6.188 8.3.003 2.624.742 5.109 2.018 6.772.799-.685 1.708-1.4 2.675-2.053-.893-.621-1.567-1.899-1.77-3.354-.3-6.163 4.4-5.437 5.141-.713.096.694.079 1.4-.049 2.027l2.932-1.324c.045-.448.069-.902.07-1.356-.17-5.78-2.412-8.204-4.83-8.3zm7.696 10.19c-4.101.093-13.067 5.193-13.823 8.982-.752 3.767 9.038 10.566 12.621 10.822 4.417.315 18.3-5.602 17.951-11.137-.178-2.957-12.976-8.448-16.368-8.66l-.4-.007zm-3.051 2.19a.609 1.229 75.965 0 1 .75.363.609 1.229 75.965 0 1-1.044.889.609 1.229 75.965 0 1-1.34-.3.609 1.229 75.965 0 1 1.044-.888.609 1.229 75.965 0 1 .59-.071zm5.241.091a1.229.609 14.035 0 1 .59.07 1.229.609 14.035 0 1 1.044.889 1.229.609 14.035 0 1-1.34.3 1.229.609 14.035 0 1-1.044-.888 1.229.609 14.035 0 1 .75-.363zm10.6 5.363a.521.521 0 0 1 .38.871s-5.805 6.6-14.435 7.013c-2.917.141-5.623-1.437-7.608-3.004-1.985-1.567-3.3-3.173-3.3-3.173a.521.521 0 1 1 .811-.653s1.225 1.52 3.111 3.01c1.887 1.49 4.41 2.902 6.913 2.781 8.121-.4 13.705-6.663 13.705-6.663a.521.521 0 0 1 .4-.181zm3.721 4.606c-3.646 4.209-12.538 9.185-17.709 8.726-4.229-.4-7.837-3.753-10.683-6.658.4 18.6-15.6 33.326-14.804 50.149-1.652-1.532-3.067-3.862-3.4-9.224-.465-7.608 3.608-13.5 6.602-19.805.215-.454.039-.989-.428-.214-8.967 14.9-8.5 19.215-8.323 24.088.126 3.823 2.228 7.41 4.264 8.85 8.039 5.687 20.5 14.624 15.851 20.49-.886.955-2.261 1.364-3.974 1.3 1.326 1.459 2.427 2.858 3.306 4.205 4.228 3.59 9.156 5.768 14.409 5.724 6.507-.054 13.4-2 19.229-5.951.358-1.894.697-4.049.947-6.602.883-9.024 1.332-19.823 8.559-22.915.261-1.002.743-1.882 1.5-2.54.918-.811 2.215-1.157 3.683-1.158 5.242-.006 12.657 4.4 12.717 7.72.005.27.015.736-.057 1.023l1.15.3c.034-.264.121-.857.121-1.127-.003-3.838-3.443-7.363-8.945-9.166.195-1.366.3-2.758.3-4 0-8.636-3.902-16.25-9.995-22.13-1.221-1.179-1.778-.436-.799.517 5.6 5.443 8.902 12.754 8.265 20.6-.124 1.522-.345 3.004-.654 4.443-1.081-.209-2.193-.35-3.32-.422-3.054-16.405-13.704-30.838-17.8-46.023zm13.665 55.191c-5.57 4.362-4.35 13.901-5.783 20.132-.617 6.231-3.012 12.01-2.754 18.547.145 3.666 6.124 6.808 9.997 6.673 3.735-.13 8.44-2.877 12.257-7.411l.023-.027.023-.027c4.776-5.4 11.631-7.509 15.63-9.838 2.4-1.613 2.544-2.799 2.21-4.538-.337-1.751-1.987-3.763-3.402-5.799-2.146-3.086-2.561-6.6-3.422-9.07-.5-1.401-1.045-3.609-2.764-4.013l-4.813-1.131c-1.876 2.894-6.442 5.799-10.207 5.639-3.545-.15-6.557-4.87-6.996-9.138zm-67.058.41c-1.57.033-3.118 1.018-4.864 2.708-1.351 1.54-2.682 3.796-5.152 5.6-2.449 1.737-6.207 2.164-8.083 4.885-1.845 4.048.09 8.263-.824 13.224-1.165 4.055-2.879 8.4 3.311 9.739 4.632 1.006 11.772.618 18.309 3.857 3.75 1.858 8.3 3.108 12.069 2.963 5.613-.28 10.766-4.6 9.09-11.266-.627-2.502-2.65-5.5-6.082-9.019-3.502-3.6-6.189-9.65-9.3-14.717-1.552-2.534-3.165-4.78-4.674-6.192-1.35-1.243-2.6-1.794-3.805-1.768z" transform="translate(0 -138.25)"/></svg>