<?xml version="1.0" encoding="UTF-8"?>
<svg height="6e2" version="1.1" viewBox="0 0 600 600" xmlns="http://www.w3.org/2000/svg">
 <path d="m65 4.8e2c-12 29-14 49-5.2 60 33 27 1.6e2 -53 2.9e2 -1.8e2 1.3e2 -1.3e2 2.1e2 -2.5e2 1.8e2 -2.9e2 -10-9.1-31-7.4-60 4.9-49-38-1.1e2 -59-1.7e2 -59-1.6e2 1.3-2.9e2 1.3e2 -2.9e2 2.9e2 -1.6 64 20 1.2e2 58 1.7e2zm3e2 -1.1e2c-64 64-1.3e2 1.2e2 -1.8e2 1.5e2 -15 9.4-29 17-41 23 48 32 1e2 49 1.6e2 49 1.6e2 1.7e-4 2.9e2 -1.3e2 2.9e2 -2.9e2 0.14-57-17-1.1e2 -51-1.6e2 -7.9 14-15 28-26 46-35 54-88 1.2e2 -1.5e2 1.8e2z"/>
</svg>
