<svg xmlns="http://www.w3.org/2000/svg" height="600" width="600" viewBox="0 0 600 600"><path d="M158.194 10A32.122 32.122 0 0 0 126 42.192v515.61C126 575.64 140.358 590 158.194 590h283.61c17.837 0 32.197-14.36 32.197-32.197V42.193c0-17.836-14.36-32.194-32.197-32.194h-283.61zm211.78 23.534a4.878 4.878 0 0 1 4.877 4.878 4.878 4.878 0 0 1-4.877 4.878 4.878 4.878 0 0 1-4.878-4.878 4.878 4.878 0 0 1 4.878-4.878zm-115.653.836h91.359a4.72 4.72 0 0 1 4.73 4.73v.294a4.72 4.72 0 0 1-4.73 4.731H254.32a4.722 4.722 0 0 1-4.734-4.731V39.1a4.722 4.722 0 0 1 4.734-4.731zm-89.189 36.104h269.734v446.01H165.132V70.474z" /></svg>