<svg viewBox="0 0 600 600" xmlns="http://www.w3.org/2000/svg"><path d="M65.9 223c-30.8 0-55.9 24.9-55.9 55.4v89.6a9.93 9.83 0 1 0 19.9 0v-89.6c0-19.9 16-35.8 36.1-35.8 20 0 36.1 15.9 36.1 35.8v89.6a9.93 9.83 0 1 0 19.9 0v-89.6c0-30.5-25.2-55.4-55.9-55.4zm151 0c-38.8 0-69 35.6-69 77.5s30.1 77.5 69 77.5 69-35.6 69-77.5-30.1-77.5-69-77.5zm316 0c-18.1 0-34.4 6.9-45.1 18.5a10.2 10.1 0 1 0 15 13.6c6.36-6.88 17.4-11.9 30.1-11.9 21.4 0 36.7 13.5 36.7 27.6v13.7h-36.7c-14.9 0-28.7 4.22-39.3 12.1-10.5 7.88-17.8 20-17.8 33.7 0 27.5 26.7 47.8 57 47.8s57-20.3 57-47.8v-34.1a10.2 10.1 0 0 0 0-3.24v-22.1c0-27.5-26.7-47.8-57-47.8zm-93.2.012a10 9.93 0 0 0-9.02 6.73l-47.4 127c-.352.942-4.61 1.66-5.23 0l-47.4-127a10 9.93 0 0 0-9.15-6.62 10 9.93 0 0 0-9.68 13.5l47.4 127c7.11 19.1 35.9 18.8 42.9 0l47.4-127a10 9.93 0 0 0-9.81-13.6zm-223 20.1c26.1 0 48.7 24.8 48.7 57.4s-22.5 57.4-48.7 57.4c-26.1 0-48.7-24.8-48.7-57.4s22.5-57.4 48.7-57.4zm316 61.5h36.7v25.7c0 14.1-15.3 27.6-36.7 27.6-21.4 0-36.7-13.5-36.7-27.6 0-7.06 3.27-12.8 9.68-17.6 6.41-4.79 16-8.03 27-8.03z"/></svg>