<svg viewBox="0 0 600 600" xmlns="http://www.w3.org/2000/svg"><path d="M300 10c-77 0-151 30.5-205 85-54.4 54.5-85 128-85 205s30.5 151 85 205c54.5 54.4 128 85 205 85s151-30.5 205-85c54.4-54.4 85-128 85-205s-30.5-151-85-205c-54.4-54.4-128-85-205-85zm0 35.7c12.7.106 25.3 1.16 37.8 3.16-11.7 1.93-22.8 4.83-33.3 8.57-105 55.9-160 131-162 242-1.5 104 76.3 210 162 242 10.4 3.93 21.6 6.8 33.3 8.68-12.5 1.96-25.2 2.98-37.8 3.05-67.2 0-132-26.8-180-74.4-47.6-47.6-74.4-112-74.4-180 0-67.6 26.8-132 74.4-180 47.6-47.6 112-74.4 180-74.4zm68.7 35.7c34.3-.132 68.7 9.06 95.5 25.2 57.4 49.1 89.5 119 89.5 193-.03 74-32.6 145-90.2 193-49.1 30-109 36.1-148 16.7-94-47.6-138-115-140-210-1.3-89.1 68.7-183 140-210 16.8-5.55 34.7-8.16 52.9-8.23zm25.4 90.6c51 83.5 42.3 185 .03 255-5.14 8.08-2.65 18.8 5.48 23.8 8.13 5.02 18.8 2.39 23.7-5.82 49.1-80.1 58.2-195 .03-290-2.97-5.02-8.31-8.19-14.8-8.38-13.7.434-21.6 15-14.5 26.2z"/></svg>