<svg viewBox="0 0 600 600" xmlns="http://www.w3.org/2000/svg"><path d="M300 10c-160 0-290 130-290 290s130 290 290 290 290-130 290-290-130-290-290-290zm116 54.1c90 44.2 147 136 147 236 .082 41.6-9.98 82.4-28.9 119 4.57-23.7 6.88-47.6 6.96-71.8-.178-108-45.7-211-126-284zm-236 1.19l.037.039-.18.104c-29.5 27.5-13.9 57.1 13 77.4 98.3 74.1 275 150 253 312-7.03 50.3-34.5 80.9-69.9 97.5-24.6 7.5-50.2 11.4-76 11.4-16.4.006-32.7-1.64-48.8-4.73 18.6-5.63 39.3-15.3 62.4-30.1 54.8-66.2 8.3-123-37.7-172-63.5-68.4-159-75.6-193-145-8.96-18.5-10.7-41.3-.037-60.1 21.7-38.3 58.5-65.8 97.7-85.7l.143-.143z"/></svg>