<svg viewBox="0 0 600 600" xmlns="http://www.w3.org/2000/svg"><path d="M300 10c-160 0-290 130-290 290s130 290 290 290 290-130 290-290-130-290-290-290zm-103 176c64.3.18 97.3 61.3 97.4 113 .13 61.9-40 113-97.4 113-64.7-.046-97.9-61.3-97.4-113 .544-61.1 40-113 97.4-113zm296 63.6h-29.9c-.015-28.3-24.2-37.7-46.8-37.7-24.8-.004-46.7 6.37-46.8 31.2-.014 19.4 14.9 24.2 28.6 29.9 20 8.34 42.3 18.9 67.5 29.9 19.6 8.53 33.7 27.6 33.8 46.8.264 51-43.3 63.6-81.8 63.6-49 0-83.1-28.8-83.1-72.7h29.9c-.002 37.6 24.3 48 54.5 48.1 21.7.052 50.6-9.93 50.6-33.8.008-17.9-15.7-26.6-28.6-32.5l-71.4-32.5c-18.9-8.6-29.9-19.6-29.9-42.9-.014-45.1 36.8-61 74.1-61 42.6.003 79.2 21.2 79.3 63.6zm-296-38.9c-50.7-.155-66.4 49.5-66.2 88.3.153 43.4 22.4 88.5 66.2 88.3 50.7-.236 66.4-49.5 66.2-88.3-.153-43.4-22.4-88.2-66.2-88.3z"/></svg>