<svg viewBox="0 0 600 600" xmlns="http://www.w3.org/2000/svg"><path d="M300 10c-160 0-290 130-290 290s130 290 290 290 290-130 290-290-130-290-290-290zm-11.4 219c22.9-15.3 23.9-44.6 1.3-60.4 23.5-19.6-29.2-6.58-7.78-24.6l16.6 2.36c7.53 7.21 27.5 36.8 27.4 13.3-20.5-10.6-9.15-28.5 4.38-34.5 15-29.6-22.9-40.4-34.3-57.4 27.7-18.8 71.3-22.2 64.2-5.66-4.07 16.7 39 49.7 25.8 12.4l-1.75-17.8c25.3-15.3 51.5 12.6 74.2 25.1 90.5 63.8 133 186 101 292-29.7 110-136 192-249 196-95.2 3.44-190-45.1-240-127-30.7-50.3-46.3-110-39.4-169 20.4 11.2 31.2-30.8 6.22-30.3-1.54-15 27-9.38 41.2-8.79 48.6 2.02 59.2 92.5 70.2 49.4 4.79-18.9 27.7-56.6 46.3-44.2 11.3 19 40.3 23.4 30.4 51.6 4.99 9.07 32.2 47.4 23.2 16.8-12.9-6.72-25.9-45.7-1.85-27.5 12.1-.165 3.05 15.9 17.8 2.77 23.2-14.4-30.4-51.5-.354-48.6zm36.4-146c5.34 11.2 33.4 49.3 20.8 18.8-5.38-7.58-12.5-14.5-20.8-18.8zm28 37.2c-12.9 29.2 41.2 6.88 0 0zm5 16c14.8 22.9-26.7 23.2-23 43 11.2 11.6 16.5-17.9 32.9-13.1 7.1-8.68-1.34-25-9.88-29.9zm-40 108c-24.3 14.8 29.4 34.9 6.56 15-4.92-3.47-.295-13.3-6.56-15zm24 38c-16.1 4.67-17 16.9 1.33 17.2 5.09-4.13 2.38-13.1-1.33-17.2zm-32 14c-22.2 5.98-57.2 42.6-16 48.4 21.1-.56 20.9-38.2 16-48.4zm60 31c-4.15 17.5 24.3 26.7 33.1 39.5 15.4-7.21 23.1-2.69 36.9 7.5 4.39-14.8-27-45-51.3-39.1-11.4 11-9.1-6.4-18.7-7.92zm71.3 28.7c2.43 1.44 12.6.942 11.7-8.71-.498-5.3-17.9 5.04-11.7 8.71zm-176 2.29c-22.2 8.14 60.8 14 21.1 2-6.97-1.22-14-1.95-21.1-2zm146 18c-8.31 9.16-10.7 41.9-28.2 20 1.11-32.9-41.3-8.08-53.4 5.84-54.5 14-57.4 92.2-30.4 80.6 48.5-39.1 72.7 27.8 90.3 22.7 21-12.6 50.5-35.3 47.3-63.3-4.21-23.5-17.8-43.7-25.6-65.8zm-34 146c3.66 1.88 12.8-.307 9.04-9.13-2.91-6.84-16.6 5.22-9.04 9.13z"/></svg>