<svg viewBox="0 0 600 600" xmlns="http://www.w3.org/2000/svg"><path d="M52.3 10c-23.4 0-42.3 18.9-42.3 42.3v495c0 23.4 18.9 42.3 42.3 42.3h495c23.4 0 42.3-18.9 42.3-42.3v-495c0-23.4-18.9-42.3-42.3-42.3zm125 130h113v240h-40.1v-200h-72.2v200h-40.1v-200c0-25.7 11.7-40.5 40.1-40.5zm161 0h40.1v31.8h79.4v40.1h-79.4v77.5h83.9v130c0 24.2-15.9 40.1-40.1 40.1h-116v-171h32.1zm-145 55.6h40.1v171c0 34.4 17 55.2 55.6 56.7v37.1c-31.8 0-57.8-10.6-75.6-37.1-17.8 26.8-45.4 37.1-77.1 37.1v-37.1c39.7-.756 57.1-21.6 57.1-56.7zm153 134v89.6h75.6v-89.6z"/></svg>