<svg xmlns="http://www.w3.org/2000/svg" height="600" width="600" viewBox="0 0 600 600"><path d="M293.979 52.675L28.592 265.86a9.616 9.616 0 0 0-1.526 13.45L57.3 317.641c3.31 4.195 9.404 4.887 13.57 1.541l25.744-20.679v261.522c.029 5.354 4.57 9.906 9.977 9.975h386.814c5.539-.265 9.918-4.476 9.98-9.975V298.5l25.745 20.68c4.166 3.347 10.26 2.655 13.57-1.54l30.234-38.33a9.616 9.616 0 0 0-1.526-13.45L306.023 52.674c-3.738-2.872-8.64-2.762-12.044 0zm-41.102 313.72c-5.295 0-9.88 4.594-9.88 9.882v131.961H164.65v-264.39L300 135.125l135.347 108.721v264.392h-78.341V376.276c0-5.3-4.29-9.601-9.59-9.616z" fill-opacity=".345"/></svg>