<?xml version="1.0" encoding="utf-8"?>
<svg xmlns="http://www.w3.org/2000/svg" xmlns:xlink="http://www.w3.org/1999/xlink" version="1.1" width="240" height="3750"><defs>
<symbol id="tieba"><path d="M83.8 2437.962c-3.2 0-5.7 2.5-5.7 5.6v72.5c0 3.1 2.5 5.7 5.7 5.7h49.1c3.2 0 5.7-2.5 5.7-5.7v-11.2c.3-3.6 3.4-6.5 7.2-6.5h10.5c3.1 0 5.7-2.5 5.7-5.7v-49c0-3.1-2.5-5.7-5.7-5.7zm36.2 5.7c1.6 0 2.8 1.2 2.8 2.8 0 1.6-1.2 2.8-2.8 2.8s-2.8-1.2-2.8-2.8 1.3-2.8 2.8-2.8zm12.4 14.9v2.3h11.4v6h-11.4v9.6h11.9v19.3c0 2.1-1.7 3.8-3.8 3.8h-17.4v-23.1h3.2v-17.8zm-36.6.1h24.3v29.8h-6v-23.3h-12.3v23.3h-6zm9.1 8.7h6.2v20.5l4.8 5.7h4.3v6h-6.7l-5.5-6.5-5.5 6.5h-6.7v-6h4.3l4.8-5.7zm24.3 14.8v11.9h9v-11.9zm18 19.1c-3.2 0-5.7 2.6-5.7 5.7v12.8l18.5-18.5z" fill="#fff" /></symbol>
<symbol id="outlook"><path d="M124.95 3190.9l-46.9 8.3v61.5l46.9 8.1zm4.3 15.7v17.6l6.9 5.4 25.7-20.5c0-1.4-1.2-2.5-2.7-2.5zm32.7 7.1l-24.4 19.3c-.4.3-.8.5-1.4.5-.5 0-.9-.2-1.3-.5l-5.6-4.3v24.4h29.9c1.5 0 2.8-1.2 2.8-2.8zm-61.8 2.4c5.9 0 10.6 6.2 10.5 13.9 0 7.6-4.6 13.8-10.5 13.8-5.7 0-10.4-6.2-10.4-13.8 0-7.7 4.6-13.9 10.4-13.9zm-.3 5.2c-3 0-5.4 3.9-5.4 8.7s2.5 8.6 5.4 8.6c3 0 5.4-3.8 5.4-8.6 0-4.9-2.4-8.7-5.4-8.7z" fill="#fff" /></symbol>
<symbol id="v2ex"><path d="M51.8 661.93l12.7 35.9h9.8l12.7-35.9h-8.4l-9 29.1-9.1-29.1zm52.9 0c-5.7 0-9.4 1.9-13.2 5.4l4.5 3.8c2.1-1.9 4.6-3.6 7.6-3.6 3.9 0 6.2 2.1 6.2 5.7 0 5.4-6.7 12-17.9 20.6v4h27.8v-5.9h-9c-1.9 0-4.6.2-6.7.4 7.5-6.3 13.7-13.1 13.7-19.5 0-6.6-5.2-10.9-13-10.9zm19.5 0v35.9h26v-6h-17.7v-9.6h14.5v-6h-14.5v-8.3h17.1v-6zm31.3 0l10.8 17.4-11.6 18.5h8.8l8-13.9 7.5 13.9h9.2l-11.6-18.2 10.9-17.7h-8.7l-7.2 13-6.9-13z" fill="#fff" /></symbol>
<symbol id="qcloud"><path d="M120.0 345.71c-14.6.1-26.8 10.8-29 24.8-11 1.9-18.4 11.6-18.2 21.7.5 15.2 12.6 22.5 25 21.8h44.3c14 .7 24.5-7.3 25.1-21.7 0-12.6-9.8-22-21.8-22.1-8.7-.1-14.4 5-19.7 10.4l-25.6 24.8c-5 .2-10.8.0-14.7-3.8-5.2-5.2-5.4-13.6-.2-18.9 6.1-5.9 13.7-4.7 18.5-.4 1.7 1.4 5.4 4.7 7.1 6.2l6.1-6c-2.8-2.6-6.8-6.1-9.2-7.9-2.5-1.9-5.2-3.2-8.1-3.9 2-9.5 10.3-16.5 20.3-16.5 8.3 0 15.6 5 18.9 12.1 2.4-1.1 5.9-1.3 8.8-1.1-4-11.4-14.9-19.5-27.6-19.5zm25.2 33c7.8.1 13.3 6.4 13.3 13.4-.2 8.4-6.8 13.2-13.6 13.1-11.7.2-23.2.1-32.6.1 9.7-9.3 18-17.5 19-18.4 3.8-3.7 7.7-8.3 13.9-8.2z" fill="#fff" /></symbol>
<symbol id="qieniang"><path d="M111.1 927.9c-5.7 0-11.2.8-15.5 2.1-23.7 7.4-44.4 33.9-21.7 53.1-4.5 18.9-10 20.8-16.8 21.7.7 8.1 8.8 11 13.5 11.3 8.4 12.9 16.4 13.3 29.2 13.1-3.3-1.5-4.9-2.3-7.8-4.3-.8-.5-.6-1.6.2-1.9 1.2-.4 2.7-.3 3.9-1.1-2.6-1.5-4.8-3.4-6.2-5.9-6-11.2 4.5-22.2 12-29.9.5-.4 1.2-.2 1.6.3 2.9 4.8 9.4 14.1 19.9 17.4 1.2-3.7 1.9-8.6 2.2-12.7 0-.9 1-1.3 1.8-.7 6.4 5.9 11.8 12.9 22.1 13.6.5 0 .9.4 1 .9.8 5.6-1.1 13-7.5 16.1.8 1 2 1.6 3.3 2.1.9.2 1.1 1.3.5 1.9-2.8 1.9-6 3.5-8.2 4.5 18.9.7 23.4-3.7 30.9-13.4 4.2-.5 11.5-1.6 13.4-11-24.4-4.9-4.2-24.3-36.9-42.8 8.7-23.4-14.6-34.2-34.9-34.4zm-.4 2c19 .1 41.4 10 33.4 31.4-25.5-11.6-57.4-3.1-69.7 20.1-19.9-18.4 1.1-42.9 21.8-49.2 4.1-1.5 9.2-2.3 14.5-2.3zm8 3.7c-5.4 0-9.5 3.8-8.1 7.4 1.4 3 5.6 3.3 8.9 3.3 4 0 8.8-.1 9.1-5.1-.4-4.3-4.4-5.6-9.9-5.6zm-34.9 10.7c-3.1.1-7 2.8-8.8 4.6-2.1 2.8-3.9 7.5 0 10.1 2.9 1.4 6.3-.7 9.3-3.9 2.4-2.3 4-6.3 3-8.8-.8-1.4-2.1-2-3.5-2zm-4.9 23.7c0 1 .5 2.5.8 2.5 11-9.7 26.6-20.4 53.9-14.7.5-.5-.8-2.7-2.3-4-5.3-4.1-11.6-6-18.4-6-15.45 0-30.9 9.6-34 22.2zm65.9 1.9l2.2 3.6-2.3 1.4-2.2-3.6zm-4 1.2l2.8 4.7-2.4 1.4-2.8-4.7zm-38.6 17.6c-7.1 6.1-14.6 16.8-10.6 26.3 1.3 2.5 3.7 4.4 6.7 5.8.6.3.8 1.2.3 1.7-1.1 1.2-2.4 1.8-3.5 2.1 15.9 10.8 37.5 8.4 48.7-.3-1.5-.8-2.8-1.9-3.5-3.6v-.3c0-.4.3-.8.7-1 6-2.5 7.8-6.8 7.4-13.4-9.7-1-15.5-7.2-21-12.5-.4 4.1-1 8.6-2.4 12.1-.1.4-.6.8-1.15.7-11.4-2.87-18.25-12.3-21.65-17.6zm1.5 14.7c1.8 0 3.4 1.6 3.4 3.4v7.9c0 1.9-1.5 3.4-3.4 3.4s-3.4-1.5-3.4-3.4v-7.9c0-1.9 1.5-3.4 3.4-3.4zm32.4 0c1.9 0 3.5 1.6 3.4 3.4v7.9c0 1.9-1.5 3.4-3.4 3.4s-3.4-1.5-3.4-3.4v-7.9c0-1.9 1.5-3.4 3.4-3.4z" fill="#fff" /></symbol>
<symbol id="meiriyw"><path d="M120 1848.6l-5.2 1.5c2 3.3 4.2 7.9 5 10.7l5.5-1.8c-.9-2.8-3.3-7.2-5.3-10.4zm-30.4 12.3v5h10.3c4 10.3 9.4 19.2 16.4 26.4-7.4 6.3-16.5 10.9-27.8 14.1 1 1.2 2.5 3.5 3.1 4.7 11.4-3.6 20.8-8.5 28.4-15.2 7.6 6.8 16.9 11.8 28 14.9.8-1.4 2.3-3.5 3.5-4.7-10.8-2.6-20-7.5-27.5-13.8 6.9-7 12.1-15.6 16-26.4h10.7v-5zm15.8 5h28.9c-3.4 9.2-7.9 16.7-14 22.8-6.4-6.4-11.4-14.1-14.9-22.8z" fill="#fff" /></symbol>
<symbol id="weib"><path d="M137.079 2292.066c-2 .4-3.2 2.4-2.8 4.3.4 2 2.3 3.2 4.3 2.8 6-1.2 12.5.6 16.9 5.5 4.4 4.9 5.6 11.6 3.7 17.4-.6 1.9.4 3.9 2.3 4.5 1.9.6 3.9-.4 4.5-2.3 2.7-8.2 1.0-17.5-5.2-24.4-4.9-5.3-11.5-8-18.4-8.3-1.6 0-4 .2-5.4.5zm-25 10.4c-6.7.1-16.5 5.3-25.2 14.1-8.9 8.9-14.1 18.3-14.1 26.5 0 15.6 20 25.1 39.6 25.1 25.7 0 42.8-15.0 42.8-26.8 0-7.2-6-11.2-11.4-12.9-1.4-.4-2.3-.7-1.6-2.4 1.5-3.8 1.6-7 0-9.4-3.1-4.4-11.5-4.1-21.1-.1 0 0-3 1.3-2.2-1.1 1.5-4.7 1.3-8.7-1-11-1.4-1.4-3.4-2-5.8-2zm27.6 2.3c-1.7.4-2.8 2-2.4 3.7.4 1.7 2 2.8 3.7 2.4 2-.5 4.2.2 5.7 1.8 1.4 1.6 1.8 3.8 1.2 5.8-.5 1.6.4 3.4 2 3.9s3.4-.4 3.9-2c1.3-4 .5-8.6-2.5-11.9-2.4-2.6-5.6-4-8.95-4-.85 0-1.9.1-2.6.3zm-26.6 20.4c13.7 0 24.9 6.7 25.7 16 1.1 10.3-10.8 19.9-26.4 21.4-15.6 1.5-29.1-5.5-30.1-15.8s10.9-19.8 26.5-21.4c1.2-.1 3-.2 4.3-.2zm-3.3 7.6c-6.2.1-12.2 3.5-14.9 8.8-3.3 6.7-.1 14.1 7.4 16.5 7.8 2.6 17-1.3 20.2-8.5 3.1-7.1-.8-14.3-8.5-16.3-1.4-.4-2.8-.5-4.2-.5zm3.6 11.1c-.6.9-1.8 1.4-2.7 1-.9-.3-1.2-1.4-.7-2.3.4-.7 1.2-1.2 2.25-1.05 1.4.2 1.65 1.4 1.15 2.4zm-8.7-.2c.7 0 1.3.2 2 .4 2.4 1.1 3.2 3.9 1.7 6.3-1.5 2.5-4.8 3.5-7.2 2.4-2.4-1.1-3.1-3.9-1.6-6.3 1.1-1.8 3.1-2.8 5.1-2.8z" fill="#fff" /></symbol>
<symbol id="copyright"><path d="M119.95 2889.957c-11 0-20.6 4.0-28 11.6-7.6 7.8-11.8 17.8-11.8 28.3 0 10.6 4.0 20.5 11.7 28.1 7.6 7.7 17.6 11.8 28.1 11.8s20.6-4.1 28.5-11.9c7.5-7.4 11.4-17.1 11.4-28 0-10.8-4-20.7-11.5-28.2-7.6-7.7-17.5-11.7-28.4-11.7zm.1 7.2c8.9 0 16.9 3.4 23.2 9.7 6.1 6.1 9.4 14.2 9.4 23 0 8.9-3.2 16.8-9.3 22.8-6.5 6.3-14.8 9.7-23.3 9.7-8.7 0-16.8-3.4-23-9.6-6.2-6.2-9.7-14.4-9.7-22.9 0-8.7 3.5-16.9 9.7-23.2 6.2-6.2 14-9.5 23-9.5zm3 11.4c-10.3 0-19 7.9-18.9 21.4 0 13.6 8.4 21 18.7 21 5.3 0 9.6-2.1 13-6l-4.3-5.1c-2.2 2.3-4.9 4-8.4 4-6.5 0-10.7-5.3-10.7-14.2 0-8.8 4.6-14.1 10.8-14.1 3.1 0 5.5 1.4 7.5 3.4l4.3-5.2c-2.7-2.7-6.8-5.2-12-5.2z" fill="#fff" /></symbol>
<symbol id="bilibili"><path d="M140.55 785.13c-.8.1-1.7.5-2.3 1.3l-12.1 12h-11.7l-12.1-12c-3.5-3.3-7.6 1.1-4.4 4.4l7.7 7.6h-17.2c-8.6 0-15.6 6.9-15.6 15.6v39.9c0 11.1 9.5 15.6 18.6 15.6 0 2.8 2.3 5.1 5.2 5.1s5.2-2.3 5.2-5.1h36.7c0 2.8 2.3 5.1 5.2 5.1 2.9 0 5.2-2.3 5.2-5.1 9.9.1 18.2-4.8 18.2-15.6v-39.9c0-8.6-6.9-15.6-15.6-15.6h-16.8l7.7-7.7c2.4-2.9.5-5.7-1.9-5.6zm-51 22.5h60.9c3.4 0 6.1 2.7 6.1 6.1v40.5c0 3.4-2.7 6.1-6.1 6.1h-60.9c-3.4 0-6.1-2.7-6.1-6.1v-40.5c0-3.4 2.7-6.1 6.1-6.1zm19.8 13.5l-19.6 3.9 1.4 7.4 19.6-3.9zm21.5 0l-1.4 7.4 19.6 3.8 1.4-7.4zm-10.8 19.6c-1.2 1.7-3 5.5-5.2 5.5-1.9 0-3.5-2.1-4.3-3l-3.1 2c1.5 2.3 3.5 3.8 5.2 4.4 2.8 1 5.5.0 7.4-2.2 1.8 2.2 4.9 3 7.4 2.2 1.8-.7 3.8-2 5.2-4.4l-3.1-2c-.7.9-2.4 3-4.3 3-2.2-.1-4.0-3.8-5.2-5.5z" fill="#fff" /></symbol>
<symbol id="zhihu"><path d="M70.5 1551.49c-5.2.1-6.1 3-6.9 4.9l-5.2 14c4.8.9 6.3-3.2 7.5-6.6h6.2v14.2h-10.5c-2.1 0-4 4.7-2.6 4.7h12.4c.1 9.6-7.5 20.8-14.3 24.8 4.3 1.3 8.8-.7 11.4-3.5 2.9-3.7 4.7-7.8 5.9-12.1l8.7 10.5c2.9 4.8 2.9-3.8 1.4-5.7l-6.9-8.4-2.8 2.4c.7-2.6 1.2-5.3 1.5-8h11.6c.9 0-.0-4.6-1.3-4.7h-9.7v-14.2h9.6c.9 0 .0-4.6-1.3-4.7h-17.5zm59.9 5.8c-4.8.5-.9 4.3 3.8 4.2l18.2-.6v19.5h-25c-3.2 0 .1 4.7 4.4 4.7h20.6v15.2c-.1 2.1-2 2.8-4.1 2.8l-8.8-.3c2.9 5.8 8.9 5.7 11.1 5.3 4.2-.9 6.5-4.1 6.5-7.8v-15.2h23.2c2.2 0 3.6-4.6 1.9-4.7h-25.1v-19.7l19.4-.7c3-.1 4.3-2 3.6-5.6-.2-1.2-.8-1.8-2.1-1.6-18.3 3-31.85 3.1-47.55 4.5zm-40 1l-.1 42.4h5.2l1.8 4.8 7.7-4.8h9.7v-42.4zm4.7 4.7h14.7v33h-5l-5.5 3.4-1.2-3.4h-3zm74.3 4.8l-5.4 7.3 3.8 2.8 8.6-11.5c-1.1-.7-2.1-1.2-3.3-1.2-1.4.0-2.4.9-3.7 2.6zm-33.9-2.1c-1 .1-1.9.3-2.9.8l8.6 11.5 3.8-2.8-5.4-7.3c-1.1-1.5-2.4-2-3.7-2.2z" fill="#fff" /></symbol>
<symbol id="acfun"><path d="M119.9 1086.5c-8.4 0-16.6 2.6-23.7 7.7-14.4-8-30.4-2.1-36.1 8.9-6.6 13.9-1.5 24 7.5 31.7l-10.5 13.7 8.6 3.4-2.3 6.2 16 2.5.4-2.2c3.6 4.7 7.1 11.0 16.3 14.8l-.7-7.3c17 8.4 38.1 6.6 49.8.4l-.5 6.4c7.9-3.2 12.8-10 15.7-15.9l.9 3.7 15.8-3.9-2.9-6.2c3-1.5 5.5-2.6 8.7-4.1l-11.1-11.2c8.2-6.8 13.9-17.9 8.7-30.1-9.2-18.3-27.4-16.2-37-11.2-7.7-5-15.7-7.3-23.6-7.3zm-37.6 5.7c4 .1 8 1.1 12 2.9-17.3 14.4-19.2 27.6-20.4 40.5-10.7-3.4-17.1-17.5-14.1-25.2 3.8 3.5 7.5 3.9 11.2 4.9-.4 3.3-2.3 6.7-3.6 10 1.5 1.1 3.2 1.4 5 1.7 2.4-2.3 5.9-14.8 5.8-26.2.1-3.9-2.8-6.6-5.8-6.3 3.3-1.6 6.6-2.3 9.9-2.3zm74.9.1c2.7 0 5.4.4 7.7 1.3-15 15.8 1.9 31.4 14 28.3-3.2 5-5.7 11.2-14.3 13.8-.7-17.1-6.5-30.1-19.5-40.8 3.7-1.6 7.9-2.6 12.1-2.6zm13 3.9c7.5 5.7 10.7 12.6 9.8 20.6-16 1.5-19.9-12.9-9.8-20.6zm-98.3 14.3c-2.3.3-9-1.8-9.4-3.9 0-2 5.6-7.7 7.8-7.7 3.7 0 3.4 10.4 1.6 11.6zm34.9 8.2c2.2 6.2 11 18.5 23.6 19.5-.9-4.1-2.3-8.4-2.5-12.9 5.6 4.1 12.8 8.3 20.4 10.6-.4 9.2-1 18.1-2.8 26.6-11.5 9.7-39.8 8.4-50.7 0-1.1-8.7-1.9-17.4-2.6-26.1 7.2-7.8 8.7-8.6 14.6-17.7zm-37.1 17.3c.1 0 .7.7 1.4.8l-5 12.6-5.7-2.2zm99.6.1l9.1 9.5-5.3 2.5-5.8-11.1c.7-.2 1.7-.7 2-.9zm-95.5 1.5c.7 7.4 2.1 11.7 3.9 16.8l-.6 3.5-10.9-1.8zm90.9.1l8.9 17.5-10.7 2.5-.8-4.3c1.6-4.3 2.5-10.6 2.6-15.7zm-63.2 2.1c-1.9 0-3.4 2.5-3.4 5.7 0 3.2 1.5 5.7 3.4 5.7s3.4-2.5 3.4-5.7c0-3.2-1.5-5.7-3.4-5.7zm37.4 0c-1.8 0-3.4 2.5-3.4 5.7 0 3.2 1.5 5.7 3.4 5.7 1.9 0 3.4-2.5 3.4-5.7 0-3.2-1.5-5.7-3.4-5.7z" fill="#fff" /></symbol>
<symbol id="pixivi"><path d="M125.29 1241.974c-13.2.1-32.3 5.7-47.2 21.6l5.2 8.4c2.3.5 2.3-2.3 1.5-5.2 2.2-3.4 5.4-6.6 9.1-9.4v56.5c-2.1.6-3.8 1.8-3.8 2.7 0 .3.3.9.7 1.2h15.4c.4-.3.7-.8.7-1.2 0-1-1.7-2.2-3.8-2.7v-13.4c62.1 22 80-48.1 29.5-57.9-2.1-.4-4.6-.6-7.3-.6zm-22.2 53.6v-43.6c7-3.2 14.7-5.1 22.9-5.05 39.4 5.05 30.4 69.1-22.9 48.6z" fill="#fff" /></symbol>
<symbol id="qqmail"><path d="M178.7 3355.7v46.3h5.3v-46.3zm-13.3 1.3c-2.1 0-3.7 1.3-3.7 3.4 0 1.9 1.6 3.4 3.7 3.4 2.1 0 3.7-1.4 3.7-3.4 0-2.1-1.6-3.4-3.7-3.4zm-43.3 3.9c-8.9 5.1-13 15.2-11.1 24.7 1.1 6.1 8.3 6.4 8.9 1.1.2-4.5-1.1-7.1-.1-12.4 2-10.6 11.4-16.3 18.6-15.9-1.2-.3-3.3-.5-4.6-.5-4 0-8 1-11.7 3zm16.6-2.3c-4.4 0-6.8 4.9-3.1 7.5 3.8 2.6 6.7 2.7 10.8 6.2 8.2 7 8.5 18 4.5 24.1 3.7-4.1 5.9-9.5 5.9-15.4 0-10.3-6.6-18.9-15.8-22-.8-.3-1.6-.4-2.3-.4zm-82.7.7v42.8h7.8v-35l18.8 24.2 18.5-24.1v34.8h7.8v-9c-1.7-3.1-3.1-8.5-3.1-12s1.4-8.9 3.1-12v-9.7h-10.6l-15.7 19.9-15.6-19.9zm106.7 11.1v31.6h5.3v-31.6zm-29 1.5c-3.8 0-7.6 2.9-7.3 8.3-1 2.2-2 4-1.9 5.9.9.1 2 0 2.3-1.2l1.2 2.2c-.8.1-2.2 1.0-1.2 2.1 2.6 1.4 5.2.7 7 .1 1.8.6 4.3 1.3 7-.1 1-1.1-.4-1.9-1.2-2.1l1.2-2.2c.3.2 1.3 1.1 2.2 1 .1-2.1-1.3-4.3-1.9-5.7 0-5.6-3.7-8.3-7.4-8.3zm-22 16.4c1.7 5.2 5.3 9.8 10.4 12.7 8.8 5.1 19.6 3.7 26.9-2.7 4.8-4 1.4-10.4-3.5-8.2-4.1 2.1-5.6 4.5-10.7 6.3-10.2 3.7-19.8-1.6-23.1-8.1z" fill="#fff" /></symbol>
<symbol id="aliyun"><path d="M87.9 500.7c-8.4 0-15.1 6.7-15.1 15v28.2c0 8.4 6.7 15.1 15.1 15.1h25.6l-2.6-9-19-4.4c-4.1-1.3-5.1-1.3-5.1-6.4v-18.7c0-5.1 1-5 5.1-6.4l19-4.4 2.6-9zm38.6 0l2.6 9.1 19 4.4c4.1 1.3 5.1 1.3 5.1 6.4v18.7c0 5.1-1 5.1-5.1 6.4l-19 4.4-2.6 9h25.6c8.4 0 15.1-6.7 15.1-15.1v-28.2c0-8.4-6.7-15.1-15.1-15.1zm-15.5 27.9v2.5h18v-2.5z" fill="#fff" /></symbol>
<symbol id="jians"><path d="M71.8 1700.12c-1.9 5.7-5.4 11.3-9.5 15 1.2.6 3 1.9 3.8 2.7 2-2.2 4.2-5 6-8.1h3.8c1.3 2.5 2.7 5.5 3.2 7.5l4-1.6c-.5-1.7-1.5-3.8-2.6-5.9h8.4v-4.1h-14.6c.6-1.4 1.3-3 1.8-4.4zm23.5 0c-1.5 5.3-4.3 10.4-7.7 13.7 1.1.7 3 2 3.7 2.7 1.8-1.8 3.3-4.2 4.8-6.9h4.6c1.7 2.5 3.3 5.5 4 7.5l4-1.9c-.6-1.6-1.7-3.6-3-5.6h9.8v-4.1h-17.4c.6-1.4 1.1-3 1.5-4.4zm50.3.3l-.1 11.2h-17.7v4.7h17.7v12.7h-21.7v4.6h21.7v26h4.5v-26h22.5c-.7 9.4-1.5 13.5-2.7 14.6-.7.6-1.4.7-2.6.7-1.4 0-5.3 0-9.1-.4.8 1.3 1.4 3.2 1.5 4.6 3.8.2 7.5.2 9.3.1 2-.2 3.4-.6 4.7-2 1.8-1.9 2.7-7.1 3.6-20 .1-.7.2-2.3.2-2.3h-8.8v-17.4h-18.5v-11.1zm20.7 1.9l-2.7 3.1c3.9 2.7 8.9 6.7 11.3 9.2l2.8-3.6c-2.5-2.4-7.6-6.2-11.4-8.7zm-93.9 13.9l-3.4 2.4c2.4 2.5 5 6 6.1 8.2l3.6-2.5c-1.2-2.3-4.0-5.7-6.3-8.1zm77.7.1h14.1v12.7h-14.1zm-69.6 1.8v4.3h28.4v31.4c0 1.1-.3 1.4-1.5 1.4-1.1.1-5.2.1-9.4 0 .6 1.2 1.3 3 1.5 4.2 5.6 0 9.1.0 11.1-.7 2.1-.7 2.8-2 2.8-4.9v-35.7zm-14.7 7.1v34.4h4.4v-34.4zm12.1 3.4v25.6h4.2v-3.3h19.2v-22.3zm4.2 3.7h14.9v5.3h-14.9zm0 8.9h14.9v5.7h-14.9z" fill="#fff" /></symbol>
<symbol id="cloudmusic"><path d="M125.9 1990.0c-6.7 4.5-6.8 10.8-5.7 14.4l1.3 4.9c-2.3.7-4.4 1.6-6.4 2.8-7.3 4.5-11.0 12-10.1 20.8 1 8.9 7.7 15.4 16 15.4 8.8 0 16-7.1 16-15.9-0-2.1-0-2-.4-3.9-.3-1.8-3-10.4-3-10.4 1.7.4 3.3 1 4.6 1.9 15.2 9.8 8.9 25.4 8.6 26.1-4.2 10-13.3 16-25 16.4-7.7.3-15-2.6-20.6-8-6-5.7-9.4-13.7-9.4-22 0-12.4 7.8-23.7 19.5-28.1 2.5-.9 4.4-3.5 3.1-6.5-1.1-2.4-4-3.2-6.4-2.3-15.3 5.8-25.6 20.6-25.6 36.9 0 10.7 4.4 21.2 12.2 28.7 7.2 6.8 16.4 10.6 26.1 10.6h1.3c15.3-.6 27.8-8.8 33.3-22.1 3.5-8 5.4-26.3-12.1-37.6-3.5-2.3-7.8-3.6-12.3-3.8l-1.4-5c-.9-3.06.6-4.6 1.4-5.2 3-2.1 7.25 1 7.5 1.2 1.8 1.8 5.2 2.2 7 .4 1.9-1.8 1.4-5.3-.4-7.1-1.9-2-6.7-4.77-11.9-4.7-2.4.0-4.8.6-7.1 2.1zm-2 28.4s3.2 10.1 3.4 11.7c.3 1.7.2 2.3.2 2.3 0 3.7-3 6.6-6.6 6.6-4 0-6.2-3.7-6.6-7.1-.7-6.5 2.7-10 5.7-11.8 1.2-.7 2.5-1.3 3.9-1.7z" fill="#fff" /></symbol>
<symbol id="huxin"><path d="M55.8 3648.6c-.3.3 0 3.1 1.4 3.5 7.9 2.8 3.7 10 2 16.2 7.3-7.7 7.4-14.8-.7-19-.1 0-1.5-.7-2.2-.7zm40.6 1.4c-.3 0 .5 5.5.7 7.1.1 0 1.1-1.6 1.2-1.5.2.1-.2 2.1-.1 2 4.9-10.1 6.1 21 6.5 29.8-.8-1.5-1.9-1.2-4.7-1.8 5.2-3.9 5.4-6.0 1.2-10.7-2.7-3.1-4.6-6.3-7.6-3 .7-4.1 1.6-8 2.4-10.8.4-1.2 0-2.5-2-3.5-2.7-1.3-3.5-.9-3.9.7-1.7 6-2.7 15.2-2.7 21.2 2.1 1.7 3.3 3.4 4.6 5.1 2.5-4.1 4.7-5.8 7.2-7.1-2.1 5.5-9.3 7.5-5.9 13.3.5.8 3.3 5.3 12 17.6 2.1 2.4 4.6 4.4 5 0 .5-20.6-1.2-41.5-3.9-48.4-3-6.3-8.4-9.9-10-10zm-16.4 1.9c-1.6 0-2.9.9-3.3 3.3-.3 3.1-.5 7.2-.7 11.2-4.4 1.5-7 1.3-4.7 4.2-3.2.2-6.5 3.7-8.6 6-2.2-1.8-4.6-4.1-7.7-5.6-5.4-2.1-1.1 1.9 0 2.8 2.1 1.6 3.9 3 6.2 4.5-4.2 4.9-8.4 11.3-9.3 14.9-.4 2 .6 3 1.9 4.3 1.5 1.3 3.2 1.9 3.8 0 2.3-6.9 7.5-17.9 13.3-23.4.9-1 1.5-1.8 1.6-2.4 1.3.9 2 0 3.3.7-.1 2.1-.1 4.0-.1 5.7-2.2.7-4.2 1.9-5.7 3-1.4 1.2.1 2.3 1.8 3.1-4.4 2.7-5.3 7.6-.3 10.5 5.9 3 8.7 2.6 15.2-2.2 5.6-5.1 2-10.8-1.6-13.2-1.7-1.1-3.4-1.7-5-1.8.1-2 .1-4.3.2-6.5 1.1-.4 2.8-1.1 3.8-1.5 3.7-1.8 6.7-6.5 1.2-5.4-1.3.3-3.0.7-4.7 1.1.4-6.4 1.5-11.3 5-9.6-1.4-2.2-3.7-3.7-5.6-3.7zm96.2 6.7c-5.6 0-9.7 15.3-11.1 19.5-3.2-2.6-9.6-7.8-10.2-7.6-1.2.1-1.2 3.6 0 5.4 1.7 2.1 6.2 4.8 8.8 6.5-1.7 5.5-.9 9.5-13.8.5-3.5-2.5-6.5.2-7.2 2.4 1.2-.2 2.3-1.7 5.1.9 4.4 3.9 12.8 10.9 16.8 7.6 5.1-4.5 1.5-10 4.3-18.9 1.7-5 7.8-13.7 13-8 3 3.6-2.1 3.5-4.2 7.9 2.1-.6 4.2-1.4 6.1-2.4-.7.7-1.2 1-2.3 1.9 1.1 0 6.6-2.3 6.6-4.1.1-2.9-7.1-11.6-11.9-11.6zm-44.9 10.1c2.4 9.2-2.8 19-1.8 27.6.8 4.4 4.2 7.0 5.7 2.3 1.2-5.2 2.5-11.9 3.9-21.7.3-4.4-3.8-6.9-7.8-8.2zm-49.4 14.3c6.1.8-4.2 10.5-7.6 8.5-4.2-2.2 4-8.5 7.6-8.5zm22.9 5.7c.4 5.9.8 11.1 1.4 16.4.1.6-8.6-10.3-11.7-13.7 2.4 1.6 9.1 0 10.3-2.7z" fill="#fff" /></symbol>
<symbol id="cnbeta"><path d="M89.8 2588.11l-11.7 20.3 11.7 20.3h23.4l11.7-20.3-11.7-20.3zm37.1 21.5l-11.7 20.3 11.7 20.3h23.4l11.7-20.3-11.7-20.3zm-37.1 21.4l-11.7 20.3 11.7 20.3h23.4l11.7-20.3-11.7-20.3z" fill="#fff" /></symbol>
<symbol id="qiniu"><path d="M65.6 2142.9c-.8 0-1.1 1-.7 2.3 5 14.8 16.2 26.8 30.7 33.2l3.4 24.5c1.9 13.9 12.8 13.9 14.1 13.9h15.8c1.3 0 12.4 0 14.5-13.9l2.7-18.2c.2-1.3-3.2-.6-5.9.6s-4.2 2.7-4.6 4.1l-4.3 15.8c-.3 1.3-1.6 2.9-3.7 2.9h-12.3c-2.1 0-3.4-1.7-3.7-2.9l-6.5-23.5c4.8 1.2 9.8 1.9 15 1.9 25.8-.2 47.6-16 55.1-38.4.7-2.2-.8-3.5-2.9-.8-13.5 17.6-31.6 26.1-52.2 26.1-6.5 0-12.8-.9-18.7-2.6l-2.8-10c-.3-1.2-1-2.3-2.6-3.2-1.7-1-3.8-1.4-3.7-.6l1.5 11.1c-9.8-4.3-18.6-11.2-26-20.8-.8-1-1.5-1.5-2-1.5z" fill="#fff" /></symbol>
<symbol id="ename"><path d="M118.8 1385.8l-49.9 61.6 29.5 24c.8.6 2.4.7 1.4-2.3-.9-2.7-1.4-7.3-1.2-10.9.7-9.9 5.4-19.5 13.7-27.8 9.6-9.7 21.4-14.3 32.8-13.1 6.3.7 11.7 4.8 12.7 8.3 2.3 8.9-4.8 16.8-11.6 20.7-5.9 3.4-13.5 5.9-21.6 7-4.3.6-4.5.7-5 1.7-.8 1.7-1.0 9-.3 11.5 1.9 6.5 7.7 8.9 15.6 6.5 4.4-1.4 9.4-5.1 12-9l24.2-36.4zm14.5 42c-3.6.1-7.3 3.9-10.6 11-2 4.3-4.1 9.9-4.5 11.9-.6 2.8-.5 3.3 1.7 2.9 6.5-1.2 12.3-6.7 14.7-9.9 2.4-3.1 4.7-8.4 3.8-12.3-.3-1.5-2-3.1-3.5-3.5-.6 0-1.1-.1-1.6-.1z" fill="#fff" /></symbol>
<symbol id="github"><path d="M119.9 38.9c23.2 0 42 18.8 42 42 0 16.6-12.8 34.5-28.6 39.8-2.1.4-2.9-.9-2.9-2 0-1.4.1-5.9.1-11.5 0-3.9-1.3-6.5-2.8-7.8 9.3-1 19.1-4.6 19.1-20.7 0-4.6-1.6-8.3-4.3-11.3.4-1 1.9-5.3-.4-11.1 0 0-3.5-1.2-11.5 4.3-3.4-.9-6.9-1.4-10.5-1.4-3.6 0-7.1.5-10.5 1.4-8-5.4-11.5-4.3-11.5-4.3-2.3 5.8-.8 10.1-.4 11.1-2.7 2.9-4.3 6.7-4.3 11.3 0 16 9.8 19.7 19.1 20.7-1.2 1-2.3 2.9-2.7 5.6-2.4 1.1-8.4 2.9-12.2-3.5-.8-1.3-3.1-4.4-6.5-4.3-3.5.1-1.4 2 .1 2.8 1.8 1 3.8 4.7 4.3 5.9.8 2.4 3.6 6.9 14.1 4.9 0 3.5.1 6.8.1 7.8 0 1.1-.8 2.4-2.9 2-16.7-5.6-28.7-21.2-28.7-39.8-.1-23.1 18.6-41.9 41.8-41.9z" fill="#fff" /></symbol>
<symbol id="sfgreen"><path d="M78.5 188.4v83h83v-83zm63.4 9.8c3.3 0 6.5.4 9.7 2l-2.7 8c-3.8-1.9-7.8-1.8-7.8 3.3v7.5h7.9v8.5h-7.9v32h-11.8v-32h-5.1v-8.5h5.1v-9.1c0-6 3.8-11.6 12.6-11.7zm-36.7 19.7c7.5 0 10.8 1.8 14 3.6l-3.6 7.6c-1.7-.9-11.4-5.6-13.7-.3-1.4 3.3 3.2 5.1 6 6 6.3 2.3 12.0 4.5 12.1 12.8.2 8.4-5.9 12.9-16.3 13-6.7.1-10.2-1.7-15-5.2l3.8-6.9c3.4 2.2 6.8 4.7 10.9 4.3 2.9-.2 4.8-1.8 4.9-3.9.2-3.4-3.5-4.5-6.5-5.7-5.7-2.3-11.9-5.4-11.7-12.9.2-7.5 5.8-12.5 15.1-12.4z" fill="#fff" /></symbol>
<symbol id="netease"><path d="M146.3 3083.0c-2.1-1.7-4.4-2.9-6.9-3.9 5-4.5 8-10.6 8-16.93 0-13.1-11.0-23.74-25.6-23.74s-27.3 10.6-27.3 23.7c.01 7.4 3.9 14.3 10.5 18.8-3.1 2-7.6 3.5-14.3 3.9-2.5.1-4.3 2.2-4.2 4.7.2 2.5 2.3 4.3 4.7 4.1 10.3-.63 17.8-3.8 22.7-8.7 1.8.4 3.6.7 5.5.8-7.2 8-17.1 12.6-27.1 14.1-2.4.3-4.1 2.62-3.8 5 .4 2.4 2.7 4 5.1 3.7 13.6-2.1 27.2-9.2 36-21.58l6.4.8c-8.3 11.4-24.5 21.7-39.6 24.7-2.4.5-3.9 2.9-3.35 5.3.6 2.4 3 3.9 5.4 3.3 16.5-3.9 34.3-14.8 45-28.4 1.2 2.0 1.6 4.7 .9 9-1.0 4.6-3.3 7-6.6 8.5-3.3 1.5-7.7 1.93-11.9 1.1-2.42-.46-4.8 1.1-5.2 3.5-.4 2.4 1.2 4.7 3.6 5.2 5.7 1 11.8.7 17.3-1.8 5.4-2.5 10.15-7.6 11.5-14.8 1.7-9-1.56-16.3-6.8-20.5zm-11.8-18h-19.5c.5 3.9 2.3 6.0 6.7 6.2 2.4 0 7.5-.5 9.8-1l1.1 5.6c-2.9.8-7.7 1.7-10.9 1.5-8.7-.4-13.9-5.8-13.9-14.6-.0-9.0 3.7-15.99 13.9-16 11.5 0 13.5 12.4 12.8 18.39zm-12.8-12.4c-3.8.0-6.6 2.3-6.8 7.1h11.92c-.1-3.3-1.6-7.1-5.1-7.1z" fill="#fff" /></symbol>
<symbol id="twi"><path d="M170.068 2748.8c-3.4 1.4-7.3 2.5-11.74 3 1.94-1.2 3.78-2.8 5.5-4.8 1.5-1.94 2.7-4 3.5-6.5-3.8 2-8.2 4-13 5-4.2-4.4-9.2-6.5-14.95-6.5-5.7 0-10.6 2.0-14.6 6-4 4-6 8.8-6 14.5 0 .7.1 2.2.5 4.6-8.4-.4-16.3-2.5-23.7-6.4-7.2-3.6-13.4-8.6-18.7-15-1 2.14-1.8 3.9-2.1 5.3-.4 1.4-.6 3.5-.6 6.3 0 2.8.8 5.7 2.5 8.6 1.5 2.9 3.6 5.3 6.6 7.3-3.5 0-6.6-.87-9.3-2.5 0 5.0 1.6 9.4 4.7 13.2 3.1 3.8 7.0 6.2 11.8 7-2.9.7-6.3.9-9.2.3 1.2 4 3.6 7.5 7.3 10.2 3.6 2.7 7.6 4 11.89 4.2-10.3 5.8-19.4 10.4-30.4 8.4 9.5 6.2 20.0 9.2 31.5 9.2 9 0 17.3-1.7 24.7-5.1 7.4-3.4 13.5-8 18.5-13.6 5-5.7 8.78-11 11.4-19 3-8.2 3.8-16 3.8-23.4 4.5-3.4 8-7 10.2-10.6z" fill="#fff" /></symbol>
<symbol id="onenote"><path d="M126.05 3488.1l-48 8.2v67.1l48 8.2zm3 8.9v9h18v3h-18v6h18v3h-18v6h18v3h-18v6h18v3h-18v6h18v3h-18v5.9h18v3h-18v9h25.3c1.3-.1 1.7-1.3 1.7-2.4v-42.6h5c.9 0 .9-.4.9-1v-12.9c0-.8-.3-1-.9-1h-5v-3.5c0-1.4-.6-2.5-1.7-2.5zm-19.9 38.7v-22.5l5.8-.3v33.3l-6.3-.3-12.3-22.7v21.8l-5-.2-.2-30.6 6.1-.2zm49.8-14.8v15h1.8c1 0 1.2-.8 1.2-1.7v-11.6c0-1-.4-1.7-1.2-1.7zm0 18v15h1.8c1 0 1.2-.8 1.2-1.7v-11.6c0-1-.3-1.7-1.2-1.7z" fill="#fff" /></symbol>
</defs><use xlink:href="#tieba"/><use xlink:href="#outlook"/><use xlink:href="#v2ex"/><use xlink:href="#qcloud"/><use xlink:href="#qieniang"/><use xlink:href="#qiniu"/><use xlink:href="#qqmail"/><use xlink:href="#meiriyw"/><use xlink:href="#weib"/><use xlink:href="#copyright"/><use xlink:href="#bilibili"/><use xlink:href="#zhihu"/><use xlink:href="#acfun"/><use xlink:href="#pixivi"/><use xlink:href="#aliyun"/><use xlink:href="#jians"/><use xlink:href="#cloudmusic"/><use xlink:href="#huxin"/><use xlink:href="#cnbeta"/><use xlink:href="#github"/><use xlink:href="#netease"/><use xlink:href="#sfgreen"/><use xlink:href="#twi"/><use xlink:href="#onenote"/><use xlink:href="#ename"/>
</svg>
