<svg xmlns="http://www.w3.org/2000/svg" height="600" width="600" viewBox="0 0 600 600"><path d="M247.001 35.002a211.999 212.733 0 0 0-211.999 213.65 211.999 212.733 0 0 0 211.999 212.733 211.999 212.733 0 0 0 116.965-34.844l140.724 138.46 60.31-58.685-140.724-141.211a211.999 212.733 0 0 0 35.638-116.453 211.999 212.733 0 0 0-212.913-213.65zm0 86.102a126.103 126.539 0 0 1 127.017 127.456 126.103 126.539 0 0 1-127.017 126.539 126.103 126.539 0 0 1-126.103-126.539 126.103 126.539 0 0 1 126.103-127.456z"/></svg>