<svg version="1.1" xmlns="http://www.w3.org/2000/svg"><symbol id="qihoo" viewBox="0 0 600 600"><path d="m300 10c-160 0-290 130-290 290s130 290 290 290 290-130 290-290-130-290-290-290zm-60.4 71.3c79.5 0 149 42.3 188 106 1.46 2.95 3.58 5.6 5.8 8.26 20.5 26.2 53.7 35.7 77.5 20.6 25.7-16.3 30.5-54.7 10.8-85.9-1.73-2.74-5.36-7.88-5.37-7.9 39.9 48.4 63.9 110 63.9 178 0 8.06-.361 16-1.03 23.9-12.5 110-106 195-219 195-79.5 0-149-42.3-188-106-1.46-2.95-3.58-5.6-5.8-8.26-20.5-26.2-53.7-35.7-77.5-20.6-25.7 16.3-30.5 54.7-10.8 85.9 1.73 2.75 5.36 7.89 5.36 7.89-39.9-48.4-63.9-110-63.9-178 0-8.1.364-16.1 1.04-24 12.6-110 106-195 219-195zm47.2 98.7c-14.7 0-26.7 11.9-26.7 26.7v53.3h-53.3c-14.7 0-26.7 11.9-26.7 26.7v26.7c0 14.7 11.9 26.7 26.7 26.7h53.3v53.3c0 14.7 11.9 26.7 26.7 26.7h26.7c14.7 0 26.7-11.9 26.7-26.7v-53.3h53.3c14.7 0 26.7-11.9 26.7-26.7v-26.7c0-14.7-11.9-26.7-26.7-26.7h-53.3v-53.3c0-14.7-11.9-26.7-26.7-26.7z" /></symbol><symbol id="q360chr" viewBox="0 0 600 600"><path d="m264 11.5c-84.5 10.7-161 56.5-206 130-26.2 42.4-8.93 99.6 31.2 137-25.7-9.19-50.7-22.9-73.4-34.5-16 83.7 4.02 171 59.9 237 33.1 39.1 95.1 39.3 143 10.5-17 22.7-38.8 43.2-57.6 61.9 74.6 41 163 48.9 243 16.2 47.4-19.4 66.8-78.3 54.2-133 15.9 22.9 28.3 49.3 40.1 72.5 62.1-58.3 97-140 90.6-227-3.69-49.7-51.2-85.7-105-92.2 25.4-7.14 52.6-10.7 76.9-14.4-36.3-77.1-103-136-187-156-47.6-11.7-95.8 21.2-119 69.5 1.14-26.1 6.12-52.7 10-76.6zm-19.7 146c7.22 27.3 23.2 63.2 43.8 92.7 9.4-2.35 19.5-1.75 28 1.05 36.4-30.2 75.9-45.7 103-51.1-24.1 15.1-54.4 42.1-76.8 71.7 5.2 8.82 8.03 18.1 7.66 27 42.1 26.7 69.7 61.5 82.5 86-21.2-18.9-57.9-40.9-94.7-53.8a49.8 49.8 0 0 1 -24.2 15.3c-12.2 47.6-36.3 84.2-55.4 104 11.5-25.8 21.1-67.5 22.1-107a49.8 49.8 0 0 1 -22 -18.9c-46.1 2.95-86.2-7.15-112-18.4 28.1 2.1 68.5-1.87 104-12.5a49.8 49.8 0 0 1 10.6 -26.6c-16.7-42-19.7-82.4-17.2-110z" /></symbol><symbol id="q360se" viewBox="0 0 600 600"><path d="m369 37.1c-22-5.8-45-8.9-69-8.9-147 0-268 120-268 267 0 52 15.3 101 41.7 142-10.2 63 .4 113 34.3 139 18 13 40 16 66 13 6-1 34-5 36-8l-37 3c-14-1-26-5-36-13-24-18-33-50-30-92 49 51 117 83 193 83 147 0 268-120 268-267 0-106-62-197-151-240 26-11.6 51-17.1 72-15.4 15 1.1 27 5.6 37 13.3 19 14 24 36 31 63.2-1-40.8-11-69.7-36-88.8-15-11.4-35-17.3-59.5-17.2-29.5 1.05-60.5 10.6-92.5 27zm-69-.1c20 0 39 2.2 57 6.4-12 6.9-24 14.8-37 23.7-7-.7-13-1.2-20-1.3-127 0-230 102-230 229 0 23 3.5 45 10.2 67 16-46 45.2-95 87.2-136-47 68-78.5 138-90.9 198-22.4-38-35.2-82-35.2-129 0-142 116-258 259-258zm229 276c1-6 1-11.5 1-17.5 0-93-56-176-142-212-34 21.6-70 51.6-104 87.6 5-1 10-2 16-2 42 0 80 35 93 86h-186c10-40 46-72 71-97 40-37 84-76.1 128-98.3 90 40.3 153 130 153 235 0 142-116 258-259 258-76 0-145-33-192-85 1-12 4-25 7-38 43 59 112 94 185 94 102 0 192-67 221-165h-137c-17 38-49 61-84 62-49-1-91-46.5-98-108z" /></symbol><symbol id="q360so" viewBox="0 0 600 600"><path d="m268 42.1a258 258 0 0 0 -258 258 258 258 0 0 0 7.61 61 64 64 0 0 1 55.5 -32.3 64 64 0 0 1 26.4 5.79 173 173 0 0 1 -3.67 -34.5 173 173 0 0 1 173 -173 173 173 0 0 1 173 173 173 173 0 0 1 -3.48 34.4 64 64 0 0 1 26.2 -5.69 64 64 0 0 1 55.5 32.3 258 258 0 0 0 7.6 -61 258 258 0 0 0 -258 -258zm-195 301a49.8 49.8 0 0 0 -48.9 40.8 258 258 0 0 0 244 175 258 258 0 0 0 244 -175 49.8 49.8 0 0 0 -48.9 -40.7 49.8 49.8 0 0 0 -31.7 11.5 173 173 0 0 1 -164 118 173 173 0 0 1 -164 -118 49.8 49.8 0 0 0 -31.8 -11.6zm474 111a42.9 42.9 0 0 0 -42.9 42.9 42.9 42.9 0 0 0 42.9 42.9 42.9 42.9 0 0 0 42.9 -42.9 42.9 42.9 0 0 0 -42.9 -42.9z" /></symbol><symbol id="abp" viewBox="0 0 600 600"><path d="m180 10-170 170v240l170 170h240l170-170v-240l-170-170zm-69.7 179h36.9l67.2 224h-33.9l-17.1-63.9h-70.5l-17.3 63.9h-32.5zm131 0h62.8c41.6 0 71.6 14.6 71.6 55.1 0 21.3-10.7 41.7-28.9 48.4v1.52c23.1 5.48 39.9 22.8 39.9 53.3 0 44.4-32.8 65.8-77.6 65.8h-67.7zm184 0h61.4c45.2 0 77.4 17 77.4 67.6 0 49-32.2 71.5-76.3 71.5h-30.6v84.9h-31.9zm-152 27.4v66.1h27.3c30.8 0 43.8-12.8 43.8-33.8 0-23.4-14.3-32.3-42.9-32.3zm-145 .304c-5.78 25.6-12.1 50.2-18.7 74.6l-8.26 30.1h55.3l-7.98-30.1c-6.88-24.4-12.9-49.3-19.3-74.6zm329 .61v82.5h27.5c32.5 0 47.9-13.7 47.9-43.2s-16.8-39.3-49-39.3zm-184 91.9v76.1h32.2c31.7 0 49.8-12.5 49.8-39.9 0-25.3-17.6-36.2-49.8-36.2z" /></symbol><symbol id="acer" viewBox="0 0 600 600"><path d="m124 230c-26.6 0-45.6.775-57.2 2.29-8.87 1.11-14.3 4.81-16.2 11.1-1.06 4.27-7.12 15.4-.58 15.5 23.1-1.62 45.9-4.27 64.8-4.4 26.3 0 37.4 6.62 33.3 19.9-.902 2.94-2.91 4.77-5.98 5.47-24.9 4.14-44.7 7.13-59.3 8.95-41.1 5.27-64.9 18.2-71.3 38.7-8.76 28.2 13.2 42.3 66 42.3 26.3 0 48.4-1.54 66.2-4.56 10.3-1.74 15.5-4.38 17.6-11.1l9.8-31.5c-1.02 31.4 20.9 47.3 65.8 47.3 19.4 0 37.9-.656 46.6-2.18 15.6-2.45 14.9-6.48 17.6-20.5 9.57 15 30.6 22.5 62.9 22.5 34.2 0 54.1-.964 59.8-2.88 10.3-4.12 10.1-12.4 13.3-22.8.325-6.7-3.18-3.33-45.3-1.34-21 .324-58.9 4.55-58.3-23l69.3-8.93c31-4 51.8-13.6 62.3-28.9l-23.5 82.3c-.908 3.83 2.29 5.23 5.1 5.25h28.7c5 0 6.79-2.61 7.41-4.8l25.3-88.8c3.34-11.7 14-17.4 32.6-17.4 12.8.112 25.7.038 38.2.468 1.56 0 4.44-.568 5.85-4.45l4.45-12.2c2.75-9.96-8.75-11.4-14.8-11.9-2.59-.202-11.2-.477-25.6-.477-37.9 0-63.6 11.6-76.8 34.4 3.62-23-18.6-34.5-66.8-34.5-56.5 0-91.8 22.9-106 68.8-5.22 17-5.75 31-1.63 41.9-15.3.897-30.8 2.35-45.9 2.4-20.7 0-33.5-3.5-38.5-10.5-4.43-6.26-4-17.9 1.2-34.9 8.62-28.1 30-40.8 64.2-40.8 17.7-.045 35 1.87 35 1.87 5.97.548 2.22-12.1 1.61-16.8-.79-6.21-5.38-9.9-13.8-11-10.4-.835-12.6-.889-22.2-.865-44.6.099-75.8 14.9-93.3 44.3 6.44-29.5-14.2-44.3-62-44.3zm277 24.4c24.9 0 35.6 5.58 32.2 16.7-2.79 9.1-15.8 15.3-38.9 18.7l-57.2 7.88c7.33-33.7 29.5-43.5 63.8-43.3zm-262 48.7-12.5 39.9c-8.96 1.41-26.1 1.69-38.6 2.12-27.1.95-43.2-6.44-38.2-17.8 7.11-16 21.5-15.1 36.7-17.2z" /></symbol><symbol id="aigo" viewBox="0 0 600 600"><path d="m209 128v36.3h42.1v-36.3zm178 22.1-17.5 25.6a73.1 73.1 0 0 0 -19.7 -2.71c-40.4 0-73.1 32.7-73.1 73.1a73.1 73.1 0 0 0 32.6 60.8c-28.8 15.1-46.9 44.9-47 77.4h38.1c0-27.3 22.1-49.4 49.4-49.4s49.4 22.1 49.4 49.4-22.1 49.4-49.4 49.4v38.1c48.3 0 87.5-39.2 87.5-87.5-.018-32.5-18.1-62.4-46.9-77.5a73.1 73.1 0 0 0 32.6 -60.8 73.1 73.1 0 0 0 -19.2 -49.2l16.4-24.1-33.2-22.7zm-304 22.9c-40.4 0-73.1 32.7-73.1 73.1s32.7 73.1 73.1 73.1a73.1 73.1 0 0 0 51.6 -21.4v21.4h42.1v-146h-42.1v21.3a73.1 73.1 0 0 0 -51.6 -21.4zm125 0v146h42.1v-146zm308 0c-40.4 0-73.1 32.7-73.1 73.1s32.7 73.1 73.1 73.1 73.1-32.7 73.1-73.1-32.7-73.1-73.1-73.1zm-434 37.6c19.6 0 35.4 15.9 35.4 35.4 0 19.6-15.9 35.4-35.4 35.4-19.6 0-35.4-15.9-35.4-35.4 0-19.6 15.9-35.4 35.4-35.4zm267 0c19.6 0 35.4 15.9 35.4 35.4s-15.9 35.4-35.4 35.4c-19.6 0-35.4-15.9-35.4-35.4 0-19.6 15.9-35.4 35.4-35.4zm167 0c19.6 0 35.4 15.9 35.4 35.4 0 19.6-15.9 35.4-35.4 35.4-19.6 0-35.4-15.9-35.4-35.4 0-19.6 15.9-35.4 35.4-35.4z" /></symbol><symbol id="alcatel" viewBox="0 0 600 600"><path d="M132 229v133h18.8v-133zm439 0v133h18.8v-133zm-169 .801v132h18.8v-93.7h18.9v-18.7h-18.9v-19.9zm-123 22.4c-12 12-18.8 28.2-18.8 45.2 0 17 6.81 33.2 18.8 45.2 12.1 12 28.3 18.7 45.4 18.7 9.51 0 18.7-2.1 27.2-6.11l36.9 15.8v-73.7c0-17-6.81-33.2-18.8-45.2-12.1-12-28.3-18.7-45.3-18.6-17 .055-33.3 6.77-45.4 18.8zm-62.6-1.7c-31.3.068-56.7 25.3-56.7 56.5 0 31.1 25.3 56.4 56.7 56.4 15-.032 29.3-6.01 39.9-16.6l-14-14c-7.01 7.01-16.6 11-26.5 11-20.7 0-37.5-16.7-37.5-37.4s16.8-37.4 37.5-37.4c9.91 0 19.5 4 26.5 11l13.4-13.4c-10-10-24-16-39-16zm109 .1c27.1 0 49 21.8 49 48.9v48.8h-16.3v-12.6c-8.91 8.11-20.5 12.6-32.6 12.6-27.1.069-49.1-21.8-49.1-48.8 0-27 21.9-48.9 49-48.9zm181 0c-15.1 0-29.5 5.91-40.1 16.5-10.6 10.5-16.5 24.9-16.5 39.9s6.01 29.3 16.5 39.9c10.6 10.6 25 16.5 40 16.5 21.6 0 41.2-12.3 50.9-31.6h-22.7c-7.11 8.01-17.3 12.6-28 12.6-17.1 0-32-11.6-36.3-28h92.2c.501-3.1.799-6.21.799-9.41 0-15-6.01-29.3-16.5-39.9-10.6-10.6-25-16.5-40.1-16.5zm-441 .1c-30.5 0-56 25-56 56s25.5 56.1 56.7 56.1c13.8 0 27.1-5.01 37.4-14v14.5h18.8v-56.4c-.2-30.9-25.3-56-56.4-56.2zm259 16.4c-17.9 0-32.4 14.5-32.4 32.3s14.5 32.3 32.4 32.3 32.4-14.5 32.4-32.3-14.5-32.3-32.4-32.3zm-258 3c20.5 0 37.2 16.4 37.5 36.9.302 20.7-16.3 37.8-37.3 37.9-21 .15-37.9-16.7-37.8-37.7.149-20.8 17-37.2 37.5-37.2zm440 0c17.2 0 32.1 11.6 36.4 28h-72.7c4.3-16.5 19.2-28 36.3-28z"/></symbol><symbol id="alipay" viewBox="0 0 600 600"><path d="m300 10c-183 0-211 .384-221 2.97-31.4 8.17-57.5 34.5-65.7 66.1-2.77 10.8-2.94 34.9-2.47 226l.525 214c.098 34.7 36.2 70.5 62.9 70.5 11.8-.006 19-.112 225-.008 233 .118 220 .663 243-11 12.3-6.21 30.1-24.2 36.3-36.4 10.7-21.1 14.8-48 7.69-50.5-10.4-3.69-143-61.1-180-77.8l-43.2-19.6-18.5 19.5c-34.9 36.7-77.4 63.3-119 74.7-16.8 4.58-23 5.27-47.4 5.32-32.6.063-44.6-2.45-69-14.4-55.4-27.2-73-93.7-38.2-144 18.5-26.8 51.8-44.2 92.1-48 32.8-3.08 100 9.2 163 29.6l17.2 5.62 9.22-19.6c7.36-15.6 23.1-56.8 23.1-60.3 0-.428-51.1-.779-114-.778h-114l.265-11.1.26-11.1 58.2-.514 58.2-.51v-40.5h-141v-23.2h141v-30.1c0-17 .868-31.7 2-33.8 1.86-3.46 4.34-3.74 33.8-3.74h31.8v67.6l69.8.506 69.8.51.317 11.1.314 11.1h-140v40.6h114l-1.33 6.28c-4.93 23.4-25.7 77.6-39.5 103l-7.49 13.9 37 13.5c49.4 18 104 35.7 131 42.7l22.2 5.71.51-158c.494-153 .392-158-3.37-171-9.14-30.2-34.4-54.6-64.8-62.5-10.1-2.62-38-3-222-3zm-131 315c-31.4-.134-58.7 7.72-76.4 23.3-10.6 9.28-18.5 27-18.5 41.3.052 32.5 28.2 58.1 71.3 64.9 14.1 2.22 40.3.759 55.1-3.07 33.3-8.64 70.9-33.8 98.9-66.2 6.9-7.99 12.5-15.1 12.5-15.9 0-1.72-44.3-21.8-64.8-29.3-26.9-9.9-53.8-14.8-78.2-14.9z" /></symbol><symbol id="android" viewBox="0 0 600 600"><path d="m198 10.7c-2.56 1.42-3.41 4.36-1.99 6.93l24.9 44.9c-48.9 25.4-81.9 73.8-82 129h322c-.07-55.5-33.1-104-82-129l24.9-44.9c1.42-2.57.579-5.51-1.99-6.93-2.57-1.42-5.51-.58-6.93 1.99l-25.2 45.4c-21.1-9.37-44.7-14.6-69.6-14.6s-48.6 5.25-69.6 14.6l-25.2-45.4c-1.05-1.66-2.61-2.67-4.39-2.67-.92 0-1.84.387-2.54.688zm27.9 95.9c7.3 0 13.4 6.06 13.4 13.4 0 7.3-6.06 13.4-13.4 13.4s-13.4-6.06-13.4-13.4 6.05-13.4 13.4-13.4zm148 0c7.3 0 13.4 6.06 13.4 13.4 0 7.3-6.06 13.4-13.4 13.4s-13.4-6.06-13.4-13.4 6.05-13.4 13.4-13.4zm-283 91.8c-20 0-35.9 15.9-35.9 35.9v149c0 20 15.9 35.9 35.9 35.9s35.9-15.9 35.9-35.9v-149c0-20-15.9-35.9-35.9-35.9zm418 0c-20 0-35.9 15.9-35.9 35.9v149c0 20 15.9 35.9 35.9 35.9s35.9-15.9 35.9-35.9v-149c0-20-15.9-35.9-35.9-35.9zm-370 6.15v232c0 21.9 17.7 39.6 39.5 39.6h25.7v78.2c0 20 15.9 35.9 35.9 35.9s35.9-15.9 35.9-35.9v-78.2h47.8v78.2c0 20 15.9 35.9 35.9 35.9s35.9-15.9 35.9-35.9v-78.2h25.7c21.9 0 39.5-17.7 39.5-39.6v-232z" /></symbol><symbol id="apple" viewBox="0 0 600 600"><path d="m503 518c-22.2 32.2-53.5 69.8-91.8 71.3-35.7-1.69-64.6-22.4-99-22.7-36.5-1.25-63.5 21.8-98.4 23.3-45.9-3.51-73.2-43.2-94.8-73.6-38.8-58.9-62.6-127-63.1-193 3.24-66 24.4-121 78.1-154 43.2-24.9 86.8-22 127-7.3 22.8 8.55 37.4 12.9 43.8 12.9 4.79 0 21-5.07 48.6-15.2 65.1-24.3 140-2.75 176 46.1-43.6 26.4-65.2 63.5-64.8 111 2.04 56.1 31.3 97.6 80.4 119-10 29.5-25.2 59.6-41.4 83zm-112-415c-25.5 29.8-56.3 47-89.8 44.3-2.79-32.9 15.4-72.6 33-93 24-24.6 55-42 87.9-44.1 3.34 33.4-14.2 72.3-31.1 92.8z" /></symbol><symbol id="arm" viewBox="0 0 600 600"><path d="m544 209-52.1 65.8-51.7-64.8h-46v182h46v-109l51.7 56.5 52.1-57.4v109h46v-182zm-240 .917c-2.4-.034-4.82-.03-6.85.04h-73.7v182h49v-71.9h22.9l37.6 71.7 54.3.147-44.4-85.5c41.9-28.9 30.2-95.4-38.7-97.1zm-221 .04-72.2 182h50.1l12.5-32.9h76l12.5 32.9h50.1l-72.2-182h-56.7zm190 36.3h28c18.9.252 26.3 35.6.905 37.5h-28.9zm-161 13.1 24 63.3h-48zm162 133c-.081-.12.004.137.268.324-.105-.113-.171-.184-.268-.324z" /></symbol><symbol id="baidu" viewBox="0 0 600 600"><path d="m230 10c-35.1 0-63.7 40-63.7 89.6-.001 49.5 28.6 89.6 63.7 89.6s63.7-40.1 63.7-89.6c0-49.7-28.5-89.6-63.7-89.6zm170 18.1c-34.2.46-67.8 46-71.3 76.8-4.44 42.1 6.24 84.4 53.1 90.2 47 6.2 77.4-43.6 83.3-81.2 6.01-37.6-24.2-81.2-60-85.5a37.9 37.9 0 0 0 -5.05 -.267zm-311 118c-.734.009-1.48.028-2.22.057-47.7 1.9-55.3 75.7-55.3 75.7-6.82 34.2 16.9 107 80.4 93.5 63.8-13.7 55.1-88.9 53-106-2.87-23.9-29.6-64.3-75.9-63.8zm408 39.7c-55.9 0-63.5 51.1-63.5 87.3 0 34.7 2.84 82.8 72.8 81.4 69.6-1.48 62-78.5 62-96.6 0-17.9-15-72.2-71.3-72.2zm-201 59.8c-34.7.345-65.9 22.4-80.8 47.1-27.2 45-69.7 73.9-75.9 81.4-6.09 7.4-87.8 51.1-69.6 131 18.1 79.8 81.9 78.1 81.9 78.1s47.1 4.66 101-7.09c54.8-12.1 102 2.63 102 2.63s127 42.3 162-39c34.8-81.2-19.9-124-19.9-124s-72.6-55.6-115-116c-26.1-40.3-57.2-54.9-85.9-54.6z" /></symbol><symbol id="bb" viewBox="0 0 600 600"><path d="m261 96.8-18.6 98.4h113c25.2 0 45.5-20.3 45.5-49.2s-20.3-49.2-45.5-49.2h-94.5zm-204 .797-18.6 98.4h113c25.2 0 45.5-20.3 45.5-49.2s-20.3-49.2-45.5-49.2h-94.5zm393 88.3-18.6 98.4h113c25.2 0 45.5-20.3 45.5-49.2s-20.3-49.2-45.5-49.2h-94.5zm-421 62.1-18.6 98.4h113c25.2 0 45.5-20.3 45.5-49.2s-20.3-49.2-45.5-49.2zm204 3.22-18.6 98.4h113c25.2 0 45.5-20.3 45.5-49.2s-20.3-49.2-45.5-49.2h-94.5zm188 91.5-18.6 98.4h113c25.2 0 45.5-20.3 45.5-49.2s-20.3-49.2-45.5-49.2zm-218 62.9-18.6 98.4h113c25.2 0 45.5-20.3 45.5-49.2s-20.3-49.2-45.5-49.2h-94.5z" /></symbol><symbol id="bdllq" viewBox="0 0 600 600"><path d="m300 10a290 290 0 0 0 -290 290 290 290 0 0 0 290 290 290 290 0 0 0 290 -290 290 290 0 0 0 -290 -290zm189 97.6-92.9 130a115 115 0 0 1 -14.7 143 115 115 0 0 1 -143 16.8l-129 94.9 92.9-130a115 115 0 0 1 14.7 -143 115 115 0 0 1 143 -16.8z" /></symbol><symbol id="bdmllq" viewBox="0 0 600 600"><path d="m300 40c-53.4.005-106 14.3-150 41.2a80.4 80.4 0 0 0 -59.2 -26.1c-44.4 0-80.3 35.9-80.3 80.2.031 25.7 14.7 51.8 35.5 66.9-16.7 51.1-24.9 95.1-24.1 143 1.99 119 125 215 279 215s277-95.9 279-215c.807-48.1-7.39-92.2-24.1-143 20.8-15.1 35.5-41.2 35.5-66.9 0-44.3-36-80.2-80.3-80.2a80.4 80.4 0 0 0 -59.2 26.1c-44.9-26.9-97.1-41.2-150-41.2zm0 90.4a189 170 0 0 1 189 170 189 170 0 0 1 -189 170 189 170 0 0 1 -189 -170 189 170 0 0 1 189 -170z" /></symbol><symbol id="bdpan" viewBox="0 0 600 600"><path d="m300 67c-83.4 0-151 67.6-151 151 0 7.79.6 15.4 1.74 22.9-77.8.519-141 63.7-141 142 0 78.2 63.4 142 142 142 40.9 0 77.7-17.3 104-45l142-148c28.2-28.2 73.9-28.2 102 0s28.2 73.8 0 102-73.9 28.2-102 .008a34.8 34.8 0 0 0 -24.6 -10.2c-19.2 0-34.8 15.5-34.8 34.7a34.8 34.8 0 0 0 10.2 24.6c55.3 55.3 145 55.3 200 .005 55.3-55.3 55.3-145 0-200-27.4-27.4-63.3-41.2-99.2-41.5a152 152 0 0 0 1.73 -22.9c.001-83.4-67.6-151-151-151zm0 72.8c43.2 0 78.2 35 78.2 78.1s-35 78.1-78.2 78.1-78.2-35-78.2-78.1 35-78.1 78.2-78.1zm-148 170c39.9 0 72.2 32.3 72.2 72.1s-32.3 72.1-72.2 72.1-72.2-32.3-72.2-72.1 32.3-72.1 72.2-72.1z" /></symbol><symbol id="bing" viewBox="0 0 600 600"><path d="m300 288-60.3-128 292 90.5v142l-332 197-132-92.8v-487l132 41.8v327l-128 116 313-167z" /></symbol><symbol id="chrome" viewBox="0 0 600 600"><path d="m300 10c-95.8.004-185 47.3-239 126l108 150c6.74-66.7 63-119 131-119h258c-49.6-96.9-149-158-258-158zm-243 133a290 290 0 0 0 -46.6 157c.141 152 117 277 268 289l75.9-168c-16.5 7.42-34.8 11.6-54.1 11.6-48.9 0-91.6-26.6-114-66.1zm505 31.7-184 18.4c33.2 24 54.8 63 54.8 107 0 24.1-6.44 46.6-17.7 66.1l-129 223c4.8.361 9.62.602 14.4.723 160 0 290-130 290-290a290 290 0 0 0 -28.8 -125zm-261 19.4c-58.6 0-106 47.5-106 106s47.5 106 106 106c58.6 0 106-47.5 106-106s-47.5-106-106-106z" /></symbol><symbol id="cmusic" viewBox="0 0 600 600"><path d="m390 10v.037c-16.4.222-33.4 4.53-49.5 15.2-46.4 30.8-47.3 74.2-39.7 99.3l9.25 33.9c-15.5 4.45-30.3 10.8-43.9 19.1-50.8 31-76.3 83.4-69.9 144 6.58 61.8 52.9 107 110 107 60.9 0 110-49.4 110-110-.816-14.5-.657-14.3-2.58-27.3-1.92-12.6-20.6-72.1-20.6-72.1 11.5 2.64 22.2 6.97 31.5 13 105 67.9 61.1 176 59.2 181-28.8 69-91.8 110-173 113-52.7 1.86-103-17.8-142-55.3-41.1-39.6-64.7-95-64.7-152 0-85.9 54.2-164 135-194 16.8-6.27 30.4-24.2 21.1-45-7.3-16.3-27.1-22-43.9-15.7-106 39.6-177 142-177 255 0 74.5 30.8 147 84.5 199 49.5 47.7 113 73.6 180 73.6 3.05 0 6.09 0 9.14-.194 106-3.71 192-60.9 230-153 24-55.7 37.3-182-83.7-260-24.4-15.8-54.4-24.6-85.3-26.1l-6.9-25.2.226.271c-.272-.761-.488-1.52-.72-2.24l-2.05-7.43c-4.7-21.6 3.84-31.8 8.23-35.5.757-.562 1.52-1.12 2.35-1.67 20.1-13.4 48.8 8.03 50.4 9.29 12.7 12.2 36 15.3 48.5 2.73 12.7-12.6 9.72-36.3-2.96-48.9-13.6-13.5-46.5-32.7-82.5-32.2zm-62.9 211s22.1 70.1 23.9 81c1.9 12 1.06 15.9 1.06 15.9 0 25-20.4 45.4-45.5 45.4-27.8 0-43.2-25.3-45.7-48.7-4.74-44.7 18.7-69.1 39.2-81.6 8.33-5.07 17.4-9.02 27-11.9z" /></symbol><symbol id="coolpad" viewBox="0 0 600 600"><path d="m290 234v112h20v-112zm280 1v29c-7-5-16-8-25-8-25 0-45 20-45 45s20 45 45 45 45-20 45-44v-67zm-421 21c-25 0-46 20-46 45s21 45 46 45c24 0 45-20 45-45s-21-45-45-45zm93 0c-25 0-45 20-45 45s20 45 45 45 45-20 45-45-20-45-45-45zm210 0c-25 0-45 20-45 45s20 45 45 45c9 0 18-3 25-7v7h20v-90h-20v8c-7-5-16-8-25-8zm-94 0c-24 0-44 20-44 45v66h19v-28c8 5 16 7 25 7 25 0 46-20 46-45s-21-45-46-45zm-303 0c-24.9 0-45.1 20-45.1 45s20.2 45 45.1 45c15.4 0 29.1-7 37.2-19 2.6-4-12.1-15-19.4-8-4.5 5-10.8 7-17.8 7-13.8 0-25.2-11-25.2-25s11.2-25 25.2-25c7 0 13.3 3 17.8 7 7.4 8 22-4 19.4-8-8.2-11-21.8-19-37.2-19zm93.9 20c13 0 25 11 25 25s-12 25-25 25c-14 0-26-11-26-25s12-25 26-25zm93 0c14 0 25 11 25 25s-11 25-25 25-25-11-25-25 11-25 25-25zm116 0c14 0 26 11 26 25s-12 25-26 25c-13 0-25-11-25-25s12-25 25-25zm94 0c14 0 25 11 25 25s-11 25-25 25-25-11-25-25 11-25 25-25zm93 0c14 0 25 11 25 25s-11 25-25 25-25-11-25-25 11-25 25-25z" /></symbol><symbol id="cyanogenmod" viewBox="0 0 600 600"><path d="m300 10a290 290 0 0 0 -290 290 290 290 0 0 0 290 290 290 290 0 0 0 290 -290 290 290 0 0 0 -290 -290zm0 30a260 260 0 0 1 260 260 260 260 0 0 1 -260 260 260 260 0 0 1 -260 -260 260 260 0 0 1 260 -260zm-127 111a11.8 11.8 0 0 0 -4.59 .881 11.7 11.7 0 0 0 -6.43 15.3l21.8 53.5c-26.9 11.1-43.9 27.3-43.9 45.4v123c0 33.5 57.7 60.5 129 60.5h61.1c71.7 0 129-27 129-60.5v-123c0-18.1-17-34.4-43.9-45.4l21.8-53.5a11.7 11.7 0 0 0 -6.43 -15.3 11.8 11.8 0 0 0 -4.59 -.88 11.7 11.7 0 0 0 -10.7 7.31l-22.4 55c-18.7-4.87-40.2-7.66-63.2-7.66h-61.1c-23 0-44.5 2.78-63.2 7.65l-22.4-55a11.7 11.7 0 0 0 -10.7 -7.31zm44.5 128a48.1 48.1 0 0 1 48.1 48.1 48.1 48.1 0 0 1 -48.1 48.1 48.1 48.1 0 0 1 -48.1 -48.1 48.1 48.1 0 0 1 48.1 -48.1zm165 0a48.1 48.1 0 0 1 48.1 48.1 48.1 48.1 0 0 1 -48.1 48.1 48.1 48.1 0 0 1 -48.1 -48.1 48.1 48.1 0 0 1 48.1 -48.1zm-96.9 116h29c2.49 0 4.34 1.54 4.49 3.44.3 3.8-5.8 11-13 11h-11.9c-7.23 0-13.3-7.22-13-11 .15-1.9 2-3.44 4.49-3.44z" /></symbol><symbol id="deepin" viewBox="0 0 600 600"><path d="m300 10a290 290 0 0 0 -290 290 290 290 0 0 0 290 290 290 290 0 0 0 290 -290 290 290 0 0 0 -290 -290zm62.2 37.2c9.03 2.24 18.1 3.62 27.1 6.88 32.8 12 61.6 30 85.9 52.2-39.7 14.5-104 45.1-104 45.1-102 42.8-108 107-108 107-10.5 66.7 42.4 38.4 42.4 38.4 54.4-26.5 81.2-109 81.2-109-17-3.23-30.4 1.93-30.4 1.93-21.7 53.6-66.1 75.7-66.1 75.7-17.4 9.24-21.5-7.08-21.5-7.08-2.94-12.2 12.6-14.3 12.6-14.3 24.2-9.38 39.6-34.8 43.1-45.1 3.48-10.4 9.96-11.2 9.96-11.2 33.1-10.6 63.3-12.9 63.3-12.9 41.1-5.05 104 14.5 104 14.5 14.1 5.68 27.6 9.92 39.6 13.3 23.1 57.6 26.7 123 3.85 186-49.3 136-199 206-334 156-16-5.86-31-13.3-45.1-21.8 70.1 5.38 162-10.8 223-68.5 0 0 118-94 32.5-248 0 0 13.7 62.1-3.77 113 0 0-16.7 69.5-90.8 89.7-109 29.7-234-46.7-286-83.7-3.92-38.1-.435-77.4 13.5-116 20.7-56.8 59.5-101 107-131-11.9 83-2.49 160 11 192 18.1 42.9 49.6 93 111 99.5 61.4 6.44 95.2-51 95.2-51 31.5-47.8 36.4-117 35.9-118-.477-1.68-8.39-6.22-8.39-6.22-21.2 85.8-56.1 114-56.1 114-55.1 53.2-94.1 16.3-94.1 16.3-41.9-45.1-12.6-118-12.6-118 16.4-49.9 64.3-123 119-160z" /></symbol><symbol id="dingtalk" viewBox="0 0 600 600"><path d="m300 10a290 290 0 0 0 -290 290 290 290 0 0 0 290 290 290 290 0 0 0 290 -290 290 290 0 0 0 -290 -290zm-163 100c4.91.018 13.4 2.97 27.3 9.41l270 108c24.1 11.2 42.4 22.5 28.9 49.5l-67.1 116 53.9.314-104 138 23.6-94.1-42.8-.074 14.9-61.9-42.9 12.4c-8.6 2.93-16.5 2.55-27.7-1.32-12.5-4.32-28-14.8-40.9-27.8-11.6-11.5-15.9-19.8-13.2-25 1.43-2.74 4.24-3.83 14.2-5.5 13.4-2.26 58.7-8.64 86.2-12.1.688-.088-16.8-.16-38.8-.16-46.7.001-59.5-.625-67.2-3.28-14.5-5-32.1-27.3-48.4-61.4-5.51-11.5-6.09-15.2-2.84-17.9 3.18-2.68 7.12-2.4 20.6 1.41-.353.883 102 27.5 133 29.4l-66.4-18.5c-44.9-13.7-76.1-27.4-86.8-38.1-9.3-9.33-20.1-35.9-24.7-60.9-3.38-22.4-9.85-36.5.945-36.5z" /></symbol><symbol id="disable" viewBox="0 0 600 600"><path d="m300 10c-79.6 0-150 29.4-204 84.2-55.7 56.4-85.9 130-85.9 206 0 77.1 29.4 149 85.1 204 55.7 55.6 128 85.8 204 85.8s150-30.2 208-86.6c54.1-53.2 82.7-124 82.7-203 0-78.7-28.6-150-83.5-205-55.7-55.6-127-85-207-85zm.804 52.5c65.2 0 123 24.6 169 69.9 44.5 44.5 68.4 103 68.4 168 0 56.9-17.6 108-51.7 149l-334-334c41.5-34.3 92.1-52.2 149-52.2zm-185 89.7 333 333c-43.2 33.7-94.9 51.6-148 51.6-62.9 0-122-24.6-167-69.9-45.4-45.3-70.8-105-70.8-167 0-53.8 18.7-105 52.6-148z" /></symbol><symbol id="dolphin" viewBox="0 0 600 600"><path d="m112 10c-56.6 0-102 45.5-102 102v97.3c69.6-92.6 164-126 285-99.9 18.3 3.97 29.4-7.3 32.2-19.3 3.68-15.6 2.96-32.9.392-48.2-1.47-8.76 5.42-8.99 10.3-4.4 21.6 20.2 37 39.2 48.5 68.5 10.2 26.1 14.1 29.6 17.5 32.3 94.6 75.8 170 184 126 281 12.3 25.5 18.1 53.7 2.29 64.9-23.2 16.5-95.8-44.2-179-139-7.28-8.37-17.9-15.2-25.6-11.8-43.8 5.89-79.3 1.84-110-11.1-9.26-3.87-14.9-9.35.237-12.3 18.8-3.67 28.6-8.21 43.8-16.2 16.1-8.45 10.2-16.8-5.44-27.5-72.6-49.6-155-20.8-246 60.9v161c0 56.6 45.5 102 102 102h376c56.6 0 102-45.5 102-102v-376c0-56.6-45.5-102-102-102h-376zm38.5 208c-46.7-.353-94 17-141 49.9v30.1c59-50.9 128-78.4 204-68.4-20.8-7.65-41.9-11.5-63.2-11.6z" /></symbol><symbol id="doov" viewBox="0 0 600 600"><path d="m225 261c-36.1 0-65.3 17.3-65.3 38.5 0 21.3 29.3 38.5 65.3 38.5 36.1 0 65.3-17.3 65.3-38.5 0-21.3-29.3-38.5-65.3-38.5zm150 0c-36.1 0-65.3 17.3-65.3 38.5 0 21.3 29.3 38.5 65.3 38.5 36.1 0 65.3-17.3 65.3-38.5 0-21.3-29.3-38.5-65.3-38.5zm-364 0.132v77h23.5c22.6 0 42.7 0.415 67.2-2.25 19.3-2.11 39.7-13.8 39.7-36.2 0-22.4-20.5-34.1-39.7-36.2-18.3-2-34.2-2.31-50.6-2.33zm449 1.82c16.1 21.5 29.8 45.3 48.3 64.2 4.95 5.06 10.5 9.1 16.9 9.14 6.38 8e-3 12-4.08 17-9.14 18.6-19 32.3-42.7 48.3-64.2h-32.2c-6.53 16.8-13.2 33.5-21.1 48-3.5 6.34-7.44 11.5-12 11.5-4.49-8e-3 -8.46-5.14-11.9-11.5-7.93-14.4-14.6-31-21.1-48zm-234 6.91c24.2 0 43.8 13.3 43.8 29.7s-19.6 29.7-43.8 29.7c-24.2 0-43.8-13.3-43.8-29.7s19.6-29.7 43.8-29.7zm150 0c24.2 0 43.8 13.3 43.8 29.7s-19.6 29.7-43.8 29.7c-24.2 0-43.8-13.3-43.8-29.7s19.6-29.7 43.8-29.7zm-321 1.95c15.7-4e-3 25.9 0.189 37.5 1.63 12.3 1.52 25.3 9.97 25.3 26.1 0 16.2-13 24.6-25.3 26.1-15.5 1.92-28.4 1.62-42.7 1.62h-15v-55.5z" /></symbol><symbol id="edge" viewBox="0 0 600 600"><path d="m32 267c17-134 108-258 273-257 218 .2 263 161 263 336h-364c1.66 150 221 145 315 78.8v122c-55.3 33.2-181 62.8-278 24.8-82.7-31.1-142-118-141-201-2.69-108 53.7-179 141-220-18.6 23-32.7 48.4-40.1 92.3h206s12-123-116-123c-121 4.28-208 74.7-258 147z" /></symbol><symbol id="fedora" viewBox="0 0 600 600"><path d="m300 10c-160 0-290 130-290 290v224c.088 36.3 29.6 65.8 65.9 65.8l.317-.012.014.012h224c160-.06 290-130 290-290 .002-160-130-290-290-290zm85.1 68.7c11.4 0 19.5 1.28 30.1 4.05 15.4 4.03 28 16.6 28 31.3.004 17.7-12.9 30.6-32.1 30.6-9.17 0-12.5-1.76-25.9-1.76-39.6 0-71.8 32.1-71.8 71.7v62.1c.046 6.25 5.43 10 10.1 10.2h47.2c17.6 0 31.8 14.1 31.8 31.7s-14.2 31.7-31.8 31.7h-57.3v72.4c0 75.2-60.9 136-136 136-11.4 0-19.5-1.29-30.1-4.05-15.4-4.03-28-16.6-28-31.3 0-17.7 12.9-30.6 32.1-30.6 9.16 0 12.5 1.76 25.9 1.76 39.6 0 71.8-32.1 71.8-71.7v-62.4c0-5.59-4.54-10.1-10.1-10.1l-47.2-.01c-17.6 0-31.8-14-31.8-31.7-.01-17.7 14.4-31.7 32.1-31.7h57v-72.1c0-75.2 60.9-136 136-136z" /></symbol><symbol id="firefox" viewBox="0 0 600 600"><path d="m91.9 111c-8.78-10.1-14.1-20.2-15.2-37.8-26.9 32.9-31.2 55.4-28.9 102-24 30.7-32.7 75.6-37.7 104 0 0 4.78-15 14.2-32-6.92 21.4-12.5 54.7-9.23 105 .165-1.65 1.65-14.3 5.27-31.3 1.81 33.3 9.72 74 35.6 118 19.8 33.8 71.7 112 202 142-14.3-4.12-23.2-12.4-23.2-12.4s48.8 15.7 84.2 14.3c-11.2-1.98-13.4-7.25-13.4-7.25 42.2 2.85 155-6.57 176-64.7 32.3-7.59 98.8-81.8 80.9-124 21-42.2 37.6-110 19.5-161-.041.122-3.52 10.7-8.35 26.6.376-44.2-12.7-115-54.9-148l1.68 9.19c-10-15.3-23.9-28-39.9-36.7 0 0 .596 3.5 1.54 10.3-120-104-294-85.2-390 24.3zm395 36.4c-14.3-14.7-38.7-29.8-55.4-31.1 24.7 18.5 66.2 73.2 61.8 156-6.43-13.3-18-34.3-26.2-41.5 8.9 81.4 1.16 98.9-4.28 120-1.15-9.89-4.78-17.5-6.76-21.9-9.56 78.8-55.1 114-49.5 83.1-28.9 28.3-72.7 50.7-141 17.9 38-1.7 6.21-4.63-13.7-8.57-10.5-3.3-24.2-18.1-32.1-25.5 89.5 18.1 93-33.9 129-32.6 32.2 4.17 3.04-56.4-61-28.2-34.6 18.7-90.6 1.24-95-43 3.09-28.1 26.9-20.2 36.8-10.4 3.35-5.31-11.8-13.8 1.32-6.43 4.34-11.8 1.26-29.1-.164-31.6 1.48-7.09 43.3-29 46.5-31.3 10.8-6.55 19.2-27.5 13.3-33.8-23.2-15.4-62.8 11.8-76.5-27.3 4.7-20.4 22.2-44.7 40.8-54.9-21.1-12.4-67.9 13.6-78.1 31.1-48.6-11.9-65.8 4.92-69.3-.839 63.7-103 309-144 380 20.4z" /></symbol><symbol id="galaxy" viewBox="0 0 600 600"><path d="m69.2 343c32.7 0 59.4-26.5 59.4-59.5 0-2.42-.19-4.84-.5-7.23h-62v20.8h38.1c-5.62 14.4-19.5 23.8-34.9 23.8-20.7 0-37.6-16.8-37.6-37.7 0-20.7 16.8-37.7 37.6-37.7 13.9 0 26.5 7.63 33 19.8l19-10c-11-19-30-31.1-51.8-31.2-33.4-.22-60 25.9-59.8 58.9s26.7 60 59.5 60zm173-119v119h22.8v-119zm-58.5 23.8c-26.3 0-47.5 21.2-47.5 47.6 0 26.3 21.2 47.6 47.5 47.6 10.4 0 20.5-3.44 28.7-9.75v9.75h21.8v-95.2h-21.8v9.78c-8.26-6.32-18.4-9.77-28.7-9.78zm137 95.2c10.4 0 20.5-3.44 28.7-9.75v9.75h21.8v-94.6h-21.8v9.19c-8.26-6.32-18.4-9.77-28.7-9.78-26.3 0-47.5 21.2-47.5 47.6 0 26.3 21.2 47.6 47.5 47.6zm164-94.6 39.9 89.3-16.9 38.3h25l57-128h-25l-27.4 62.8-27.4-62.8zm-106 0 34.8 47-34.8 47.6h28.2l20.6-28.2 20.6 28.2h28.2l-34.8-47.6 34.8-47h-28.2l-20.6 27.6-20.6-27.6zm-194 18.4c15.7 0 28.5 12.8 28.5 28.5s-12.8 28.5-28.5 28.5-28.5-12.8-28.5-28.5 12.8-28.5 28.5-28.5zm137 0c15.7 0 28.5 12.8 28.5 28.5s-12.8 28.5-28.5 28.5-28.5-12.8-28.5-28.5 12.8-28.5 28.5-28.5z" /></symbol><symbol id="gnome" viewBox="0 0 600 600"><path d="m486 10c-121 0-143 172-75.4 172 67.9 0 196-172 75.4-172zm-186 21.1a45.7 45.7 0 0 0 -6.05 .402c-67.9 8.81-44 127-7.87 129 35 2.14 73.3-129 13.9-130zm-117 46.7c-.535 0-1.08.017-1.63.052-3.29.212-6.85 1.06-10.7 2.65-54.6 22.5-8.28 115 22.3 109 27.7-5.65 31.7-109-8.39-112a24.2 24.2 0 0 0 -1.58 -.053zm-87.5 72.9c-4.74-.16-9.88 1.41-15.3 5.18-43.7 30.2 14.7 103 40.4 91.8 22.5-9.9 8.16-95.9-25.1-97zm241 55.8c-92.4 1.4-209 48.4-229 140-22.8 102 93.9 244 216 244 59.9 0 129-54.1 142-123 9.88-52.3-116-31.3-112 3.26 5.43 41.5-30.4 61.9-65.5 35.2-112-85.1 185-128 165-244-6.09-36.2-51.5-54.6-108-55.6-2.93-.049-5.88-.05-8.86-.005z" /></symbol><symbol id="google" viewBox="0 0 600 600"><path d="m85.4 210c-41.6 0-75.4 33-75.4 74s33.8 75 75.4 74c53.6 0 72.6-41 68.6-81h-68.6v21h47.6c-2 22-20 39-47.6 39-28.9 0-52.4-23-52.4-53 0-29 23.5-52 52.4-52 14 0 26.6 5 35.6 14l16-16c-13-13-32-20-51.6-20zm387 9.02v139h21v-139zm-51.9 43c-27 0-48 21-48 47 0 27 21 48 48 48 9 0 16-4 22-10 2 21-7 33-24 33-11 0-20-6-24-17l-20 9c8 17 25 28 44 28 28 1 46-21 45-48v-88h-21v7c-6-5-13-9-22-9zm129 0c-29 0-48 22-47 48-1 28 21 49 48 48 16 0 31-8 39-21l-16-12c-6 8-14 14-23 14-10 0-18-5-23-13l63-28c-6-20-21-34-41-36zm-338 1.03c-26 0-48 21-48 47 0 27 21 48 48 48s48-21 48-48c0-26-22-47-48-47zm104 0c-26 0-47 21-47 47s21 48 47 48c27 0 48-21 48-48 0-26-22-47-48-47zm105 18c14 0 24 13 24 28 0 16-10 28-24 28-15 0-27-12-27-28 0-15 12-28 27-28zm127 1c6 0 13 2 18 9 0 0-41 18-41 17-1-15 11-26 23-26zm-336 .03c14 0 26 13 26 28s-12 28-26 28-26-13-26-28 12-28 26-28zm104 0c15 0 27 12 27 28s-12 28-27 28c-14 0-26-13-26-28s12-28 26-28z" /></symbol><symbol id="googleg" viewBox="0 0 600 600"><path d="m307 10c-62.7.066-126 20.9-178 62-110 87.2-147 245-78.9 370 66.9 124 211 171 340 136 142-38 211-185 188-328l-.85.143h-273v111h157c-13.1 52-47.9 89.9-101 104-85.3 22.9-168-5.22-208-79.6-39.2-72.6-16.3-172 48.9-224 64.7-51.4 162-47.1 215 8.06l83.8-80.4c-48.8-50.9-114-77.4-181-80.3a282 282 0 0 0 -12.5 -.265z" /></symbol><symbol id="honor" viewBox="0 0 600 600"><path d="m18.2 229c-4.5 0-8.2 4-8.2 8v32c0 13 11.1 24 24.6 24h58.6c4.7 0 7.8 4 7.8 8v62c0 4 4 8 9 8 4 0 8-4 8-8v-62c0-13-11-24-24.8-24h-58.6c-4.7 0-8.2-4-8.2-8v-32c0-4-3.6-8-8.2-8zm143 48c-14 0-25 11-25 25v44c0 14 11 25 25 25h58c14 0 25-11 25-25v-44c0-14-11-25-25-25zm110 0c-5 0-9 4-9 8 0 5 4 8 9 8h66c5 0 9 4 9 9v61c0 4 3 8 8 8 4 0 8-4 8-8v-61c0-14-11-25-25-25zm134 0c-13 0-25 11-25 25v44c0 14 12 25 25 25h59c13 0 24-11 24-25v-44c0-14-11-25-24-25zm126 0c-13 0-24 11-24 25v61c0 4 3 8 8 8 4 0 8-4 8-8v-61c0-5 4-9 8-9h51c4 0 8-3 8-8 0-4-4-8-8-8zm-370 16h58c5 0 9 4 9 9v44c0 5-4 9-9 9h-58c-5 0-8-4-8-9v-44c0-5 3-9 8-9zm244 0h59c4 0 8 4 8 9v44c0 5-4 9-8 9h-59c-5 0-8-4-8-9v-44c0-5 3-9 8-9zm-387 12c-4.5 0-8.2 3-8.2 8v50c0 4 3.7 8 8.2 8 4.6 0 8.2-4 8.2-8v-50c0-5-3.6-8-8.2-8zm253 0c-5 0-9 3-9 8v50c0 4 4 8 9 8 4 0 8-4 8-8v-50c0-5-4-8-8-8z" /></symbol><symbol id="htc" viewBox="0 0 600 600"><path d="m10 202v97.6c0 53.7.462 98.1 1.03 98.7.563.563 6.97.837 14.2.608l13.2-.417.73-50.5c.668-46.2.963-50.8 3.48-54.8 4.44-6.97 8.58-11 14.4-14 4.9-2.52 8.92-2.78 42.1-2.78 40.3 0 42.7.453 51.3 9.73 9.3 10 9.26 9.74 9.74 63.7l.436 49.3h26.3l-.447-55.2-.445-55.2-4.79-9.73c-5.86-11.9-16.3-21.7-27.5-25.9-7.46-2.79-11.2-3-53.8-3-36.3 0-47.2.448-52.9 2.18-3.94 1.2-7.34 2.18-7.54 2.19s-.365-11.8-.365-26.3v-26.3zm466 48.2-10.3 5.14c-15.4 7.71-25.5 20.8-30.5 39.4-2.82 10.5-2.64 48.7.28 60 5.64 21.7 21.9 38.3 41.5 42.5 5.33 1.15 25.8 1.78 60.3 1.86l52.2.122v-27.6l-50-.453c-48.7-.44-50.2-.544-57.5-3.84-9.62-4.35-16-11-19.6-20.4-2.36-6.21-2.78-10.5-2.44-24.7.487-20 3.38-28.1 12.7-35.5 10.6-8.42 13.1-8.74 67.4-8.74h49.5v-27.8h-114zm-252 1.44v27.8h74.5v118h13.7c13.4 0 13.7-.074 14.6-3.67.507-2.02.876-28.5.82-58.8l-.104-55.1 37-.73 37-.73v-26.3l-88.8-.374-88.8-.378z" /></symbol><symbol id="huawei" viewBox="0 0 600 600"><path d="M260 30l.006.012.18-.012h-.186zm.006.012c-55.3 3.24-96.6 44-81.4 107 20.3 76.5 68.2 145 105 198 8.48-90.7 19.7-216-23.8-305zm78.5-.012l.18.012.006-.012h-.186zm.18.012c-43.6 88.7-32.3 214-23.8 305 37.1-52.8 85.1-121 105-198 15.7-63.1-26-104-81.4-107zm148 71.8l.373.938c-53 72-115 160-149 245 53.7-24.3 147-72 182-123 19.5-33.4 8.21-84.1-33.9-123zm-373 .938c-42.1 38.5-53.3 89.1-33.9 123 35.5 50.6 129 98.5 182 123-33.7-84.3-95.9-173-149-245l.371-.938zm451 137v.76c-71.3 40.3-148 78.6-213 127 67.4 1.22 136 2.61 157-5.45 34.1-10.2 78.6-73 55.9-122zm-527 .76c-22.6 48.6 21.9 112 55.9 122 21.9 8.07 90.1 6.67 157 5.45-65.1-48.4-142-86.6-213-127v-.76zm318 143l-.373.055c29.6 21.1 80.3 62.3 111 53.5 19-6.73 41.9-21.8 55.3-48.7-55.8-3.42-111-4.84-166-4.84zm-107 .055c-55.3 0-110 1.43-166 4.84 13.4 26.9 36.3 41.9 55.3 48.7 30.4 8.82 80.9-32.5 111-53.5l-.371-.057zm-116 96.3v47.5c-.23 34.3 12.9 42.9 44 43.1 35.4-1.02 41.4-13.3 41.5-43.7v-46.7h-21.8v49.2c.532 17.3-3.2 25.8-20.3 25.9-20.8-.687-21.6-11.4-21.6-26.9v-48.1l-21.8-.104zm-101 1.58v88.9h21.8v-38.8h42.4v38.8h21.8v-88.9h-21.8v35h-42.4v-35h-21.8zm283 0l25.3 88.9h23.9l21.3-66.4 21.2 66.4h23.3l25.9-88.9h-21.9l-16.4 62.1-18.8-62.1h-25.9l-19.6 61.1-16-61.1h-22.3zm236 0v88.9h21.8v-88.9h-21.8zm-286 .002l-41.8 88.9h23l8.94-20.3h43.1l9.29 20.3h23.5l-43.1-88.9h-22.9zm224 0c-20.2 0-36.5 19.9-36.5 44.5s16.3 44.5 36.5 44.5h47.9v-14.7h-39.9c-11.6 0-21.3-9.52-24-22.4h58.3v-14.7h-58.3c2.73-12.9 12.4-22.4 24-22.4h39.9v-14.7h-47.9zm-212 20.7l15 32.9h-29.5l14.5-32.9z"/></symbol><symbol id="hxalpha" viewBox="0 0 600 600"><path d="m10 10v580h580v-580zm29 29h522v522h-522zm29 29v203l114-43.2 64.6 81.5 107-78.9 103 60.9-60.3-163 80.3-60.6h-408zm286 223-107 78.9-103-60.9l60.3 163-80.2 60.5h408v-203l-114 43.2z" /></symbol><symbol id="hxbetaq" viewBox="0 0 600 600"><path d="m68 9.96c-32.1 0-58 25.9-58 58v464c0 32.2 25.9 58.1 58 58.1h464c32.1 0 58-25.9 58-58.1v-464c0-32.1-25.9-58-58-58zm.02 58h408s-70.8 28.4-80.3 60.6c-16.2 55.5 105 126 60.3 163-30.6 25.5-63-62.9-103-60.9-44.4 2.19-63.3 84.8-107 78.9-34.4-4.6-31.2-72.3-64.7-81.5-39.1-10.8-114 43.2-114 43.2zm284 223c36.4 4.76 33.2 72.4 66.7 81.6 39 10.7 114-43.2 114-43.2v203h-408s70.9-28.4 80.3-60.6c16.3-55.5-105-126-60.4-163 30.6-25.5 63 62.9 103 60.9 43-2.12 62.1-79.7 105-79z" /></symbol><symbol id="ie" viewBox="0 0 600 600"><path d="m344 53.7c-139-9.84-253 103-269 202 65.2-73.2 111-103 138-115-66.8 57.7-149 167-189 270-74.1 265 157 153 189 136 168 79.5 322-27.7 361-146h-137c-67.9 108-225 53-223-53.7h373c8.73-54.2-6.35-120-30.5-160 85.1-192-76.6-201-213-134zm207 123c-29.6-47.7-74.2-85-127-106 125-57.6 170 4.7 127 106zm-218-7.7c63.7 0 116 47.7 118 107h-235c2.08-59.6 54-107 118-107zm-249 231c20.3 58.5 60.9 108 113 139-167 80.4-168-42.5-113-139z" /></symbol><symbol id="ios" viewBox="0 0 600 600"><path d="m147 10c-75.7 0-137 60.9-137 137v307c0 75.7 60.9 137 137 137h307c75.7 0 137-60.9 137-137v-307c0-75.7-60.9-137-137-137zm110 191c57.8-.7 91.5 47 91.3 106-.2 52.2-26.6 106-92.7 106-56.2.2-92.6-44.6-92.7-106 0-51.6 25.8-105 94.1-106zm173 0c30.3 0 71.5 18.8 69.9 62.2h-22.6c-2.5-27.7-19.7-38.7-47.3-40.3-22.7-1.3-49 11.3-48.5 36.2.4 20.9 21.8 27.7 48.9 33.8 33.8 7.7 72.7 17.5 72.8 60 .1 37.8-33.8 60.1-73.2 60.3-38 .2-77.3-21.7-77-66.7h22.6c1.2 31.3 22.5 44.1 54.4 44.9 22.5.6 50.6-11.8 50.3-38.5-.4-24.7-28.1-31.1-50.3-36.4-33.9-8-71.3-17.4-71.5-57.4-.1-35.8 34.2-58 71.5-58.1zm-290 3.6c8 0 14.5 6.4 14.5 14.5 0 8-6.5 14.5-14.5 14.5s-14.5-6.5-14.5-14.5c0-8.1 6.5-14.5 14.5-14.5zm116 18.4c-47.2-.4-69.5 37.5-69.7 84.1-.3 38.9 17.5 82.8 69.7 84.2 43 1 69.3-36.8 69.8-84.2.4-38.5-14.9-83.6-69.8-84.1zm-128 34.2h23.6v156h-23.6z" /></symbol><symbol id="jianguo" viewBox="0 0 600 600"><path d="m451 87c-68 0-124 55-124 123 0 59 43 109 101 120 5 1 10-2 11-7 1-6-3-11-8-12-49-9-84-52-84-101 0-57 46-104 104-104 57 0 104 47 104 104 0 49-36 92-84 101-6 2-9 6-8 12 1 5 6 8 11 7 58-11 100-61 100-120 0-68-55-123-123-123zm1 30h-1c-6 0-10 4-10 9v75h-72c-6 0-10 4-10 10 0 5 5 9 10 9h72v136h-119c-6 1-10 5-10 10 0 6 5 10 10 10h62l-48 114c-2 6 1 11 5 13 6 2 11 0 13-5l51-122h36v126c0 6 5 10 10 10 6 0 10-5 10-10v-126h35l51 122c3 5 8 7 13 5s7-8 6-13l-48-114h62c6 0 10-5 10-10 0-6-5-10-10-10h-119v-136h72c6 0 10-4 10-9 0-6-5-10-10-10h-72v-75c0-5-4-9-9-9zm-418 82c-5.4 0-9.7 4-9.6 10v107c.2 6 4.4 10 9.7 10 5.7 0 9.8-5 9.8-10v-107c.1-6-4.5-10-9.9-10zm61.1 0c-5.3 0-9.7 4-9.6 10v107c.2 6 4.5 10 9.8 10 5.2 0 10.2-5 10.2-10v-107c0-6-5-10-10.4-10zm62.4 1c-7 0-12 8-9 14l62 107c4 6 13 6 17 0l62-107c3-6-2-14-9-14zm17 19h89l-44 77zm-17 79c-6 0-10 5-10 10v48h-115c-5.7 1-9.9 5-9.9 10 .2 6 4.8 10 9.9 10h115v56h-127c-5.7 1-9.8 5-9.9 10 .2 6 4.8 10 9.9 10h274c6 0 10-5 10-10s-5-10-10-10h-127v-56h115c5 0 9-5 9-10 0-6-4-10-9-10h-115v-48c0-6-5-10-10-10z" /></symbol><symbol id="ktouch" viewBox="0 0 600 600"><path d="m356 68.6c-33.6-.013-68 7.92-103 25.9-58.8 29-112 79.9-164 156-33 52.8-64.6 78.6-78.9 79.1 29.4 160 172 215 308 197 143-19.7 254-205 272-336-67.4-69.6-148-122-234-122zm-120 83.7c18.6-.087 35.3 18.2 29.2 39.5-45.6 108-17.6 168 45.8 231 22.1 37.2-19.4 64.4-47.8 37.2-77.9-62.5-98.7-217-53.2-293 7.48-10.6 17-15 26-15.1zm107 30.8a37.5 37.5 0 0 1 37.5 37.5 37.5 37.5 0 0 1 -37.5 37.5 37.5 37.5 0 0 1 -37.5 -37.5 37.5 37.5 0 0 1 37.5 -37.5zm-9.32 111a37.6 37.6 0 0 1 12.9 2.29l86.6 31.6c19.5 7.12 29.5 28.6 22.4 48.1-7.11 19.5-28.6 29.5-48.1 22.4l-86.6-31.6c-19.5-7.11-29.5-28.6-22.4-48.1a37.4 37.4 0 0 1 35.2 -24.7z" /></symbol><symbol id="le" viewBox="0 0 600 600"><path d="m121 10c-26.5 0-47.8 21.2-47.8 47.6v324c0 26.4 21.3 47.6 47.8 47.6h260c26.5 0 47.7-21.2 47.7-47.6s-21.3-47.6-47.7-47.6h-212v-276c-.001-26.4-21.3-47.6-47.7-47.6zm163 163c-26.5 0-47.7 21.2-47.7 47.6s21.3 47.6 47.7 47.6h194c26.5 0 47.7-21.2 47.7-47.6s-21.3-47.6-47.7-47.6zm0 321c-26.5 0-47.7 21.2-47.7 47.6s21.3 47.6 47.7 47.6h194c26.5 0 47.7-21.2 47.7-47.6s-21.3-47.6-47.7-47.6z" /></symbol><symbol id="lemeng" viewBox="0 0 600 600"><path d="m223 137c12.2 0 12.1-5.6 20-14.7 12.5-14.5 23.8.7 15.5 11.9-8.5 11.6-15.8 22.4-29.5 22.4h-106c-16.6 0-15-.7-24.8 9.9-11.2 12-10.6 10.9-10.6 27.5v40c0 9.5 4.2 10.4 12 10.4h72.3v-28.2c0-25.3 19.6-19.8 19.6 0v28.2h90.7c19 0 18.6 19.7 0 19.7h-90.7v130c0 19.7-19.6 19.8-19.6 0v-130h-86.5c-12.6 0-17.5-2.4-17.5-16.5v-42c-26.1 41.7-38.6 87.8-35.9 132-18.7 21.1-25.6 40-20.6 55.2 5 15 21.1 26.4 47.1 32.7 57.9 97.2 193 135 318 90.6 55.8-20 104-54.7 139-98.7 10-12.1 0-24.3-13.1-42.5-4.3-6.3-1.7-12.7 3.4-18.3l28-29.2c13.3-14 24.1 3 14.1 13.5l-20.3 21.2c-4.3 4.6-4 9.6 0 15.5 7.8 12 8.6 10 14.2 0 14-27 23-56 25.5-84.8 1.2-14 2.5-16.5-4.4-28.4l-15.5-26.7c-4.5-7.7-7-13.6-17.5-13.6h-167v213c0 25-19.6 19.8-19.6 0v-213h-26.9c-19 0-18.6-19.7 0-19.7h26.9v-33c0-22 19.6-19.8 19.6 0v33h122v-14.9h-34c-.6 16.2-19.6 16.4-19.4 0h-41.7c-20 0-18.8-19.7 0-19.7h41.7v-7.7c0-19.1 19.6-17 19.6 0v7.7h33.8v-7.7c0-17.6 20-15.4 20 0v7.7h20c7 0 7.7-7.5 4.5-11.7-44-57-118-93-202-92.7-76 .3-144 28.3-199 71.5zm282 52.6v14.9h25c6.4 0 20.5-.6 27.6 11.6l13.7 23.7c7.7 13.4 9.5 6 13.9-3.7 4.9-10.9 6-21 3.1-29.9-3.7-11.3-13.7-20.8-29.6-26.9-16.7-6.4-13 10.3-32.4 10.3zm-177 58.4v112c0 21.1-19.6 19.8-19.6 0v-112c0-19 19.6-18.5 19.6 0zm162-3.2c17.6 0 16 19.7 0 19.7h-95.7c-13.4 0-14.9-19.7 0-19.7zm41 33.7c22.8 0 19.5 19.7 0 19.7h-45.6v137c0 20.7-19.6 17.5-19.6 0v-137h-76.9c-20.7 0-18.6-19.7 0-19.7zm-444 45.1v75.7c0 19.2-19.6 15.4-19.6 0v-75.7c0-19.1 19.6-15.4 19.6 0zm350 13.3-43.3 30.7c-20.7 14.7-26.5-5.2-11.3-16l43.3-30.7c19-13.4 28.2 4 11.3 16zm-181-9c21.6 0 39.2 17.5 39.2 39.3 0 21.7-17.6 39.3-39.2 39.3-21.7 0-39.2-17.5-39.2-39.3 0-21.7 17.6-39.3 39.2-39.3zm0 16.6c-12.5.001-22.6 10.1-22.6 22.7 0 12.5 10.1 22.7 22.6 22.7s22.6-10.1 22.6-22.7c0-12.5-10.1-22.7-22.6-22.7zm181 35.1-43.3 30.7c-20.7 14.7-26.5-5.2-11.3-16l43.3-30.7c19-13.4 28 4 11.3 16z" /></symbol><symbol id="lenovo" viewBox="0 0 600 600"><path d="m10 240v118h82.1v-22.9h-56.8v-95.2zm133 25.7c-27.5 0-48.2 20.3-48.2 47 0 27.5 20.8 47 50.9 47 16.9 0 34.2-8.01 42.3-17.4l-15.8-12.1c-10.5 7.78-16.5 9.64-26.1 9.64-8.63 0-15.4-2.68-20.2-7.37l63.9-26.5c-1.39-9.87-5.14-18.7-10.9-25.4-8.39-9.74-20.8-14.9-35.9-14.9zm206 0c-27.5 0-49.1 20.7-49.1 47 0 26.7 21.4 47 48.7 47 27.5 0 49.1-20.7 49.1-47 0-26.7-21.4-47-48.7-47zm192 0c-27.5 0-49.1 20.7-49.1 47 0 26.7 21.4 47 48.7 47 27.5 0 49-20.7 49-47 0-26.7-21.4-47-48.7-47zm-288 .005c-10.5 0-22.4 4.85-29.7 14.6l.005-13h-25v91h25v-51.8c0-9.32 7.22-19.2 20.6-19.2 10.3 0 21 7.19 21 19.2v51.8h25v-56.4c0-20.9-15-36.1-36.9-36.1zm141 1.53 37.4 90.9h27.4l37.4-90.9h-28.5l-22.6 62-22.6-62zm-251 18.3c9 0 15.8 5.14 19.4 12.7l-43.6 18.1c-1.19-9.29 1.18-16.6 5.06-21.8 4.25-5.71 11-9.07 19.2-9.07zm206 1.53c13.7 0 24.4 11.2 24.4 25.6 0 14.7-10.1 25.6-24.1 25.6-13.7 0-24.4-11.3-24.4-25.6 0-15 10.1-25.6 24.1-25.6zm192 0c13.7 0 24.4 11.2 24.4 25.6 0 14.7-10.1 25.6-24.1 25.6-13.7 0-24.4-11.3-24.4-25.6 0-15 10.1-25.6 24.1-25.6z" /></symbol><symbol id="lg" viewBox="0 0 600 600"><path d="m300 10c-160 0-290 130-290 290s130 290 290 290 290-130 290-290-130-290-290-290zm-.023 48.3c2.82 0 8.58.034 11.5.17v22.5c-2.62-.068-8.82-.138-11.5-.138-58.5 0-113 22.8-155 64.2-41.4 41.4-64.2 96.5-64.2 155s22.8 114 64.2 155c41.4 41.4 96.4 64.1 155 64.1 116 0 211-90.4 219-204v-3.23h-150v-22.5h173v11c0 64.5-25.1 125-70.7 171-45.7 45.7-106 70.8-171 70.8-64.5 0-125-25.1-171-70.8-45.6-45.6-70.6-106-70.6-171 0-133 108-242 242-242zm-82.8 120c19.2 0 34.8 15.6 34.8 34.7s-15.6 34.7-34.8 34.7c-19.1 0-34.7-15.6-34.7-34.7 0-19.2 15.6-34.7 34.7-34.7zm81.1.068h23v232h57.7v22.7h-80.8v-254z" /></symbol><symbol id="liebao" viewBox="0 0 600 600"><path d="m300 10c-160 0-290 130-290 290s130 290 290 290 290-130 290-290-130-290-290-290zm-106 300c29-1.93 54.1 20 56 49 1.93 29-20 54.1-49 56-2.56.148-5.12.11-7.67-.115l38.3 38.2c8.55-29.2 48.8-68.4 74-79.3 16.3-7.11 62.3-26.2 80.1-55.7 27.3-45.3-5.36-79.8-26.3-103 51.9-28.1 133-11.5 185 11.8-59.7-20.2-142-23.4-171-8.18 25.3 29.2 40.9 65.1 21.7 96.8 52.3-14.1 98.8 16.5 111 53.9 21.3 65-24.4 144-84.9 174-37.3 18.4-78.4 28.8-121 28.9-150 .043-272-122-272-272s122-272 272-272c46.4.01 92.1 12 133 34.7-45.1 14.9-82.9 27-82.9 27-20.8-8.14-45.6-9.25-65.8-.179l14.6 24.1-3.91-17.4c22.3 3.5 35.9 18.9 39.6 47.4-7.3-11.4-15.3-34.7-25.6-31-22.8 8.18-97.9 60.9-123 96.1-17.4 24.1-24.3 43.9-8.54 59.3-32.9 21.9-59.5 44.9-63.8 50.3-4.14 5.3-4.94 11.8.084 16.8l32.1 32c-1.93-29 19.9-54.9 48.9-56.8zm67-115-31.8 57.8-28.4-.551z" /></symbol><symbol id="linux" viewBox="0 0 600 600"><path d="M300 10c-160 0-290 130-290 290s130 290 290 290 290-130 290-290-130-290-290-290zm-65 510c-15 3.2-33 0-50-9.6-18-8.8-38-8-54-11-21-4.8-24-16-16-40 2.3-8-2.1-21-1.8-30 .08-14 7.3-18 19-24 13-4.8 21-14 31-26-2.4-15 0-32 5.6-48 11-34 35-67 52-88 15-21 19-37 21-58 .8-29-21-120 72-120 71 .7 68 79 67 120 0 27 15 45 30 65 14 17 32 40 42 68 8 22 11 46 3.2 71 13 3.2 14 14 17 25 1.6 7.2 3.2 14 6.4 18 10 11 21 30 1.6 43-14 8-34 14-46 29-13 15-29 24-43 26-19 1.7-34-11-39-27-29-2.5-61-7.6-95-1.4-4.8 9.6-13 16-23 18zm87-390c-18 .96-25 22-24 35l12 4c.11-7.6 2-22 12-21 13 4.2 9.5 22 3.6 29l11 4.4c1.6-1.6 3.2-4 4-6.4 6.1-17 .51-44-19-45zm-66 52l6.4-4.8c-5.3-6.1-9.2-19-2-24 9.4-3.4 12 9.6 12 16l8.6-4.2c-1.1-12-3.1-30-16-30-21 2.9-19 38-8.6 47zm-8.2 13c-.74 13 34 34 44 35 16-.73 45-21 51-30 .68-2.3.76-4.2.4-5.9-1-4.8-5.7-7.7-10-11-16-3.2-28-17-44-16-9.3.74-40 18-42 28zm50-21c.89.044 1.9.27 2.7.72 4.9 2.6.37 4.9-2.9 3.1-4.4-2.4-2.5-4 .18-3.8zm-17 .018c2.2.034 3.3 1.2-.76 3.1-5.5 3.1-6.6-1.8-2.4-2.4 1-.5 2.2-.72 3.2-.71zm6.2 41c-11-.24-29-9.1-34-19-1.3-3.8 1.9-3.3 3.1-.85 5.5 9.6 24 17 31 17 12 .33 29-9.6 39-18 7-8.9 7.5-3 3.1 2.2-12 10-26 20-42 19zm56-3.6c-16 12-34 27-52 27-15 .18-30-12-38-20-1.6 34-25 77-35 100-8 18-12 37-13 55-29-20 6.2-73 11-93-23 45-32 60-25 85 3.2 10 10 20 22 27 17 10 28 21 34 30 7.2 8.8 8.8 17 7.2 22-2.4 5.6-8.8 8-15 8 4 5.6 8.8 11 13 18 34 24 75 14 100-5.6 3.2-10 5.6-20 6.4-30s.8-22 4-33c2.4-9.6 7.2-19 19-26 2.8-17 17-18 35-10l3 1.2c18 8 24 14 21 24h4c3.2-12-2.4-19-28-32 6.7-22-15-77-33-85 11 11 35 54 25 83-4-.8-7.2-1.6-9.6-1.6-4.8-26-16-48-22-58-10-19-27-59-34-86zm44 170l.051.46c.31-.15.62-.31.95-.46zm.051.46c-6.6 3.3-10 8.8-13 19-2.4 9.6-3.2 22-4 34 0 13-5.6 26-8.8 38s-4.8 26-.8 33c6.4 14 18 18 30 18 13-.8 27-8.8 39-23 14-17 36-23 48-30 14-8.8 8.8-22-2.4-34-5.6-5.6-5.5-14-8-21-7-20-13-22-28-22-7.2 8-24 18-35 14-9.9-2.4-16-14-17-26zm-250 33c-9.1 3.2-13 7.2-14 13-2.5 12 4 25 .64 37 0 0-.12.54-.078.8 1.6 9.7-7.2 24 12 27 18 4 38 2.4 55 12 17 8.8 34 12 46 8.8 12-3 15-8.6 22-21 1.6-23-28-41-37-62l-18-33c-6.9-8.8-14-14-22-14-4.4-.035-8.9 1.9-14 6.1-15 17-9.1 18-31 26z"/></symbol><symbol id="macos" viewBox="0 0 600 600"><path d="m300 10c-162 0-290 128-290 290s128 290 290 290 290-128 290-290-128-290-290-290zm16.7 154c13 0 24.2 6.2 24.6 19.9v42h-11.8v-10.2c-5 7-11.7 10.8-19.5 10.8-11.1.1-20.6-7.1-20.6-18.1 1.1-13.9 12.7-17.1 23.3-17.9l16.5-.9c.6-10.2-3.1-15.5-12.8-15.6-5.8.1-11.4 3-12.6 8.8h-11.4c.8-12.8 13.4-18.9 24.3-18.8zm66.2 0c13.3-.1 25.1 8.5 26.3 21.6h-11.6c-1.5-7.4-7.7-11.4-14.6-11.3-11.6.1-16.3 11.3-16.4 21-.1 10.5 5.5 21 16.5 21.1 7.5 0 13.2-4.6 14.6-11.1h11.7c-1.6 13.9-13.8 21.3-26.4 21.3-18.4.1-28.6-14.9-28.7-31.3-.2-17.6 11.6-31.3 28.6-31.3zm-163 .1c8.2.1 14.8 4.9 17.3 11.8 3.6-7.7 11.3-11.7 19.3-11.8 12.1-.2 19.7 8.1 19.9 20.1v41.7h-12.2v-38.7c0-7.8-5.3-12.6-11.9-12.7-7.7.2-12.8 6.3-12.8 13.5v37.9h-12v-39.8c-.1-7-5.1-11.5-11.7-11.6-7.4.3-13.4 6.8-13.5 13.9v37.5h-11.7v-61.1h11.7v10.3c3.2-7.1 10.2-11 17.6-11zm109 34-14.8 1.1c-6 .3-12.6 2.9-12.7 9 .4 6.4 6.6 8.5 11.6 8.6 6.1-.1 12.1-2.9 14.7-8.3 1.5-3.5 1.2-6.5 1.2-10.4zm-112 66.3c53.5 0 86.9 37.3 86.9 96.6 0 59.2-33.4 96.4-86.9 96.4s-87-37.2-87-96.4c0-59.3 33.5-96.6 87-96.6zm178 0c38.6 0 65.5 22.1 66.5 54h-26.2c-1.9-19.2-17.5-31-40.8-31-23.2 0-39.2 11.9-39.2 29.2 0 13.5 10.1 21.6 34.7 27.8l20.1 5c38.5 9.4 54.3 24.5 54.3 51.7 0 34.7-27.5 56.3-71.2 56.3-40.8 0-68.5-21.4-70.4-54.9h26.5c2.1 19.2 20.6 31.9 46 31.9 24.3 0 41.8-12.7 41.8-30.1 0-15-10.6-24.1-35.2-30.3l-24-5.9c-34.4-8.6-50.1-24.2-50.1-50 0-31.7 27.7-53.7 67.2-53.7zm-178 23.8c-36.6 0-59.5 28.1-59.5 72.7s22.9 72.7 59.5 72.7c36.5 0 59.5-28.1 59.5-72.7s-23-72.7-59.5-72.7z" /></symbol><symbol id="maxthon" viewBox="0 0 600 600"><path d="m68 10c-32.1 0-58 25.9-58 58v464c0 32.1 25.9 58 58 58h464c32.1 0 58-25.9 58-58v-464c0-32.1-25.9-58-58-58zm54.7 168h274c44.3-.079 80 36 80 80.3v165l-85.7-.125v-159h-183v159l-86 .125zm134 136h86.1v109h-86.1z" /></symbol><symbol id="meilan" viewBox="0 0 600 600"><path d="m57.9 160v26.4h-35v122h49.6c-7.16 48.6-31.4 86.4-62.5 120l12 12c30.9-33.5 57.8-71.8 65.9-132h58.4v-122h-73.3v-26.4zm163 0v26.7h-56.8v16.9h56.8v37.6h-56.8v16.9h56.6c-16.6 30.1-35 54.7-55.7 72.5 3.97 3 7.04 7.36 9.52 12.6 19.2-15.3 33.6-36.1 46.4-63.3v111h14.9v-112c9.47 26.4 25.9 47 49.5 65.6 3.03-4.55 6.5-8.92 10.6-13-24.7-17.6-41.6-45-58-73h55.2v-16.9h-57.4v-37.6h57.4v-16.9h-57.4v-26.7zm162 0v26.4h-46.8v15h46.8v21.1h14.9v-21.1h131v21.1h14.9v-21.1h46.8v-15h-46.8v-26.4h-14.9v26.4h-131v-26.4zm-344 41.8h39.1v37.1h-39.1zm53.5 0h38.1v37.1h-38.1zm263 33.2v81.6h14.9v-81.6zm67.4 0v81.6h14.9v-81.6zm39.6.812v38h108v-15h-93.1v-23zm-424 17.6h38.4l-2.66 39.2h-35.7zm53.8 0h37.8v39.2h-40.4zm383 48.2v15h94.6v-15zm-384 22.2v81c.407 11.9 10.5 26 22.9 26.5h150c18.6-.607 30-7.65 33-20.1l8.28-34.4-15.4-4.7-8.08 33.5c-3.11 6.57-8.38 10.2-16.6 10h-144c-7.26-.536-14.7-6.71-14.7-16.6v-75.2zm40.2 0v67.2h67.5v-14.8h-52.5v-52.4zm224 11.1v82h-19.8v15h255v-15h-19.8v-82h-215zm15.4 15.2h51.4v66.5h-51.4zm66.4 0h51.4v66.5h-51.4zm66.4 0h51.4v66.5h-51.4z" /></symbol><symbol id="meizu" viewBox="0 0 600 600"><path d="m21.8 249-11.8 11.8v89.7h20.8v-77.9a6.8 6.8 0 0 1 6.82 -6.82h35.8v84.8h20.8v-84.8h35.8a6.8 6.8 0 0 1 6.82 6.82v77.9h20.8v-85.8c0-8.69-7-15.7-15.7-15.7h-120zm173 0a16.3 16.3 0 0 0 -16.3 16.3v68.7a16.3 16.3 0 0 0 16.3 16.4h88.9v-16.9h-77.5a7.02 7.02 0 0 1 -7.03 -7.03v-17.6h79.9v-18.4h-79.9v-17.6a7.02 7.02 0 0 1 7.03 -7.03h77.5v-16.9h-88.9zm110 0v101h20.8v-101zm173 0v84.5a17 17 0 0 0 17 17h85l11.1-11.1v-90.4h-20.8v77.8c0 3.43-2.77 6.2-6.2 6.2h-59.1a6.19 6.19 0 0 1 -6.2 -6.2v-77.8zm-127 .11v17.5h74.3l-76.2 68.6a8.75 8.75 0 0 0 5.85 15.3h97.4v-17.5h-74.6l76.2-68.6a8.75 8.75 0 0 0 -5.85 -15.3h-97.2z" /></symbol><symbol id="meizuicon" viewBox="0 0 600 600"><path d="m298 10c-139 0-252 113-252 252 0 69.5 26.9 141 73.7 193 49.6 54.8 106 103 178 135 71.7-32.7 129-80.5 178-135 46.9-51.8 73.7-123 73.7-193 0-139-113-252-252-252zm-103 180h206a27.8 27.8 0 0 1 27.8 27.8v152h-36.8v-138a12.1 12.1 0 0 0 -12.1 -12.1h-63.6v150h-36.8v-150h-63.6a12.1 12.1 0 0 0 -12.1 12.1v138h-36.8v-152a27.8 27.8 0 0 1 27.8 -27.8z" /></symbol><symbol id="mi" viewBox="0 0 600 600"><path d="m10 110v380h89.2v-300h194c25 .907 44.2 30.2 44.2 49.9v250h89.2v-282c-.635-47.9-53.3-97.6-89.5-98.3zm491 0v380h89.2v-380zm-327 149v231h89.2v-231z" /></symbol><symbol id="micromax" viewBox="0 0 600 600"><path d="m304 75.5a56.7 56.7 0 0 0 -11.3 1.06c-30.4 5.96-50.1 35.3-44.2 65.7l47.6 243c5.96 30.4 35.3 50.1 65.7 44.2 30.4-5.96 50.1-35.3 44.2-65.7l-47.6-243c-5.21-26.6-28.3-45-54.4-45.2zm134 7.09a56.6 56.6 0 0 0 -11.3 1.06c-30.4 5.96-50.1 35.3-44.2 65.7l38.6 197c5.96 30.4 35.3 50.1 65.7 44.2 30.4-5.96 50.1-35.3 44.2-65.7l-38.6-197c-5.21-26.6-28.3-45.1-54.4-45.2zm-252 53.1a56.6 56.6 0 0 0 -11.3 1.06c-30.4 5.96-50.1 35.3-44.2 65.7l38.6 197c5.96 30.4 35.3 50.1 65.7 44.2 30.4-5.96 50.1-35.3 44.2-65.7l-38.6-197c-5.21-26.6-28.3-45.1-54.4-45.2zm-120 62.9a56.6 56.6 0 0 0 -11.3 1.06c-30.4 5.96-50.1 35.3-44.2 65.7l26.5 135c5.96 30.4 35.3 50.1 65.7 44.2 30.4-5.96 50.1-35.3 44.2-65.7l-26.5-135c-5.21-26.6-28.3-45-54.4-45.2zm468 200a56.6 56.6 0 0 0 -11.3 1.06l-73.6 14.4c-30.4 5.96-50.1 35.3-44.2 65.7 5.96 30.4 35.3 50.1 65.7 44.2l73.6-14.4c30.4-5.96 50.1-35.3 44.2-65.7-5.21-26.6-28.3-45-54.4-45.2z" /></symbol><symbol id="microsoft" viewBox="0 0 600 600"><path d="m10 10v261h261v-261zm319 0v261h261v-261zm-319 319v261h261v-261zm319 0v261h261v-261z" /></symbol><symbol id="midori" viewBox="0 0 600 600"><path d="m534 10c-76 13.5-405 53.1-479 301-22.8 81.9-9.61 199 84.8 201-9.39-53.5-6.78-119 25.7-171 2.72-6.87 14.1-5.56 11.9 4.45-23.2 38.2-40.5 102-22.5 179 25.5 54.5 103 90.3 156 42.3-37.3-81.4-17.9-165-4.24-187 3.52-6.93 15.1-2.64 11.1 6.06-26.4 46.9-19.5 120 6.09 179 38.6 24.5 81.8 24.7 115-5.04 53.7-49.9 80.7-137 94.3-205 12.4-77.9 28.7-181 21.4-263-1.89-12.4-8.56-16.9-16.3-10.1-86.7 83.1-152 127-194 144-16.1 5.81-56.2 20.1-56.9-8.44-.173-18.9 19.8-55.6 62-93.1 41.8-37.1 105-75.8 189-104 6.82-4.94 1.73-13.1-3.92-12.4z" /></symbol><symbol id="mobile" viewBox="0 0 600 600"><path d="m158 10a32.1 32.1 0 0 0 -32.2 32.2v516c0 17.8 14.4 32.2 32.2 32.2h284c17.8 0 32.2-14.4 32.2-32.2v-516c0-17.8-14.4-32.2-32.2-32.2zm212 23.5a4.88 4.88 0 0 1 4.88 4.88 4.88 4.88 0 0 1 -4.88 4.88 4.88 4.88 0 0 1 -4.88 -4.88 4.88 4.88 0 0 1 4.88 -4.88zm-116 .836h91.4a4.72 4.72 0 0 1 4.73 4.73v.294a4.72 4.72 0 0 1 -4.73 4.73h-91.4a4.72 4.72 0 0 1 -4.73 -4.73v-.294a4.72 4.72 0 0 1 4.73 -4.73zm-89.2 36.1h270v446h-270z" /></symbol><symbol id="moto" viewBox="0 0 480 480"><path d="m238 8.01a237 237 0 0 0 -17.5 .767c-36.6 3.06-72.3 14.9-103 34.4-40 25.1-72.3 62.5-90.6 106-20 46.5-23.7 99.6-11.2 149 12.7 50.2 42.9 95.6 84.2 127 39.6 30.4 89.4 47.5 139 47.4 49.1.635 98.2-15.2 138-44.2 31.3-22.7 56.8-53.4 73.3-88.3 27.5-57.4 29.5-126 5.87-185-19.1-48.3-55.2-89.7-100-115-35.4-20.7-76.4-30.9-117-30.7zm-65.5 58.5c18.3 62.3 36.9 125 55.3 187 4.4 13.3 7.21 27.2 12.6 40.2 18-59.6 35.4-119 53.2-179 4.89-15.6 8.73-31.6 14.4-47 29.5 95.9 58.9 192 88 288-5.32.127-10.6.11-16 .031-5.73-23.7-12.7-47.2-23.2-69.3-6.27-12.9-14.5-25.7-26.8-33.6-11.8-7.63-27.9-9.52-40.6-2.66-7.17 3.57-12.7 9.55-18.1 15.4-14.1 16.1-22 36.2-31.2 55.2-9.06-17.7-16.1-36.8-28.9-52.2-7.33-9.11-16.1-18.1-27.7-21.3-13-3.52-27.2.366-37.6 8.68-11.2 8.82-18.5 21.5-24.4 34.2-9.57 21.1-15.8 43.4-21.8 65.7-5.19-.096-10.4-.111-15.6-.238 29.3-96.4 59.1-193 88.3-289z" /></symbol><symbol id="netscape" viewBox="0 0 600 600"><path d="m300 10a290 290 0 0 0 -290 290 290 290 0 0 0 25.7 118c38-9.1 77.2-17.3 110-22v-225c-14.8-21.3-26.3-23.4-50.7-26.6v-6.74l87.7.853 209 232v-197c-1.24-14.1-21.1-31.1-53.5-30.2l-1.27-8.94h122v8.94c-36 3-47.3 16.1-47.4 22.9v230c53.4 8.53 101 19.4 147 32.8a290 290 0 0 0 30.8 -129 290 290 0 0 0 -290 -290zm-132 186v198c57.5-6.64 115-7.92 172-4.32-47.6-53.5-138-155-172-193zm122 218c-39.5-.013-78.8 2.28-119 7.99 5.7 11.5 12.8 22.6 45 25.3v8.91h-124l1.27-8.91c25.5.71 39-7.62 47.3-20-33.7 6.28-59.5 13.7-88.1 23.2a290 290 0 0 0 247 139 290 290 0 0 0 256 -154c-92.1-10.4-179-21.6-266-21.6z" /></symbol><symbol id="nokia" viewBox="0 0 600 600"><path d="m248 321 1.75-1.38v-18.5c0-11.9-.258-19.1-.722-20.1-1.73-3.79-1.82-3.8-34.2-3.8h-29.7l-1.94 1.94-1.94 1.94v17.7c0 18.6.363 21.3 3.1 22.9.822.477 11.2.72 31.6.733 29.7.02 30.4-.009 32.1-1.36zm-81.5 23.8c-6.82-2.83-9.53-5.38-12.5-11.8l-2.06-4.4.186-29.2.187-29.2 1.79-3.83c2.37-5.05 7.68-10.6 12-12.6l3.46-1.56 42.5-.19c46.9-.21 47.4-.175 53.8 3.94 4.04 2.59 6.6 5.87 8.41 10.7 1.38 3.73 1.43 4.8 1.42 34.3l-.007 30.4-1.58 3.33c-2.02 4.26-5.04 7.1-10.1 9.44l-3.99 1.86-44.9.165-44.9.164-3.73-1.55zm369-37.2c-.715-1.19-4.38-7.85-8.14-14.8s-6.97-12.8-7.12-13c-.378-.446-.818.348-8.95 16.1l-7.12 13.8h32.6zm-87.3 39.1c0-.233 29.8-55 36.4-66.8.891-1.61 4.78-8.71 8.64-15.8l7.02-12.9h19.5c19.5 0 19.5 0 20.5 1.5 1.78 2.76 50.3 93.2 50.3 93.7 0 .299-7.86.543-17.5.543h-17.5l-4.88-8.31-4.88-8.31h-52.3l-4.76 8.31-4.76 8.31h-17.9c-9.85 0-17.9-.132-17.9-.293zm-32.8-15.8c-.242-8.84-.44-30.2-.44-47.5v-31.4l14.3-.48c7.85-.265 14.6-.29 15-.055.466.288.69 15.9.69 47.9v47.5h-29.1l-.44-16.1zm-128-31.8v-47.9h28.6v21c0 20.5.034 21 1.3 20.8.714-.117 11.5-9.42 24-20.7l22.7-20.5h40.8l-1.65 1.57c-.906.862-12.1 11.1-24.8 22.7s-22.9 21.4-22.6 21.6c.985.91 53 45.3 55.4 47.3l2.31 1.91h-44.4l-2.42-2.11c-1.33-1.16-5.41-4.86-9.07-8.22-27.8-25.5-38.3-34.9-39.2-34.9-.934 0-1.05 2.47-1.05 22.6v22.6h-29.9zm-277 .665v-47.9l24.8.012 24.8.011 25.9 31.7 25.9 31.7.173-32 .173-32 15.5.179 15.5.178.17 47.7.171 47.7-25.1-.174-25.1-.175-18.9-23.3c-10.4-12.8-21.9-27.1-25.7-31.7l-6.77-8.46-.173 32.2-.171 32.2h-31.2z" /></symbol><symbol id="nubia" viewBox="0 0 600 600"><path d="m287 228c-7.6 0-13.8 6.16-13.8 13.8 0 7.6 6.17 13.8 13.8 13.8 7.6 0 13.8-6.16 13.8-13.8 0-7.6-6.17-13.8-13.8-13.8zm-218 13.9c-32.8 0-59.3 26.5-59.3 59.1v59.4c13.2 0 24.6-11.2 24.6-24.5v-34.8c0-19.2 15.5-34.8 34.8-34.8 19.2 0 34.8 15.6 34.8 34.8v34.8c0 13.3 10.8 24.2 24.2 24.2v-59.1c0-32.7-26.6-59.1-59.3-59.1zm72.6 0v59.4c0 32.7 26.5 59.1 59.3 59.1 32.7 0 59.3-26.5 59.3-59.1v-59.1c-13.5 0-24.2 10.9-24.2 24.2v34.8c0 19.2-15.6 34.8-34.8 34.8-19.3 0-34.8-15.6-34.8-34.8v-34.8c0-13.3-11.4-24.5-24.6-24.5zm205 0c-32.7 0-59.3 26.5-59.3 59.3 0 32.7 26.5 59.3 59.3 59.3 32.7 0 59.3-26.5 59.3-59.3 0-32.7-26.5-59.3-59.3-59.3zm97.1 0c-13.6 0-24.5 10.9-24.5 24.3v94.2c13.6 0 24.5-10.9 24.5-24.3zm72.6 0c-32.7 0-59.3 26.5-59.3 59.3 0 32.7 26.5 59.3 59.3 59.3 32.7 0 59.3-26.5 59.3-59.3 0-32.7-26.5-59.3-59.3-59.3zm-170 24.4c19.3 0 34.8 15.6 34.8 34.9s-15.6 34.9-34.8 34.9c-19.3 0-34.8-15.6-34.8-34.9s15.6-34.9 34.8-34.9zm170 0c19.3 0 34.8 15.6 34.8 34.9s-15.6 34.9-34.8 34.9c-19.3 0-34.8-15.6-34.8-34.9s15.6-34.9 34.8-34.9zm59.6 80.4c-7.6 0-13.8 6.16-13.8 13.8 0 7.6 6.17 13.8 13.8 13.8 7.6 0 13.8-6.16 13.8-13.8 0-7.6-6.17-13.8-13.8-13.8z" /></symbol><symbol id="oneplus" viewBox="0 0 600 600"><path d="m465 10v73.7h-73.7v50.9h73.7v73.7h50.9v-73.7h73.7v-50.9h-73.7v-73.7zm-455 73.7v506h506v-331h-50.9v280h-405v-404h280v-50.9zm177 126v53.3h50.9v149h-50.9v49.7h153v-49.7h-50.9v-202h-102z" /></symbol><symbol id="operaneon" viewBox="0 0 600 600"><path d="M300 10c-77 0-151 30.5-205 85-54.4 54.5-85 128-85 205s30.5 151 85 205c54.5 54.4 128 85 205 85s151-30.5 205-85c54.4-54.4 85-128 85-205s-30.5-151-85-205c-54.4-54.4-128-85-205-85zm0 35.7c12.7.106 25.3 1.16 37.8 3.16-11.7 1.93-22.8 4.83-33.3 8.57-105 55.9-160 131-162 242-1.5 104 76.3 210 162 242 10.4 3.93 21.6 6.8 33.3 8.68-12.5 1.96-25.2 2.98-37.8 3.05-67.2 0-132-26.8-180-74.4-47.6-47.6-74.4-112-74.4-180 0-67.6 26.8-132 74.4-180 47.6-47.6 112-74.4 180-74.4zm68.7 35.7c34.3-.132 68.7 9.06 95.5 25.2 57.4 49.1 89.5 119 89.5 193-.03 74-32.6 145-90.2 193-49.1 30-109 36.1-148 16.7-94-47.6-138-115-140-210-1.3-89.1 68.7-183 140-210 16.8-5.55 34.7-8.16 52.9-8.23zm25.4 90.6c51 83.5 42.3 185 .03 255-5.14 8.08-2.65 18.8 5.48 23.8 8.13 5.02 18.8 2.39 23.7-5.82 49.1-80.1 58.2-195 .03-290-2.97-5.02-8.31-8.19-14.8-8.38-13.7.434-21.6 15-14.5 26.2z"/></symbol><symbol id="opera" viewBox="0 0 600 600"><path d="m300 10c-150 0-270 129-270 290s120 290 270 290 270-129 270-290-120-290-270-290zm0 69c52 0 96 67 96 221s-44 221-96 221-96-67-96-221 44-221 96-221z" /></symbol><symbol id="operanew" viewBox="0 0 600 600"><path d="m300 10a290 290 0 0 0 -290 290 290 290 0 0 0 290 290 290 290 0 0 0 290 -290 290 290 0 0 0 -290 -290zm78.2 39c36.1.076 71.6 9.67 104 27.9a207 207 0 0 0 -67.7 -11.3c-32.3.089-64.2 7.76-93.4 22.5 77.4 12 136 103 136 212-.094 109-58.6 200-136 212 29.2 14.7 61.1 22.4 93.3 22.5 23.7 0 46.6-4.01 68-11.4-32.1 18.4-67.7 28-104 28.1-125 0-227-112-227-251s102-251 227-251z" /></symbol><symbol id="oppo" viewBox="0 0 600 600"><path d="M76.5 254c-36.9 0-66.9 15-66.9 33.5s30 33.5 66.9 33.5 66.9-15 66.9-33.5-30-33.5-66.9-33.5zm118 4.18v10.2c7.14-2.74 16.3-4.36 25.8-4.36 23.9 0 43.2 10.2 43.2 22.7-.001 12.5-19.3 22.7-43.2 22.7-17.1 0-31.8-5.2-38.8-12.7v-40.5h-25.1v90.2h25.1v-34.2c11.9 5.45 27.7 8.77 45.1 8.77 37 0 66.9-15 66.9-33.5.001-18.5-30-33.5-66.9-33.5-11.8.005-22.5 1.52-32.1 4.18zm150 0v10.2c7.14-2.74 16.3-4.36 25.8-4.36 23.9 0 43.2 10.2 43.2 22.7-.001 12.5-19.3 22.7-43.2 22.7-17.1 0-31.8-5.2-38.8-12.7v-40.5h-25.1v90.2h25.1v-34.2c11.9 5.45 27.7 8.77 45.1 8.77 37 0 66.9-15 66.9-33.5.001-18.5-30-33.5-66.9-33.5-11.8.005-22.5 1.52-32.1 4.18zm179-4.18c-36.9 0-66.9 15-66.9 33.5s30 33.5 66.9 33.5 66.9-15 66.9-33.5-30-33.5-66.9-33.5zm-452 10c23.9 0 43.2 10.2 43.2 22.7s-19.3 22.7-43.2 22.7-43.2-10.2-43.2-22.7 19.3-22.7 43.2-22.7zm446 0c23.9 0 43.2 10.2 43.2 22.7s-19.3 22.7-43.2 22.7-43.2-10.2-43.2-22.7 19.3-22.7 43.2-22.7z"/></symbol><symbol id="qq" viewBox="0 0 600 600"><path d="m299 10c-80.8-1.3-149 64.2-167 127-13.6 46.6-13.7 73.2-14.6 118-20.3 51.9-44.9 110-55.6 157-9.03 40.8-8.79 73.5.541 74.6 12.5 5.54 49.3-62.5 49.9-54.4 4.93 48.4 28 80.1 57.7 111-15 5.58-31.2 10.8-44.2 20.1-7.55 5.63-10.5 14.7-6.1 19.1 52.7 17.7 125 4.82 181 4.93 46.5.9 94.2 5.39 142 2.37 33.2-2.44 40.1-5.3 38.2-15.8-2.96-11.9-37.4-25.7-51.9-30.7 33.7-34.8 53.7-68 57.7-114 14.2 15.4 29.3 56.8 49.6 58.4 7.44 0 9.35-24.7 4.3-55.9-17.7-76.3-32.7-110-59.3-176-.98-49.1-3.63-93.9-21.3-136-36.2-74.7-90.5-108-161-108zm-47.9 73c17.6.663 32.3 25.8 31.9 46.2-.485 18.7-9.57 43.4-32.2 44.4-18.6-.752-31.2-22.8-30.7-43.8-.155-19.3 7.22-45.8 30.9-46.8zm96 0c17.6.663 32.3 25.8 31.9 46.2-.484 18.7-9.57 43.4-32.2 44.4-18.6-.752-31.2-22.8-30.7-43.8-.156-19.3 7.22-45.8 30.9-46.8zm-85.5 30.7c-8.78.507-14.2 10-13.7 17.3-.19 10 5.05 19.6 14.2 19.5 8.6.186 12.5-10.5 13.3-18.2-.039-7.02-4.28-18.2-13.7-18.6zm82.7 7.61c-9.2-.147-23.2 10.7-20.4 16.9 5.17 6.08 9.26-7.06 21.2-6.91 6.14-1 10.1 2.7 15.3 3.53 4.03.616 6.73-1.79 6.3-6.3-1.16-6.07-14.5-7.57-22.4-7.2zm-41.9 67.6c34.7.218 74.5 3.64 108 23.2-32.9 31.4-84.3 35.6-110 34.7-38.6.689-83.3-8.32-112-34.8 35.7-19.3 77.7-24 114-23zm135 147c3.26 28.8 6.07 64.4 2.53 94.9-7.32 86.6-69.2 132-139 133-66.9.379-127-56.8-136-105-9.1-44.4-7.37-78.2-2.7-122l23.4 3.79.13 84.6c23.2 5.06 53.9 4.37 80 2.93v-78.2c62.9 1.89 112 .972 172-13.4z" /></symbol><symbol id="qqllq" viewBox="0 0 400 400"><path d="M340 390c28 0 51-23 51-51s-23-51-51-51c-2.5-33-30-59-64-59-28 .011-53 19-61 46-3.4-.65-6.8-.99-10-1-19 .026-37 10-47 27-43-16-72-57-72-100 0-60 49-110 110-110 60 0 110 49 110 110-.042 9.6-1.4 19-3.9 28 24 8.6 42 30 46 56 7 .75 14 2.8 20 5.8 15-28 22-59 22-90 0-110-87-190-190-190-110 0-190 87-190 190 0 110 87 190 190 190z" /></symbol><symbol id="qqo" viewBox="0 0 600 600"><path d="m132 137c-13.5 46.5-13.7 73.1-14.6 117-20.3 51.8-44.8 110-55.4 157-9.01 40.7-8.77 73.4.54 74.5 12.4 5.52 49.2-62.4 49.8-54.3 4.92 48.2 27.9 79.9 57.6 110-15 5.56-31.1 10.7-44.1 20.1-7.53 5.62-10.4 14.7-6.09 19 52.6 17.6 125 4.81 181 4.92 46.4.898 94 5.38 142 2.37 33.1-2.44 40-5.29 38.1-15.7-2.96-11.9-37.3-25.6-51.8-30.7 33.6-34.7 53.5-67.8 57.6-114 14.2 15.4 29.2 56.6 49.5 58.3 7.43 0 9.32-24.7 4.29-55.7-17.7-76.1-32.6-110-59.2-176-.978-49-3.62-93.7-21.3-136-36.1-74.5-90.3-108-161-108-80.6-.618-149 64-166 127z" /></symbol><symbol id="qqtim" viewBox="0 0 600 600"><path d="m175 10c-60.7 0-110 48.9-110 110v252c0 60.7 48.9 110 110 110h92l129 107a9.82 9.82 0 0 0 16.1 -7.57v-99.1h14.6c60.7 0 110-48.9 110-110v-252c0-60.7-48.9-110-110-110zm91.2 91.3h69.5v106l101-32.8 21.5 66.1-101 32.8 62.4 86-56.2 40.9-62.4-86-62.4 86-56.2-40.9 62.4-86-101-32.8 21.5-66.1 101 32.8z" /></symbol><symbol id="qupzilla" viewBox="0 0 600 600"><path d="m286 23.7c-153 0-276 124-276 276 0 153 124 276 276 276 89.9-.066 174-43.9 226-117 29.3-8.73 53.9-25.9 78-43.8-17.8 3.49-37.2 1.89-52.4-1.26a276 276 0 0 0 24.8 -114c0-153-124-276-276-276zm42.3 153c47.9 26.2 99.9 64 157 63.6 0 0-17.7 34.4-143 22.9-39.9-1.18-65.4 7.19-108 25.4 47.7 7.85 115 27.6 180 76.4 43.7 34 101 58.8 135 61.7-130 67.5-146-4.61-266-37.4-75.6-20.8-140-5.78-208 40.4-15.9-25.7-70.8-131 4.08-265 88.1-34.6 174-31.6 249 12.6z" /></symbol><symbol id="qzone" viewBox="0 0 600 600"><path d="m585 226c8.28 4 5.9 11.8 1.7 16.7-44.4 46.4-88.4 93.1-133 139-51.6-3.11-108-7.07-150-20.3-16.7-5.59-9.75-8.84-1.7-15.1 43.3-31.5 71.5-52.4 115-85.1 13.6-12.5 6.04-17.1-5.86-22.7-66.5-22.7-182-19.8-258 15.4-10.9 8.62-2.35 14.9 6.14 13.6 54.7-8.05 113-7.79 163 6.56 16.7 4.91 17.1 6.55 3.84 16.1-104 75.3-159 116-161 122-5.17 15.7 19.2 15.8 23.4 16.3 110 5.68 211-4.77 313-42.2 6.34-3.1 6.1-.045 3.77 3.76-12.4 15.6-26.9 27.5-42.3 39.6l21.6 139c.605 7.12-7.45 8.25-11.8 6.53l-172-79.8-174 80.4c-5.11 1.07-10.9-1.69-9.93-9.53 0 0 29.7-184 29.4-186l-135-143c-4.64-7.28 1.4-9.81 5.38-11.4l185-35.2 91.5-161c7.62-10.6 13.7-4.94 17.6.917l89.7 160z" /></symbol><symbol id="remixos" viewBox="0 0 600 600"><path d="m300 9.53c-10 0-20 .21-25 .71-61 6-114 28-161 67-9 7-29.2 27.4-36.4 36.4-13.8 17-25.1 34-34.7 52-48.7 93-43 206 14.8 294 50.3 75 133 128 223 128 74 10 148-20 204-65 51-42 85-98 98-161 19-84-1-172-53-239-31-39.4-70-69.4-115-89.4-28-12-56-19-90-23-4-.5-15-.71-25-.71zm185 212c2 0 4 0 5 1 6 2 10 7 12 13 0 1 0 2 2 2s3-1 6-5c4-3 6-5 9-6 10-5 21-3 27 4 3 3 2 4-3 3-7-1-12 1-15 8-2 3-2 5-2 8 0 5 1 8 5 16 4 11 6 17 5 25-2 11-10 18-24 23-12 4-23 3-32-4-5-3-6-4-5-5s6-2 10-2c2 0 3 0 5 1 5 4 9 4 13 2s7-6 9-13c1-6 0-12-3-22-3-11-4-17-4-23l1-5-2 1c-2 1-3 2-3 3-1 4-4 13-7 19-15 35-30 51-51 57l-11 1c-9 1-14-2-16-10-1-3-1-4-1-9 1-6 3-13 8-26 6-14 17-35 21-37 2-2 8 1 11 5 3 3 3 6-3 15-12 22-19 40-19 47 0 3 0 4 1 5 3 3 6 2 12-4 14-13 28-37 33-57 1-3 2-6 2-7s-1-1-4-1c-7-1-10-2-13-5-2-2-2-2-2-4 1-5 6-10 12-12 3-2 7-2 11-2zm-8 7s-1 0-1 1c-3 0-6 2-5 4 0 2 2 2 5 3l4 1c2 0 2 0 2-3 0-2 0-2-2-4-1-1-2-2-3-2zm-323 3c21-1 34 5 40 18 3 5 3 11 2 16-3 10-13 20-28 30-5 3-16 9-22 11-2 1-3 2-3 2-1 0 3 14 4 19 2 6 6 13 9 17 4 5 8 6 13 5 1-1 2-1 1-3-3-5-3-19 0-27 6-19 21-35 39-40 14-4 27-1 31 9s-5 23-24 33c-7 3-18 7-24 9h-4v4c0 3 0 3 2 5 5 5 17 5 27-2 5-3 9-7 13-12 6-6 6-8 13-23 8-16 13-27 15-28 1-1 1-1 2 0s3 3 4 5l2 3 4-4c5-5 11-8 16-8s7 1 9 4l1 2 3-2c9-8 21-7 24 1 0 3 0 7-7 24-9 21-10 28-8 29 3 1 8-7 13-19 5-15 17-41 19-41s6 4 8 8 2 7-2 15c-9 21-13 30-12 33 1 1 4 1 6 0 1-1 10-11 20-22l4-4-3-9c-3-8-3-9-2-11 1-4 10-12 12-11 0 0 1 4 3 8 1 4 2 7 2 7l8-8c10-12 9-12 11-12 3-2 9 3 9 7 0 2-4 8-15 21-4 4-7 8-7 9s6 10 8 13c3 4 7 4 13 0 3-2 3-3 4-1 0 1-2 5-5 8-5 6-13 8-18 5-3-1-9-6-11-10l-2-3-2 3-7 7c-5 6-8 8-13 7-4 0-5 0-7 2l-4 3c-3 1-8 1-11 1-3-1-6-4-7-6l-1-2-2 3c-7 9-15 12-21 7-3-3-4-6-4-12 0-5 0-6 2-13 2-4 5-13 7-18 4-11 5-13 3-14s-7 4-10 11-13 30-17 41c-2 5-4 9-4 9-1 0-5-2-6-5-3-3-4-6-3-10s7-18 11-28c2-5 4-11 5-12 0-2 0-3-1-3s-3 1-4 2c-6 5-13 19-26 52-2 6-4 11-5 12 0 1-2 1-5-1-3-3-6-7-7-10l-1-2-3 4c-6 6-11 10-18 13-8 4-14 6-22 5-5 0-6 0-9-2l-4-1-2 2c-9 8-19 9-28 3-11-7-18-20-24-41v-3l-2 3c-5 12-13 32-18 49-2.2 6-4.1 11-4.4 12-1.2 0-5.2-3-8.7-6-4.7-5-6.9-9-7.2-15-.2-3 .1-4 3.6-13 11.6-28 24.7-54 40.7-77 6-11 7-11 10-7 4 3 5 5 5 10s-1 5-4 12c-5 10-6 9 7 5 10-4 21-10 28-14 16-11 19-21 7-25-3-1-6-1-14-1-10 0-15 1-27 4-29 7-61.9 25-75 42-10.2 13-10.4 24-.7 29 2.5 1 3.7 3 3.7 5v3l-2.5-1c-10.6-1-17.8-7-20.8-14-1.8-5-2.2-14-.8-19 4.5-19 22.8-37 51.6-51 19.5-9 38.5-14 57.5-15zm201 18c3 0 5 1 6 3 2 4 1 10-3 13-5 3-12 0-12-7 0-2 3-6 5-8 1-1 3-1 4-1zm-133 39c-5 0-12 2-17 7s-9 11-12 17c-1 3-1 3 5 1 10-2 20-7 25-12s6-7 5-10c-1-2-4-3-6-3zm228 54c4 0 7 1 9 3 4 3 2 4-6 5-74 8-166 26-242 48-9 3-11 4-17 4s-9 0-14-2c-8-3-14-11-10-13 1 0 9-2 17-4 103-25 176-36 259-40 1-1 3-1 4-1z" /></symbol><symbol id="safari" viewBox="0 0 600 600"><path d="m300 10a290 290 0 0 0 -290 290 290 290 0 0 0 290 290 290 290 0 0 0 290 -290 290 290 0 0 0 -290 -290zm0 28.1a262 262 0 0 1 262 262 262 262 0 0 1 -262 262 262 262 0 0 1 -262 -262 262 262 0 0 1 262 -262zm169 90.8-198 142-140 200 198-142zm-198 154 46.1 46.4-158 113 112-160z" /></symbol><symbol id="samsung" viewBox="0 0 600 600"><path d="m491 323-1.8-63h19.8v81.1h-28.8l-19.8-66.6h-1.8l1.8 66.6h-19.8v-81.1h30.6l18 63zm-373-55.8-10.8 73.8h-21.6l14.4-81.1h37.8l14.4 81.1h-21.6l-10.8-73.9zm97.3 55.8 9.01-63h34.2l1.8 81.1h-19.8l-1.8-73.9-12.6 73.8h-21.6l-14.4-73.8v73.8h-21.6l1.8-81.1h34.2l10.8 63zm-166-3.6v5.4c0 3.6-1.8 5.4-9.01 5.4-5.4 0-9.01-3.6-9.01-7.2v-9.01h-21.6v5.4c0 18 14.4 23.4 30.6 23.4 14.4 0 27-5.4 28.8-18v-14.4c-3.6-18-34.2-21.6-37.8-32.4v-3.6c0-1.8 1.8-5.4 7.2-5.4s7.2 3.6 7.2 7.2v5.4h19.8v-5.4c0-18-16.2-19.8-27-19.8-14.4 0-27 5.4-28.8 18v10.8c7.2 18 36 21.6 39.6 34.2zm268-1.8v5.4c0 1.8-1.8 5.4-7.2 5.4s-9.01-3.6-9.01-7.2v-7.2h-21.6v5.4c0 18 14.4 23.4 30.6 23.4 14.4 0 27-5.4 28.8-18v-14.4c-3.6-18-34.2-21.6-36-32.4v-3.6c0-3.6 1.8-5.4 7.2-5.4s7.2 3.6 7.2 7.2v5.4h19.8v-5.4c0-18-16.2-19.8-27-19.8-14.4 0-27 5.4-28.8 18v10.8c3.6 18 32.4 21.6 36 32.4zm70.2 10.8c5.4 0 7.2-3.6 7.2-5.4v-64.8h21.6v64.8c-1.8 14.4-14.4 19.8-28.8 19.8s-27-5.4-28.8-19.8v-64.8h21.6v64.8c0 1.8 1.8 5.4 7.2 5.4zm171 0c5.4 0 9.01-3.6 9.01-5.4v-16.2h-9.01v-12.6h30.6v27c-1.8 14.4-14.4 19.8-28.8 19.8s-27-5.4-28.8-19.8v-43.2c1.8-16.2 14.4-19.8 28.8-19.8s27 5.4 28.8 19.8v9.01h-21.6v-9.01c0-1.8-1.8-5.4-9.01-5.4-5.4 0-7.2 3.6-9.01 5.4v45c1.8 1.8 3.6 5.4 9.01 5.4z" /></symbol><symbol id="sgllq" viewBox="0 0 600 600"><path d="m269 588c-72.9-6.84-137-38.3-188-92.9-120-127-93.8-331 54.6-429 97.4-64.7 232-64.7 330 0 108 71.4 156 204 117 324-42 130-171 212-313 198zm14.1-63.9c35.5-12.4 55.1-39.6 55.3-76.2.151-40.6-19.6-59.9-101-98.7-38.8-18.4-54.7-28.2-71.1-43.3-38.5-35.6-54.9-81.2-46.7-130 5.13-30.4 19.4-61.1 36.4-78.4 15.6-15.9 13.6-16.4-7.75-2.02-32.1 21.8-65.2 59.6-82.1 94.2-21.1 42.9-27.4 69-27.6 114-.186 39 4.17 62.2 17.9 95.5 19.4 46.9 64.6 99.4 100 116 37.6 17.7 91.3 21.5 127 9.1zm162-8.74c54.9-35.5 92.6-87.8 110-153 8.18-30.3 8.17-90.9-.028-121-16.6-61.5-67-124-124-153-43.3-22.1-98.2-27.4-130-12.6-58.8 27.4-72.1 95.7-25.5 131 19 14.3 30 20.5 84.1 47.7 58.4 29.4 84.5 51.4 101 84.6 26.1 54 14.4 125-28.8 174-8 9.07-13.1 16.5-11.3 16.5s12.8-6.21 24.6-13.8z" /></symbol><symbol id="sharp" viewBox="0 0 600 600"><path d="m61.5 257c-20.3.23-46.9 3.91-48.2 22-1.37 18.9 25.6 23.5 43.3 27.6 17.2 4.02 33.4 5.47 33.4 11.4 0 4.2-5.71 7.48-20.8 6.34-18.1-1.36-33.6-6.31-49-14l-10.2 16.8c17.1 6.68 39.5 12 59.7 12.4 24 .398 51.1-3.48 51.7-24 .521-17.2-17.3-23.2-48.6-29.2-15.2-2.95-28.2-4.8-28.2-9.74 0-5.48 10.5-6.9 25.3-5.32 14 1.49 27.3 5.16 39.6 10.4l9.37-15.4c-9.98-3.81-30.6-8.68-49.2-9.22a201 201 0 0 0 -8.24 -.083zm356 .102c-21.5 0-35.3 1.47-47.1 3.47v76.6h26.4v-65c9.51-1.87 19.2-1.92 22.8-1.76 10.5.466 16.4 2.1 21.1 5.45 4.86 3.46 6.19 11.2-.132 16.5-4.74 3.98-14.3 7.1-35.8 3.82l-3.02 4.98 40.6 36h36l-36.1-31.2c8.68-1.12 21.8-4.6 28.1-12.8 6.3-8.24 5.44-20.3-6.63-27.2-11.3-6.46-32.7-8.84-46.2-8.84zm115 .006c-21.5 0-35.5 1.46-47.2 3.46v76.6h26.4v-28.1c8.16 1.37 18.4 2.17 27.2 2.1 21.6-.182 37.7-5.26 45-13.2 10.4-11.3 6.91-25-5.06-32.1-10.8-6.36-30.9-8.83-46.3-8.83zm-402 2.36v77.7h26.4v-31.2h51.1v31.2h26.4v-77.7h-26.4v29.7h-51.1v-29.7zm156 0-47.3 77.7h20.2l9.69-15.9h54.6l9.4 15.9h32.2l-47.4-77.7h-31.4zm244 10.9a77.2 77.2 0 0 1 3.77 .053c10.5.444 16.7 2.23 21.3 5.45 4.74 3.33 6.33 11.3-.131 16.6-4.54 3.72-11.2 5.06-21.7 5.03-7.76-.021-15.8-1.44-22.3-2.93v-22.4c7.13-1.4 14.4-1.77 19.2-1.81zm-234 5.4 17.8 30.2h-36.2z" /></symbol><symbol id="kindle" viewBox="0 0 600 600"><path d="m58.6 10c-27 0-49 22-49 49v482c0 27 22 49 49 49h482c27 0 49-22 49-49v-482c0-27-22-49-49-49zm-30.6 106c7.5 3 11 11 10.2 18-1.7 12 16.6 16 13.2 28-1.5 5 6.6 9 12.6 7 3.7-2 7.2 2 25.5 15 5.3 3 19.5 1 22.5-5 6-13 19 0 34-3 11-3 6-38 38-18 5 4 8 17 13 15 8-4 18-21 25-21 8 0 23 2 23 9-2 14 24-8 20 7-2 8-5 14 2 16 10 3 6 15 12 23 11 13 7 4 21 6 22 1 18 16 40-2 17-14 18 0 29 0 20 0 13-42 31-33 27 13 35-5 42 4 27 37 57 57 84 75 1 92-16 145-44 176-7-25-13-53-32-77-14-19-34-15-41-27-12-21 6-37-16-62-13-14-29-19-45-17-14 1-23 20-33 32-17 20-5 27 3 33 21 15 11 26 16 27 7 1 6 0 15 6l9 4c4 5 9-1 14-1 3-1 4 3 5 6-19 12-30 27-37 47-4 8-7 14-12 20h-38c-10 0-7-4-9-7-3-4-7-2-3-7l8-13-53-45-32 24 44 40c3 15 13 19 23 20 11 2 20 8 27 12l-46 79c-5 8 7 6-3 15-12 9-28 12-42 17-11 3-13 8-14 12h-107c-30.2 0-54.5-23-54.5-53zm494 13c6 0 11 6 17 3 7 11 5 34-5 57-19-7-26-38-29-50 9 4 9-9 16-10zm45 23c4 0 6 0 5 14 0 8-6 13-9 13-4 0-3-5-3-13 0-13 4-14 7-14zm-117 7c15 5 29 6 42 5 11 26 22 42 33 53-32 0-53-31-75-58zm-70 255 18 33-36-15c5-7 11-13 18-18zm-38 76 33 21c-30 18-60 34-91 48-3 1-3-6-1-11s9 1 11-2z" /></symbol><symbol id="amazon" viewBox="0 0 600 600"><path d="m301 58.7c-64.3 0-136 24-151 104-1.52 8.47 4.57 12.9 10.1 14.2l65.7 7.04c6.09-.29 10.6-6.28 11.7-12.4 5.61-27.4 28.6-40.6 54.4-40.6 13.9 0 29.7 5.14 38 17.6 9.42 13.9 8.18 32.9 8.18 49v8.75c-39.2 4.47-90.5 7.33-127 23.5-42.3 18.3-72.1 55.7-72.1 111 0 70.3 44.3 105 101 105 48.1 0 74.4-11.3 112-49.2 12.4 17.8 16.4 26.5 38.8 45.1 5.04 2.66 11.5 2.38 16-1.62l.19.195c13.5-12 38.1-33.4 51.9-44.9 5.52-4.57 4.57-11.9.192-18-12.4-17.1-25.5-31-25.5-62.7v-105c0-44.6 3.14-85.6-29.8-116-26-24.9-69-33.7-102-33.7zm36.7 201v14.7c0 26.4.666 48.3-12.7 71.7-10.8 19-27.8 30.7-46.8 30.7-26 0-41.1-19.8-41.1-49 0-57.7 51.7-68.1 101-68.1zm214 151c-21-.256-46.9 4.03-66.2 17.6-5.61 3.9-4.66 9.32 1.57 8.56 20.5-2.43 66-7.9 74.1 2.47 8.14 10.4-9.04 53.3-16.7 72.4-2.33 5.8 2.66 8.14 7.9 3.76 34.1-28.5 42.9-88.2 35.9-96.8-3.26-4.02-18.1-7.77-36.6-7.99zm-536 11.4c-4.98-.276-7.59 5.38-2.76 9.75 75.7 68.4 176 109 287 109 79.3 0 171-25 235-71.8 10.5-7.8 1.52-19.4-9.23-14.8-71.2 30.2-149 44.8-219 44.8-104 0-205-28.6-287-76.1-1.34-.78-2.61-1.16-3.76-1.23z" /></symbol><symbol id="snapdragon" viewBox="0 0 600 600"><path d="m31.7 237c5.31 63.8 87 101 136 133 68.8 39.9 111 105 62.5 193-4.48 7.62-7.27 7.88-5.63-2.05 14.6-63.5-3.55-95.3-76.2-122-47.9-18.8-77.1-24.8-129-64.1 25.6 94.7 98.1 171 194 201 29 8.97 56.1 13.6 86.3 13.4 160 0 290-130 290-290s-130-290-290-290c-66.4-.382-136 43.4-169 115-2.61 5.08-8.49 7.4-8.94-1.94-1.03-13.9 3.84-42.8 7.34-51.5 2.65-8.25 1.57-8.23-2.9-5.27-53.3 37.1-105 111-95.6 171zm268-217c155 0 279 125 280 280 .641 155-128 285-298 279 81.4-17.8 124-67.6 139-141 12.7-67.4-22.2-131-92.2-183-54.4-40.1-123-94.5-102-170 13.3-37.6 32.8-63.4 73.7-64.9z" /></symbol><symbol id="sogou" viewBox="0 0 600 600"><path d="m300 10a290 290 0 0 0 -290 290 290 290 0 0 0 290 290 290 290 0 0 0 160 -48.5l-31.1-32.1a246 246 0 0 1 -129 36.7 246 246 0 0 1 -246 -246 246 246 0 0 1 246 -246 246 246 0 0 1 246 246 246 246 0 0 1 -34.8 126l32.6 31.1a290 290 0 0 0 46.1 -157 290 290 0 0 0 -290 -290zm244 447c-20.3 34.2-50 63.9-83.8 84.7l31.1 32.1c33.5-22.1 63.5-52 85.3-85.7zm-267-324c-57.3-.04-113 13.1-142 54.5-12.6 23.5-24.9 75.5 52.2 113-.958-.498 27.3 14.8 114 43.2 40.7 10.7 77.4 43.9 32.7 58.8-2.02.787-70.8 27.4-206-49.5l-4.7 71.5c8.93 2.01 102 52.8 230 42 0 0 121-7.74 123-90.8-.184-4.91 4.44-60.7-100-96.5 0 0-59.8-18.6-85.3-28.9-9.75-3.58-63.8-21.7-37.7-44.6 23.1-16.1 95-20.9 211 30.8l3.1-64.4c-6.53-6.86-101-39-190-39z" /></symbol><symbol id="sony" viewBox="0 0 600 600"><path d="m59.1 251c-26 0-49.1 9.89-49.1 30.5 0 26.8 39.7 27.4 59.8 30.3 18.4 2.62 33.5 2.08 33.5 12.4 0 10.9-23.6 12.7-32.7 12.7-12.9 0-43.6-4.34-47.7-24.3h-11.1v33.1h11.1c0-4.18 1.12-6.27 3.28-6.27 7.79 0 18.4 9.81 52.4 9.74 19-.043 49.4-7.8 49.4-30.7 0-29-32.3-28.5-54.5-31.5-17.2-2.33-38.5-2.58-38.5-11.5 0-7.69 11.3-11.7 26.4-11.7 17.3 0 44.9 2.74 50.5 21h11.1v-29.5h-11.1c0 3.46-1.06 5.4-3.16 5.4-4.47 0-19.4-9.8-49.5-9.8zm157 0c-40.8 0-67.9 21-67.9 49.1 0 28 27 49.1 67.9 49.1 40.8 0 67.9-21 67.9-49.1 0-28-27-49.1-67.9-49.1zm79.1 5.44v11.1h13.1c3.06 0 4.59 1.53 4.59 4.59v55.8c0 3.06-1.53 4.59-4.59 4.59h-13.1v11.1h53.6v-11.1h-13.1c-3.06 0-4.59-1.53-4.59-4.59v-45.6l71.7 61.3h18v-71.5c0-3.06 1.53-4.59 4.59-4.59h13.1v-11.1h-53.6v11.1h13.1c3.06 0 4.59 1.53 4.59 4.59v37.6l-62.4-53.3zm152 0v11.1h10.4c4.36 0 8.04 1.53 11 4.59l36.2 38.8v17c0 3.06-1.53 4.59-4.59 4.59h-13.1v11.1h63.5v-11.1h-13.1c-3.06 0-4.59-1.53-4.59-4.59v-18.2l35.3-37.6c2.94-3.06 6.61-4.59 11-4.59h10.3v-11.1h-52.7v11.1h6.42c1.57 0 2.58.546 3.01 1.64.438 1.09.262 2.07-.523 2.95l-21.4 22.8-21.4-22.8c-.788-.874-.961-1.86-.526-2.95.438-1.09 1.44-1.64 3.02-1.64h6.42v-11.1zm-231 7.65c23.4 0 38.9 15.4 38.9 36s-15.5 36-38.9 36-38.9-15.4-38.9-36 15.5-36 38.9-36z" /></symbol><symbol id="steam" viewBox="0 0 600 600"><path d="m299 10c-154 0-279 120-289 271l.126.213v-.038l156 64.1a78.9 78.9 0 0 1 13.6 -7.17c10.9-4.51 22.5-6.52 34-6l71-103c-.025-.458-.025-.941-.025-1.43 0-60.8 49.4-110 110-110 60.8 0 110 49.5 110 110 0 60.8-49.4 110-110 110-.82 0-1.67-.029-2.49-.054l-102 72.6c.299 11.2-1.77 22.4-6.2 33.1-17 40.9-64.2 60.4-105 43.3-25-10.4-42-32.1-47.5-56.8l-110-45.3c36.2 119 147 205 277 205 160 0 290-130 290-290s-130-290-290-290zm95.2 144c-40.5 0-73.4 33-73.4 73.5s32.9 73.5 73.4 73.5 73.4-33 73.4-73.5-32.9-73.5-73.4-73.5zm.126 18.2c30.4 0 55.1 24.7 55.1 55.2s-24.7 55.2-55.1 55.2-55.1-24.7-55.1-55.2 24.7-55.2 55.1-55.2zm-184 178a62.2 62.2 0 0 0 -22.5 4.06l37.1 15.4c23.3 9.71 34.3 36.5 24.6 59.8-9.69 23.3-36.4 34.4-59.7 24.6l-35.9-14.9c6.35 13.3 17.4 24.4 31.9 30.5 31.6 13.2 68-1.84 81.1-33.5 6.37-15.3 6.4-32.2.101-47.5-6.3-15.3-18.2-27.3-33.5-33.7a61.6 61.6 0 0 0 -23.2 -4.76z" /></symbol><symbol id="tcl" viewBox="0 0 600 600"><path d="m316 209c-32 0-54.7 7.1-73.4 22.9-18.8 16.1-28.8 41.6-28.8 68.8s8.7 48 28 65.6c18 16.4 44.3 23.9 73.5 23.8 25.9 0 48.1-6.09 63.5-17.7 17-12.8 28.5-30.8 29.9-54.5h-52.1c-1.44 9.97-7.72 31.5-41.3 31.5-13.7 0-23.9-3.95-32.6-12.1-8.52-7.94-14.6-20.1-14.6-37.8s6.11-30 14.6-37.9c8.71-8.17 19-11.9 32.6-11.9 32.1 0 39 19.1 41 31.6h52.2c-1.28-25.2-13.3-42.8-30.2-54.6-16.9-11.7-36.5-17.7-62.4-17.7zm-306 9.06v47.6h65.8v118h58.8v-118h65.7v-47.6zm430 0v165h150v-45.3h-92.9v-120h-56.6z" /></symbol><symbol id="tor" viewBox="0 0 600 600"><path d="m300 10c-160 0-290 130-290 290s130 290 290 290 290-130 290-290-130-290-290-290zm-42.1 25.1c39.3 29 50.9 62.7 39.4 102-40-18.4-54.9-50.8-39.4-102zm88.7 52.1c-1.88 24.5-14 42.2-39.8 49.3-3.41-23.4 8.91-40.5 39.8-49.3zm-98.2 48.2c36 10.4 67.9 13.1 102 7.16-3.07 24.2 14.5 51.2 31.9 59.4 64.4 30.2 109 95.9 109 172 0 106-85.6 191-191 191-106 0-191-85.6-191-191 0-75.9 45.6-139 108-172 26.8-14.3 38.3-39.9 31.3-66.3zm51.6 99c-80.1 0-145 64.9-145 145s64.9 145 145 145v-46.1c-54.6 0-98.9-44.3-98.9-98.9s44.3-98.9 98.9-98.9zm0 88.3c-31.3 0-56.7 25.4-56.7 56.7s25.4 56.7 56.7 56.7z" /></symbol><symbol id="twitter" viewBox="0 0 600 600"><path d="m590 119c-21.3 9.44-44.3 15.8-68.3 18.7 24.6-14.7 43.4-38.1 52.3-65.8-23 13.6-48.4 23.6-75.6 28.9-21.7-23.1-52.6-37.6-86.8-37.6-65.7 0-119 53.3-119 119 0 9.32 1.07 18.4 3.07 27.1-98.9-4.98-187-52.3-245-124-10.2 17.6-16.1 38-16.1 59.8 0 41.3 21 77.7 52.9 99.1a119 119 0 0 1 -53.9 -14.9c-.017.5-.017 1-.017 1.47 0 57.7 41 106 95.5 117a120 120 0 0 1 -31.3 4.15c-7.69 0-15.2-.709-22.4-2.1 15.2 47.3 59.1 81.7 111 82.6-40.7 31.9-92.1 51-148 51-9.59 0-19-.555-28.4-1.67 52.7 33.8 115 53.5 182 53.5 219 0 339-181 339-339 0-5.14-.128-10.3-.355-15.4a242 242 0 0 0 59.4 -61.6z" /></symbol><symbol id="uc" viewBox="0 0 600 600"><path d="m182 10.1c-54.6-1.37-138 34.7-172 110 69.8-47.2 133-7.38 119 62.2-21.6 72.1-135 119-117 257 21.7 98.2 95.3 156 209 150-95.9-19.1-131-121-111-188 45.2-129 164-90.2 208-236 19.2-103-73.2-159-137-156zm250 182c-39.1 32.8-92.2 50.5-121 65 50.7-1.22 97.6 16.2 147 42.2 45.3 30.7 90 38.9 129 18.8 1.08-37.5-4.92-68.5-26.1-98-20.3-31.8-59.3-48-74.2-52.8-5.37-16-11.4-41.8-27.9-57-19.5 13.6-26.7 55.9-27 81.9zm-198 103c119-7.34 177 70.1 203 117 70.6 19.1 83.7-36.5 150-13.9 1.98.772 2.7.288 2.69-1.82-8.53-47.1-64-35.5-100-48.7-27.9-6.4-81.5-58.8-173-66.2-29-2.57-58.7.428-83 14zm-83.7 88.9c-6.82 13.6-6.12 14.4 4.02 5.06 61.8-56.2 154-37.3 187 29.7 40.2 83.9-21.7 156-79.1 170 24.9 2.2 153 .305 218-7.9-14.3-38.9-65-42.8-78.7-42.4 27.4-74.7-2.87-161-66.2-196-66.5-42.5-158-21.5-185 41.5zm85.3 4.47c-47.1-.429-86.3 39-86.2 81.7-4 55.3 48.8 90.2 86.5 88.7 41.9.673 84.7-38.3 83.6-84.3.683-46.7-38.4-85.3-84-86z" /></symbol><symbol id="vertu" viewBox="0 0 600 600"><path d="m146 253v92.2h77.6l-.01-17.5-59.2.008-.01-22.7 47.3-.016v-17.5l-47.3.004v-16.9l56-.009v-17.5h-74.4zm-136 0 44.3 92.2 11.5.008 45-92.2h-20.3l-30.3 62.4-29.8-62.4h-20.3zm259 0v92.2h18.4v-37l26.4-.015 21.1 37.1 20.6-.008-21.8-38.4c11.2-4.09 18.1-14.3 18.2-26.3 0-17.5-12.1-27.4-30.4-27.4l-41.9-.007h-10.5zm115 0v17.5h35.7v74.7h18.4v-74.7h35.7v-17.5zm128 0 .008 60.8c0 23.6 12.2 33 38.6 33 26.5.02 38.7-9.51 38.8-33l.004-60.9h-18.4l.008 58c0 15.1-2.95 18.1-20.3 18.1-17.5-.06-20.4-3.02-20.4-18.1l.012-58-18.4-.008zm-191 17.5c8.29.056 11.7 3.95 11.8 10.3-.19 6.22-3.28 9.88-12.4 9.81h-33.2v-20.1l33.8-.008z" /></symbol><symbol id="vivaldi" viewBox="0 0 600 600"><path d="m28.2 10a18.1 18.1 0 0 0 -18.2 18.2v544a18.1 18.1 0 0 0 18.2 18.2h544a18.1 18.1 0 0 0 18.2 -18.2v-544a18.1 18.1 0 0 0 -18.2 -18.2zm437 94.6c25.9.191 49.8 20.2 53.3 46.6 1.72 13.2-.902 25.4-7.48 36.8-54.2 93.9-108 188-163 282-23.9 38.8-76.3 35.1-96.1 2.22-58-100-111-192-164-285-20.8-36.3 2.66-80.4 44.4-82.5 22-1.13 39 9.01 50.2 28.1 27.8 46.9 52.2 91.8 78.2 135 16.2 27.1 40.1 42.4 71.9 44.3 45 2.68 86.8-29.8 92.1-77.6 2.29-17.3-2.84-36.1-8.45-49.7-18.5-44.4 9.86-80.9 48.8-80.5z" /></symbol><symbol id="vivo" viewBox="0 0 600 600"><path d="m212 218c-2.58.041-18 15.9-17.9 18.5.041 2.58 15.9 18 18.5 17.9s18-15.9 17.9-18.5c-.042-2.58-15.9-18-18.5-17.9zm258 42.6c-28.6.073-56.2 21.9-56.3 59.6-.057 37.7 27.6 59.6 56.2 59.6h64.2c28.6-.073 56.2-21.9 56.2-59.6-.057-37.7-27.7-59.6-56.3-59.6zm-297 .594c-3.1.107-6.2 1.48-8.6 4.56l-57.3 83.3c-4.17 6.77-12.3 8.96-18.5.748l-58.2-84.5c-8.38-9.22-25.1-.268-19.1 14.1l59.4 87.1c15 17.8 39.6 18.3 54.9-1.18l59.1-87.3c3.96-9.04-3.93-17-11.8-16.8zm228 0c-3.1.107-6.2 1.48-8.6 4.56l-57.3 83.3c-4.17 6.77-12.3 8.96-18.5.748l-58.2-84.5c-8.38-9.22-25.1-.268-19.1 14.1l59.4 87.1c15.1 17.8 39.6 18.3 54.9-1.18l59.1-87.3c3.96-9.04-3.93-17-11.8-16.8zm-189 .36c-6.04.071-11.9 4.63-11.5 14.1l-.283 92.6c.286 14.9 24 15.9 24.2.24l.043-94.1c-.195-8.5-6.39-12.9-12.4-12.8zm263 22h53.7c21.2.044 38.5 13.5 38.6 36.7.042 23.2-17.3 36.6-38.5 36.7h-53.9c-21.2-.045-38.5-13.5-38.5-36.7.042-23.2 17.4-36.6 38.6-36.7z" /></symbol><symbol id="waterfox" viewBox="0 0 600 600"><path d="m325 10c-34.6 0-62.9 23.4-71.6 54.3-125 22.2-218 130-218 260 0 147 118 265 265 265s265-118 265-265c0-75.3-49.4-91.3-50.6-155 0-3.7 1.23-6.17 1.23-8.64-49.4 21-83.9 67.9-83.9 125 0 49.4 24.7 66.6 24.7 116s-22.2 93.8-58 122c9.87-19.7 16-40.7 16-64.2 0-43.2-19.7-80.2-50.6-105 1.23 4.94 1.23 8.64 1.23 13.6 0 50.6-40.7 91.3-91.3 91.3-59.2 0-107-48.1-107-107 0-50.6 40.7-91.3 91.3-91.3 4.94 0 8.64 0 13.6 1.23-19.7-25.9-48.1-43.2-81.4-49.4 33.3-12.3 69.1-18.5 110-18.5h40.7c56.8 0 105-34.6 125-83.9-3.7 1.23-6.17 1.23-8.64 1.23-58 0-77.7-38.3-132-48.1 0 17.3 4.94 34.6 12.3 49.4-12.3-13.6-21-32.1-21-51.8s7.41-35.8 18.5-49.4c-2.47-1.24-6.17-1.24-9.87-1.24z" /></symbol><symbol id="webkit" viewBox="0 0 600 600"><path d="m300 10c-160 0-290 130-290 290s130 290 290 290 290-130 290-290-130-290-290-290zm0 27.1c145 0 263 118 263 263s-118 263-263 263-263-118-263-263 118-263 263-263zm-.189 89.4-23.6 76.1c-36.1 8.79-64.5 37.4-73.3 73.7l-75.6 23.7 73.3 23.1 25.5-23.6c.233-40.7 33-73.3 73.7-73.5 10.1-.652 26.4 4.36 28.3 5.66l29.8-13c-16.8-12.1-34.6-16-34.6-16zm168 66.5-186 77.6-149 137 186-78.9zm-66.3 84.7-27.5 25c-1.27 39.8-34 71.7-73.6 71.6-10.2.12-19.7-2.12-28.4-5.69l-29.6 13.1c10.2 7.32 21.8 12.8 34.3 15.8l23.7 76.1 23.6-76.1c36.1-8.79 64.5-37.4 73.3-73.7l75.6-23.7-71.3-22.5z" /></symbol><symbol id="wechat" viewBox="0 0 600 600"><path d="m220 65a210 175 0 0 0 -210 175 210 175 0 0 0 79.7 137l-12 47.3c-2.31 11.2 3.72 13.5 10 9.81l55.9-31.4a210 175 0 0 0 76.2 11.9 210 175 0 0 0 11.2 -.331 191 159 0 0 1 -6.92 -42.5 191 159 0 0 1 191 -159 191 159 0 0 1 11.5 .479 210 175 0 0 0 -207 -148zm-70.3 90.8a27.9 28 0 0 1 27.9 28 27.9 28 0 0 1 -27.9 28 27.9 28 0 0 1 -27.9 -28 27.9 28 0 0 1 27.9 -28zm140 0a27.9 28 0 0 1 27.9 28 27.9 28 0 0 1 -27.9 28 27.9 28 0 0 1 -27.9 -28 27.9 28 0 0 1 27.9 -28zm126 70.2a175 146 0 0 0 -175 146 175 146 0 0 0 175 146 175 146 0 0 0 62.7 -9.72l46.5 26.1c5.44 3.2 10.7 1.24 8.67-8.5l-9.93-39a175 146 0 0 0 66.8 -114 175 146 0 0 0 -175 -146zm-59.1 75.8a22.8 22.9 0 0 1 22.8 22.9 22.8 22.9 0 0 1 -22.8 22.9 22.8 22.9 0 0 1 -22.8 -22.9 22.8 22.9 0 0 1 22.8 -22.9zm117 0a22.8 22.9 0 0 1 22.8 22.9 22.8 22.9 0 0 1 -22.8 22.9 22.8 22.9 0 0 1 -22.8 -22.9 22.8 22.9 0 0 1 22.8 -22.9z" /></symbol><symbol id="weibo" viewBox="0 0 600 600"><path d="m439 65.1a154 154 0 0 0 -34.4 3.36c-12 2.56-19.6 14.4-17 26.3 2.56 12 14.3 19.6 26.3 17 36.9-7.84 76.8 3.6 104 33.6s34.4 70.9 22.8 107c-3.76 11.7 2.64 24.2 14.3 27.9s24.2-2.64 27.9-14.2v-.082c16.3-50.3 6-108-32.1-150-29.8-33-70.6-50-112-50.7zm-188 66.3c-40.9.615-101 32.8-155 86.5-54.7 54.7-86.4 113-86.4 163 0 95.9 123 154 243 154 158 0 263-91.6 263-164 .08-44-37-69-70.3-79.3-8.16-2.48-13.8-4.08-9.52-14.8 9.28-23.3 10.2-43.4.16-57.8-18.8-26.9-70.3-25.4-129-.721 0 0-18.6 8.08-13.8-6.56 9.04-29.2 7.68-53.6-6.4-67.8-8.5-8.52-20.8-12.4-35.5-12.2zm186 12.5a74.6 74.6 0 0 0 -16.7 1.67c-10.3 2.16-16.9 12.4-14.7 22.7 2.24 10.3 12.4 16.9 22.6 14.6 12.3-2.64 25.8 1.2 34.8 11.2 9.04 10.1 11.5 23.8 7.6 35.8-3.2 10 2.24 20.8 12.3 24.1 10.1 3.2 20.8-2.24 24.1-12.3 7.92-24.6 2.96-52.6-15.6-73.1-14.5-16.1-34.4-24.4-54.4-24.6zm-180 127c84.3.105 153 41.1 158 98.2 6.32 63.1-66.5 122-162 131-96 9.52-179-33.9-185-96.9-6.24-63.1 66.6-122 163-131a266 266 0 0 1 26.6 -1.31zm-20.5 46.6c-37.9.4-75 21.6-91.1 54.3-20.2 41.1-.64 86.7 45.5 102 47.9 15.4 104-8.24 124-52.5 19.4-43.4-4.8-88-52.1-100-8.57-2.24-17.3-3.25-26.1-3.16zm12.7 53.6c1.52-.027 3.03.223 4.45.783 5.76 2.08 7.84 8.56 4.64 14.4-3.36 5.76-10.8 8.48-16.6 6.08-5.76-2.32-7.52-8.8-4.24-14.4 2.52-4.2 7.16-6.78 11.7-6.86zm-44 13.5c4.04.052 8.03.823 11.8 2.38 15 6.48 19.8 23.5 10.7 38.5-9.28 14.8-29.2 21.3-44.2 14.5-14.7-6.72-19.1-23.9-9.84-38.4 6.9-10.8 19.4-17.1 31.5-16.9z" /></symbol><symbol id="win" viewBox="0 0 600 600"><path d="m590 10-314 45.7v232l314-2.49zm-343 49.9-237 32.2l.217 197 237-1.35-.104-228zm-237 253 .014 197 237 32.5-.186-228zm265 3.16.44 230 314 44.2.075-274z" /></symbol><symbol id="winxp" viewBox="0 0 600 600"><path d="m235 44.3c-28.6.447-62.6 7.66-105 25.1l-55.5 192c44.8-18.5 80-26.9 110-26.7 44.9.34 76.5 18.8 106 38.6l55.4-191c-30.5-20.6-63-38.7-111-37.9zm140 58.1-55.5 192c48.7 33 107 60.1 215 11.8l55.4-192c-112 46.5-166 20.3-215-12.4zm-205 168c-28.6.447-62.6 7.66-105 25.1l-55.2 193c113-46.6 166-19.6 215 13.3l56.2-193c-30.5-20.7-63.1-38.7-111-38zm140 56.5-55.3 191c48.7 33 103 59.4 215 12.8l55.5-192c-113 46.5-167 20.4-215-12.5z" /></symbol><symbol id="winphone" viewBox="0 0 600 600"><path d="m10 10v580h580v-580zm236 69.5c30 .111 58.8 9.68 92.8 32.6l-47.8 165c-62.7-43.5-126-34.8-186-10.3h-.002l47.8-166c35.6-13.4 64.8-21.6 92.9-21.5zm118 49.9c42 28.3 88.6 50.8 185 10.7l-47.7 165c-93 41.6-144 18.3-186-10.2zm-174 145c30.1.2 59.1 9.81 92.7 32.4l-48.5 167c-42.1-28.3-87.8-51.6-185-11.5l47.6-166c35.4-13.4 64.8-21.6 93.2-21.4zm118 48.4c42 28.3 88.7 50.8 186 10.7l-47.8 165c-97 40.1-144 17.4-186-11.1z" /></symbol><symbol id="x64r" viewBox="0 0 600 600"><path d="m300 10a290 290 0 0 0 -290 290 290 290 0 0 0 290 290 290 290 0 0 0 290 -290 290 290 0 0 0 -290 -290zm-145 116h97.9c19.4 0 29.1 10.7 29.1 32v73.6h-47.5v-60.9h-60.7v105h80c19.4 0 29.1 10.4 29.1 31.4v135c0 21.2-9.71 31.8-29.1 31.8h-98.1c-19.6-.001-29.3-10.6-29.3-31.8v-284c0-21.3 9.58-32 28.7-32zm234 0h43.5v2l-66.8 236h46.1v-105h40.8v105h21.8v44.2h-21.8v65.6h-40.8v-65.6h-94v-30.9zm-215 194v110h61.8v-110z" /></symbol><symbol id="x64c" viewBox="0 0 600 600"><path d="m166 10v66.9h-10.8c-43.5 0-78.5 35-78.5 78.5v10.7h-66.9v44.6h66.9v66.9h-66.9v44.6h66.9v66.9h-66.9v44.6h66.9v10.8c0 43.5 35 78.5 78.5 78.5h10.8v66.9h44.6v-66.9h66.9v66.9h44.6v-66.9h66.9v66.9h44.6v-66.9h10.8c43.5 0 78.5-35 78.5-78.5v-10.8h66.9v-44.6h-66.9v-66.9h66.9v-44.6h-66.9v-66.9h66.9v-44.6h-66.9v-10.7c0-43.5-35-78.5-78.5-78.5h-10.8v-66.9h-44.6v66.9h-66.9v-66.9h-44.6v66.9h-66.9v-66.9zm-6.59 122h94.7c18.8 0 28.2 10.3 28.2 30.9v71.2h-45.9v-58.9h-58.7v101h77.3c18.8 0 28.2 10.1 28.2 30.3v131c0 20.5-9.38 30.7-28.2 30.7h-94.9c-18.9 0-28.4-10.2-28.4-30.7v-275c0-20.6 9.26-30.9 27.8-30.9zm226 0h42.1v1.93l-64.5 228h44.6v-101h39.4v101h21v42.8h-21v63.4h-39.4v-63.4h-90.9v-29.9l68.8-243zm-208 187v106h59.7v-106z" /></symbol><symbol id="x86r" viewBox="0 0 600 600"><path d="m300 10a290 290 0 0 0 -290 290 290 290 0 0 0 290 290 290 290 0 0 0 290 -290 290 290 0 0 0 -290 -290zm-145 116h98.3c19.4 0 29 10.7 29 32v81.8c0 13.8-5.36 24.5-16.1 32l-29.9 20.9 30.3 20.5c10.4 6.97 15.7 17.4 15.7 31.4v97.6c0 21.2-9.68 31.8-29 31.8h-98.9c-19.1 0-28.6-10.6-28.6-31.8v-80.3h47.4v67.4h62v-87.4l-59.1-43.8v-10.9l59.1-43.1v-73.4h-62v63.4h-47.4v-76c0-21.3 9.75-32 29.3-32zm192 0h97.7c19.6 0 29.4 10.5 29.4 31.6v67.4c0 11-3.5 23.1-10.5 36.5l-88.5 167h98.6v45.6h-156v-32.2l109-207v-64.3h-61.9v64.7h-47.1v-77.4c0-21 9.81-31.6 29.4-31.6z" /></symbol><symbol id="x86c" viewBox="0 0 600 600"><path d="m166 10v66.9h-10.8c-43.5 0-78.5 35-78.5 78.5v10.7h-66.9v44.6h66.9v66.9h-66.9v44.6h66.9v66.9h-66.9v44.6h66.9v10.8c0 43.5 35 78.5 78.5 78.5h10.8v66.9h44.6v-66.9h66.9v66.9h44.6v-66.9h66.9v66.9h44.6v-66.9h10.8c43.5 0 78.5-35 78.5-78.5v-10.8h66.9v-44.6h-66.9v-66.9h66.9v-44.6h-66.9v-66.9h66.9v-44.6h-66.9v-10.7c0-43.5-35-78.5-78.5-78.5h-10.8v-66.9h-44.6v66.9h-66.9v-66.9h-44.6v66.9h-66.9v-66.9zm-6.07 122h95c18.7 0 28.1 10.3 28.1 31v79.1c0 13.3-5.18 23.6-15.5 30.9l-28.9 20.2 29.3 19.8c10.1 6.74 15.1 16.8 15.1 30.3v94.4c0 20.5-9.36 30.7-28.1 30.7h-95.6c-18.5 0-27.7-10.2-27.7-30.7v-77.6h45.8v65.1h60v-84.5l-57.2-42.3v-10.5l57.2-41.7v-70.9h-60v61.3h-45.8v-73.5c0-20.6 9.42-31 28.3-31zm185 0h94.5c19 0 28.4 10.2 28.4 30.5v65.1c0 10.6-3.39 22.4-10.2 35.3l-85.5 161h95.3v44.1h-151v-31.2l105-200v-62.1h-59.9v62.6h-45.5v-74.8c0-20.3 9.48-30.5 28.4-30.5z" /></symbol><symbol id="xbox" viewBox="0 0 600 600"><path d="m300 10c-52.2 0-104 14.5-145 40.6 49.3-11.6 136 40.6 145 46.4 8.7-5.8 92.8-58 145-46.4-43.5-26.1-92.8-40.6-145-40.6zm191 81.8c-14.6 1.61-45.7 15-107 74.8 58 69.6 168 238 145 307v2.89h2.89c37.7-49.3 58-110 58-177 0-81.2-31.9-154-87-206 0 0-2.84-3.29-11.6-2.32zm-384 .17c-8.85-1.12-11.5 2.15-10.4 2.15-52.2 52.2-87 125-87 206 0 66.7 23.2 128 58 177h2.89c2.9 0 0 .011 0-2.89-23.2-66.7 87-235 145-304-61.6-61.6-93.8-75.7-109-77.5zm193 147c-89.9 66.7-238 232-191 278 52.2 43.5 119 72.5 191 72.5s139-26.1 191-72.5c43.5-46.4-104-212-191-278z" /></symbol><symbol id="xperia" viewBox="0 0 600 600"><path d="m12.4 256 29.9 36.2 8.91-10.7-21-25.5zm71.9 0-74.3 89h16.8l29.7-35.6 29.4 35.6h17.7l-38.2-46.2 35.7-42.8zm47.5 0v89h15.2v-79.9h17.2c21.1 0 31.7 4.13 31.7 17 0 12.8-9.98 18.5-31.1 18.5h-10.8v9.11h12.8c26.2 0 44.2-8.74 44.2-27.6 0-19.4-18-26.1-45-26.1h-34.2zm107 0v89h75.4v-9.6h-59.2v-70h57.3v-9.47zm104 0v89h14.5v-79.9h19.2c17.9 0 27.7 4.13 27.7 15.9 0 11.5-9.82 17.1-27.7 17.1h-12.1v9.11h13.5l27.7 37.8h16.4l-29.3-39c15.6-2.92 25.9-11.2 25.9-25 0-18.6-16.7-25-39.9-25h-35.8zm107 0v89h12.9v-89zm82 0-41 89h15.5l33.7-79.9 18.4 43.7h-29.1l-3.79 8.99h36.7l11.4 27.2h16.1l-41-89h-17zm-269 37.4v9.6h42.4v-9.6z" /></symbol><symbol id="xunlei" viewBox="0 0 600 600"><path d="m109 10c-54.7 0-98.8 44.1-98.8 98.8v382c0 54.7 44.1 98.8 98.8 98.8h382c54.7 0 98.8-44.1 98.8-98.8v-382c0-54.7-44.1-98.8-98.8-98.8zm395 74.5-62.7 102 17.9-.394-63.9 94.8c46.1 6.91 92.5 19.7 140 50.8-68.5 7.86-136 19.2-202 40.5l81 170c-99-113-147-121-210-159-34.1-28.7-58.4-65.7-47.9-112 17.7-78.8-56.6-95.8-107-131l97.6 30.2c37.3-15.6 72.8-3.2 106 50 75.7-61.3 161-103 252-135z" /></symbol><symbol id="yandex" viewBox="0 0 600 600"><path d="m300 10a290 290 0 0 0 -290 290 290 290 0 0 0 290 290 290 290 0 0 0 290 -290 290 290 0 0 0 -290 -290zm136 138 36 38.4-145 143v174l-52.2.13.324-174-147-143 39.2-37.8 133 128 136-130z" /></symbol><symbol id="zte" viewBox="0 0 600 600"><path d="m39.2 159a19.6 19.6 0 0 0 -19.6 19.6 19.6 19.6 0 0 0 19.6 19.6h85.6c9.87 0 15.8 10.9 10.5 19.2l-115 181c-5.78 9.08-9.97 14.1-10 21.8-.05 10.9 8.76 19.6 19.6 19.6h158a19.6 19.6 0 0 0 19.6 -19.6 19.6 19.6 0 0 0 -19.6 -19.6h-94.9c-9.87 0-14.8-10.9-9.55-19.2l114-180c6.05-9.51 9.85-14.6 10-23a19.6 19.6 0 0 0 -19.6 -19.6zm203 .242a19.6 19.6 0 0 0 -19.6 19.6 19.6 19.6 0 0 0 19.6 19.6h35a17.5 17.5 0 0 1 17.6 17.6v202a22 22 0 0 0 22 22 22 22 0 0 0 22 -22v-202a17.5 17.5 0 0 1 17.6 -17.6h35a19.6 19.6 0 0 0 19.6 -19.6 19.6 19.6 0 0 0 -19.6 -19.6zm203 .057a19.6 19.6 0 0 0 -19.6 19.6v241a19.6 19.6 0 0 0 19.6 19.6h125a19.6 19.6 0 0 0 19.6 -19.6 19.6 19.6 0 0 0 -19.6 -19.6h-83.7a17.5 17.5 0 0 1 -17.6 -17.6v-46.2a17.5 17.5 0 0 1 17.6 -17.6h69.6a19.6 19.6 0 0 0 19.6 -19.6 19.6 19.6 0 0 0 -19.6 -19.6h-69.6a17.5 17.5 0 0 1 -17.6 -17.6v-46.1c0-9.73 7.84-17.6 17.6-17.6h83.7c10.9 0 19.6-8.77 19.6-19.7a19.6 19.6 0 0 0 -19.6 -19.6z" /></symbol><symbol id="zuk" viewBox="0 0 600 600"><path d="m548 208c-17 0-34 5-47 16l-80 74 111 91h58l-112-91 97-90zm-538 3c3.6 8 11.4 22 32.7 22h108l-127 119c-15.6 16-14.1 34 7.4 34h181c-2-13-13-22-38-22h-97.1l133-126c9-9 5-27-15-27zm217 0v126c0 31 45 56 100 56s100-25 100-56v-21l-23-18 23-20v-56c0-6-8-11-19-11h-33v133c0 15-21 29-48 29-26 0-49-14-49-29v-122c0-6-8-11-18-11z" /></symbol><symbol id="palemoon" viewBox="0 0 600 600"><path d="M300 10a290 290 0 0 0-290 290 290 290 0 0 0 290 290 290 290 0 0 0 290-290 290 290 0 0 0-290-290zm-6.84 20.5a412 416 0 0 0-112 285 412 416 0 0 0 85.1 252 270 270 0 0 1-236-267 270 270 0 0 1 263-270z"/></symbol><symbol id="coolapk" viewBox="0 0 600 600"><path d="M300 10c-160 0-290 130-290 290s130 290 290 290 290-130 290-290-130-290-290-290zm29.9 242l-26.6 20.8c-27.9-19.2-59-45.7-89.6-45.7-44.2.163-79 33.1-79 71.8 0 38.6 34.1 70.3 79 71.1 31.1.537 52.9-20.5 74.5-43.5 37.5-40.5 52.9-78.3 81.3-123 6.5-10.2 21.5-9.83 27.6.643l99.4 173c8.66 15.2-9.6 31.3-23.6 20.9l-118-88.5 26.9-20.1 48 35.9-46.9-81.7c-19.7 33.8-37.4 67.7-71.1 104-22.1 23.8-52.2 54.8-97.9 54.1-60.1-1.04-111-45.7-111-103 0-57.5 50.7-104 111-104 45.7-.17 92.3 40.5 116 57.1z"/></symbol><symbol id="tablet" viewBox="0 0 600 600"><path d="M42.3 105c-17.9 0-32.3 16.1-32.3 36.1v318c0 20 14.4 36.1 32.3 36.1h515c17.9 0 32.3-16.1 32.3-36.1v-318a32.2 36 0 0 0-32.3-36.1zm21.2 44h474v303h-474zm500 139a12.5 12.5 0 0 1 12.5 12.5 12.5 12.5 0 0 1-12.5 12.5 12.5 12.5 0 0 1-12.5-12.5 12.5 12.5 0 0 1 12.5-12.5z"/></symbol><symbol id="tieba" viewBox="0 0 600 600"><path d="M52.3 10c-23.4 0-42.3 18.9-42.3 42.3v495c0 23.4 18.9 42.3 42.3 42.3h495c23.4 0 42.3-18.9 42.3-42.3v-495c0-23.4-18.9-42.3-42.3-42.3zm125 130h113v240h-40.1v-200h-72.2v200h-40.1v-200c0-25.7 11.7-40.5 40.1-40.5zm161 0h40.1v31.8h79.4v40.1h-79.4v77.5h83.9v130c0 24.2-15.9 40.1-40.1 40.1h-116v-171h32.1zm-145 55.6h40.1v171c0 34.4 17 55.2 55.6 56.7v37.1c-31.8 0-57.8-10.6-75.6-37.1-17.8 26.8-45.4 37.1-77.1 37.1v-37.1c39.7-.756 57.1-21.6 57.1-56.7zm153 134v89.6h75.6v-89.6z"/></symbol><symbol id="gionee" viewBox="0 0 600 600"><path d="m132 120h54.2a7.34 7.34 0 0 1 7.36 7.36v54.2c0 4.08-3.28 7.36-7.36 7.36h-54.2a7.34 7.34 0 0 1 -7.36 -7.36v-54.2a7.34 7.34 0 0 1 7.36 -7.36zm281 0h54.2a7.34 7.34 0 0 1 7.36 7.36v54.2a7.34 7.34 0 0 1 -7.36 7.36h-54.2a7.34 7.34 0 0 1 -7.36 -7.36v-54.2a7.34 7.34 0 0 1 7.36 -7.36zm-281 139h54.2a7.34 7.34 0 0 1 7.36 7.36v97.2c0 58.6 47.5 106 106 106 58.6 0 106-47.5 106-106v-35.2l-98.6-.002a7.34 7.34 0 0 1 -7.36 -7.36v-54.2a7.34 7.34 0 0 1 7.36 -7.36c53.4 0 107 .001 160 0a7.34 7.34 0 0 1 7.36 7.36v97.1c0 96.9-78.3 175-175 175-96.7.001-175-78.6-175-176 .001-32.5.002-64.9.002-97.4a7.34 7.34 0 0 1 7.36 -7.36z" /></symbol><symbol id="system" viewBox="0 0 600 600"><path d="M299.8 10c-160 0-290 130-290 290s130 290 290 290 290-130 290-290-130-290-290-290zm-103 176c64.3.095 97.3 61.3 97.4 113 .125 61.9-40 113-97.4 113-64.7-.025-97.9-61.3-97.4-113 .566-61.1 40-113 97.4-113zm217 0c42.5.003 79.1 21.2 79.2 63.6h-29.9c-.015-28.3-24.2-37.7-46.8-37.7-24.8-.004-46.7 6.37-46.8 31.2-.014 19.4 14.9 24.2 28.6 29.9 20 8.34 42.3 18.9 67.5 29.9 19.6 8.53 33.7 27.6 33.8 46.8.264 51-43.3 63.6-81.8 63.6-49 0-83.1-28.8-83.1-72.7h29.9c-.002 37.6 24.3 48 54.5 48.1 21.7.052 50.6-9.93 50.6-33.8.008-17.9-15.7-26.6-28.6-32.5l-71.4-32.5c-18.9-8.6-29.9-19.6-29.9-42.9-.014-45.1 36.8-61 74-61zm-217 24.7c-50.7-.137-66.4 49.5-66.2 88.3.186 43.4 22.4 88.5 66.2 88.3 50.7-.234 66.4-49.5 66.2-88.3-.186-43.4-22.4-88.2-66.2-88.3z"/></symbol><symbol id="pc" viewBox="0 0 600 600"><path d="M10 63.8v416h580v-416zm36.2 36.2h508v345h-508zm393 399l-280 .885.142 36.3 280-.906z"/></symbol><symbol id="browser" viewBox="0 0 600 600"><path d="m300 10a290 289 0 0 0 -290 289 290 289 0 0 0 33 134l-0.133 0.219 391-390a290 289 0 0 0 -134 -32.9zm183 67-408 407a290 289 0 0 0 41.1 40.9l408-407a290 289 0 0 0 -41.1 -40.9zm74 89.9-391 390a290 289 0 0 0 134 32.9 290 289 0 0 0 290 -289 290 289 0 0 0 -33 -134z"/></symbol><symbol id="lcllq" viewBox="0 0 600 600"><path d="M10 310c1.15 160 141 287 301 280 88.9-4.04 166-36.8 239-57.9 15.5-74.8 42.3-155 39.9-243-4.17-157-137-285-298-280-92.8 2.76-170 37-243 57.9-15 74.8-40.1 155-39.4 243zm317-211c51.2 1.02 98.9 14.2 141 38.8 74.3 138 25.7 311-110 389-157-4.87-281-133-281-290 53.6-86 147-138 250-138z"/></symbol><symbol id="silk" viewBox="0 0 600 600"><path d="M300 10c-160 0-290 130-290 290s130 290 290 290 290-130 290-290-130-290-290-290zm116 54.1c90 44.2 147 136 147 236 .082 41.6-9.98 82.4-28.9 119 4.57-23.7 6.88-47.6 6.96-71.8-.178-108-45.7-211-126-284zm-236 1.19l.037.039-.18.104c-29.5 27.5-13.9 57.1 13 77.4 98.3 74.1 275 150 253 312-7.03 50.3-34.5 80.9-69.9 97.5-24.6 7.5-50.2 11.4-76 11.4-16.4.006-32.7-1.64-48.8-4.73 18.6-5.63 39.3-15.3 62.4-30.1 54.8-66.2 8.3-123-37.7-172-63.5-68.4-159-75.6-193-145-8.96-18.5-10.7-41.3-.037-60.1 21.7-38.3 58.5-65.8 97.7-85.7l.143-.143z"/></symbol><symbol id="nova" viewBox="0 0 600 600"><path d="M65.9 223c-30.8 0-55.9 24.9-55.9 55.4v89.6a9.93 9.83 0 1 0 19.9 0v-89.6c0-19.9 16-35.8 36.1-35.8 20 0 36.1 15.9 36.1 35.8v89.6a9.93 9.83 0 1 0 19.9 0v-89.6c0-30.5-25.2-55.4-55.9-55.4zm151 0c-38.8 0-69 35.6-69 77.5s30.1 77.5 69 77.5 69-35.6 69-77.5-30.1-77.5-69-77.5zm316 0c-18.1 0-34.4 6.9-45.1 18.5a10.2 10.1 0 1 0 15 13.6c6.36-6.88 17.4-11.9 30.1-11.9 21.4 0 36.7 13.5 36.7 27.6v13.7h-36.7c-14.9 0-28.7 4.22-39.3 12.1-10.5 7.88-17.8 20-17.8 33.7 0 27.5 26.7 47.8 57 47.8s57-20.3 57-47.8v-34.1a10.2 10.1 0 0 0 0-3.24v-22.1c0-27.5-26.7-47.8-57-47.8zm-93.2.012a10 9.93 0 0 0-9.02 6.73l-47.4 127c-.352.942-4.61 1.66-5.23 0l-47.4-127a10 9.93 0 0 0-9.15-6.62 10 9.93 0 0 0-9.68 13.5l47.4 127c7.11 19.1 35.9 18.8 42.9 0l47.4-127a10 9.93 0 0 0-9.81-13.6zm-223 20.1c26.1 0 48.7 24.8 48.7 57.4s-22.5 57.4-48.7 57.4c-26.1 0-48.7-24.8-48.7-57.4s22.5-57.4 48.7-57.4zm316 61.5h36.7v25.7c0 14.1-15.3 27.6-36.7 27.6-21.4 0-36.7-13.5-36.7-27.6 0-7.06 3.27-12.8 9.68-17.6 6.41-4.79 16-8.03 27-8.03z"/></symbol><symbol id="theworld" viewBox="0 0 600 600"><path d="M300 10c-160 0-290 130-290 290s130 290 290 290 290-130 290-290-130-290-290-290zm-11.4 219c22.9-15.3 23.9-44.6 1.3-60.4 23.5-19.6-29.2-6.58-7.78-24.6l16.6 2.36c7.53 7.21 27.5 36.8 27.4 13.3-20.5-10.6-9.15-28.5 4.38-34.5 15-29.6-22.9-40.4-34.3-57.4 27.7-18.8 71.3-22.2 64.2-5.66-4.07 16.7 39 49.7 25.8 12.4l-1.75-17.8c25.3-15.3 51.5 12.6 74.2 25.1 90.5 63.8 133 186 101 292-29.7 110-136 192-249 196-95.2 3.44-190-45.1-240-127-30.7-50.3-46.3-110-39.4-169 20.4 11.2 31.2-30.8 6.22-30.3-1.54-15 27-9.38 41.2-8.79 48.6 2.02 59.2 92.5 70.2 49.4 4.79-18.9 27.7-56.6 46.3-44.2 11.3 19 40.3 23.4 30.4 51.6 4.99 9.07 32.2 47.4 23.2 16.8-12.9-6.72-25.9-45.7-1.85-27.5 12.1-.165 3.05 15.9 17.8 2.77 23.2-14.4-30.4-51.5-.354-48.6zm36.4-146c5.34 11.2 33.4 49.3 20.8 18.8-5.38-7.58-12.5-14.5-20.8-18.8zm28 37.2c-12.9 29.2 41.2 6.88 0 0zm5 16c14.8 22.9-26.7 23.2-23 43 11.2 11.6 16.5-17.9 32.9-13.1 7.1-8.68-1.34-25-9.88-29.9zm-40 108c-24.3 14.8 29.4 34.9 6.56 15-4.92-3.47-.295-13.3-6.56-15zm24 38c-16.1 4.67-17 16.9 1.33 17.2 5.09-4.13 2.38-13.1-1.33-17.2zm-32 14c-22.2 5.98-57.2 42.6-16 48.4 21.1-.56 20.9-38.2 16-48.4zm60 31c-4.15 17.5 24.3 26.7 33.1 39.5 15.4-7.21 23.1-2.69 36.9 7.5 4.39-14.8-27-45-51.3-39.1-11.4 11-9.1-6.4-18.7-7.92zm71.3 28.7c2.43 1.44 12.6.942 11.7-8.71-.498-5.3-17.9 5.04-11.7 8.71zm-176 2.29c-22.2 8.14 60.8 14 21.1 2-6.97-1.22-14-1.95-21.1-2zm146 18c-8.31 9.16-10.7 41.9-28.2 20 1.11-32.9-41.3-8.08-53.4 5.84-54.5 14-57.4 92.2-30.4 80.6 48.5-39.1 72.7 27.8 90.3 22.7 21-12.6 50.5-35.3 47.3-63.3-4.21-23.5-17.8-43.7-25.6-65.8zm-34 146c3.66 1.88 12.8-.307 9.04-9.13-2.91-6.84-16.6 5.22-9.04 9.13z"/></symbol><symbol id="search" viewBox="0 0 600 600"><path d="M247.001 35.002a211.999 212.733 0 0 0-211.999 213.65 211.999 212.733 0 0 0 211.999 212.733 211.999 212.733 0 0 0 116.965-34.844l140.724 138.46 60.31-58.685-140.724-141.211a211.999 212.733 0 0 0 35.638-116.453 211.999 212.733 0 0 0-212.913-213.65zm0 86.102a126.103 126.539 0 0 1 127.017 127.456 126.103 126.539 0 0 1-127.017 126.539 126.103 126.539 0 0 1-126.103-126.539 126.103 126.539 0 0 1 126.103-127.456z"/></symbol><symbol id="ubuntu" viewBox="0 0 600 600"><path d="M300 10C140 10 10 140 10 300s130 290 290 290 290-130 290-290S460 10 300 10zm118 85.7c18 10.3 25 34.3 14 53.3-11 18-34 24-53 14-18-11-25-35-14-53 7-11.7 19-18.5 33-19.4 7-.1 14 1.6 20 5.1zM300 132c16 0 31 2 45 6 2 15 12 30 26 38 15 9 32 10 47 4 28 28 47 67 50 109l-55 1c-5-58-54-103-113-103-17 0-33 4-48 10l-27-48c23-11 48-17 75-17zm-93 28l28 47c-29 21-48 55-48 93s19 72 48 93l-28 47c-34-23-59-57-70-98 12-10 20-25 20-42s-8-32-20-42c11-41 36-75 70-98zM103 261c21 0 39 18 39 39s-18 39-39 39c-21.6 0-38.9-18-38.9-39s17.3-39 38.9-39zm310 49l55 1c-3 42-22 81-50 109-15-6-32-5-47 4-14 8-24 23-26 38-14 4-29 6-45 6-27 0-52-6-75-17l27-48c15 6 31 10 48 10 59 0 108-45 113-103zm19 141c11 19 4 43-14 53-19 11-42 5-53-14-11-18-4-42 14-53 5-3 11-4 20-5 15 1 26 8 33 19z"/></symbol><symbol id="miuib" viewBox="0 0 600 600"><path d="M65 480c-12 29-14 49-5.2 60 33 27 160-53 290-180 130-130 210-250 180-290-10-9.1-31-7.4-60 4.9-49-38-110-59-170-59-160 1.3-290 130-290 290-1.6 64 20 120 58 170zm300-110c-64 64-130 120-180 150-15 9.4-29 17-41 23 48 32 100 49 160 49 160 0 290-130 290-290 .14-57-17-110-51-160-7.9 14-15 28-26 46-35 54-88 120-150 180z"/></symbol></svg>
