<?xml version="1.0" encoding="UTF-8" standalone="no"?>
<svg
   xmlns:dc="http://purl.org/dc/elements/1.1/"
   xmlns:cc="http://creativecommons.org/ns#"
   xmlns:rdf="http://www.w3.org/1999/02/22-rdf-syntax-ns#"
   xmlns:svg="http://www.w3.org/2000/svg"
   xmlns="http://www.w3.org/2000/svg"
   id="svg8"
   version="1.1"
   viewBox="0 0 132.29166 132.29167"
   height="500"
   width="500">
  <defs
     id="defs2" />
  <metadata
     id="metadata5">
    <rdf:RDF>
      <cc:Work
         rdf:about="">
        <dc:format>image/svg+xml</dc:format>
        <dc:type
           rdf:resource="http://purl.org/dc/dcmitype/StillImage" />
        <dc:title></dc:title>
      </cc:Work>
    </rdf:RDF>
  </metadata>
  <g
     transform="translate(0,-164.70832)"
     id="layer1">
    <path
       id="path1350"
       transform="matrix(0.26458333,0,0,0.26458333,0,164.70832)"
       d="M 408.10156,56.544922 56.541016,408.10547 a 250.00001,250.00001 0 0 0 35.357422,35.35156 L 443.45898,91.896484 A 250.00001,250.00001 0 0 0 408.10156,56.544922 Z"
       style="fill:#006680;fill-opacity:0.38421056;stroke:none;stroke-width:7.24396372;stroke-linecap:round;stroke-linejoin:miter;stroke-miterlimit:4;stroke-dasharray:none;stroke-opacity:1" />
    <path
       id="path1346"
       transform="matrix(0.26458333,0,0,0.26458333,0,164.70832)"
       d="M 471.58594,134.47852 134.54297,471.52148 A 250.00001,250.00001 0 0 0 250,500 250.00001,250.00001 0 0 0 500,250 250.00001,250.00001 0 0 0 471.58594,134.47852 Z"
       style="fill:#006680;fill-opacity:0.38421056;stroke:none;stroke-width:7.24396372;stroke-linecap:round;stroke-linejoin:miter;stroke-miterlimit:4;stroke-dasharray:none;stroke-opacity:1" />
    <path
       id="path10"
       transform="matrix(0.26458333,0,0,0.26458333,0,164.70832)"
       d="M 28.414062,365.52148 365.45703,28.478516 A 250.00001,250.00001 0 0 0 250,0 250.00001,250.00001 0 0 0 0,250 250.00001,250.00001 0 0 0 28.414062,365.52148 Z"
       style="fill:#006680;fill-opacity:0.38421056;stroke:none;stroke-width:7.24396372;stroke-linecap:round;stroke-linejoin:miter;stroke-miterlimit:4;stroke-dasharray:none;stroke-opacity:1" />
    <circle
       r="66.145836"
       cy="226.69641"
       cx="288.7738"
       id="path10-8"
       style="fill:#006680;fill-opacity:0.38421056;stroke:none;stroke-width:1.91663206;stroke-linecap:round;stroke-linejoin:miter;stroke-miterlimit:4;stroke-dasharray:none;stroke-opacity:1" />
    <rect
       transform="rotate(-45)"
       y="344.64874"
       x="-48.708813"
       height="13.229167"
       width="185.20833"
       id="rect817-6"
       style="fill:#006680;fill-opacity:0.38421056;stroke:none;stroke-width:1.58749998;stroke-linecap:round;stroke-linejoin:miter;stroke-miterlimit:4;stroke-dasharray:none;stroke-opacity:1" />
    <rect
       transform="rotate(-45)"
       y="357.87793"
       x="-48.708813"
       height="13.229167"
       width="185.20833"
       id="rect817-7-2"
       style="fill:#006680;fill-opacity:0.38421056;stroke:none;stroke-width:1.58749998;stroke-linecap:round;stroke-linejoin:miter;stroke-miterlimit:4;stroke-dasharray:none;stroke-opacity:1" />
    <rect
       transform="rotate(-45)"
       y="371.10709"
       x="-48.708813"
       height="13.229167"
       width="185.20833"
       id="rect817-7-4-2"
       style="fill:#006680;fill-opacity:0.38421056;stroke:none;stroke-width:1.58749998;stroke-linecap:round;stroke-linejoin:miter;stroke-miterlimit:4;stroke-dasharray:none;stroke-opacity:1" />
    <rect
       transform="rotate(-45)"
       y="357.87793"
       x="-48.708813"
       height="13.229167"
       width="185.20833"
       id="rect817-7-7-9"
       style="fill:#006680;fill-opacity:0.38421056;stroke:none;stroke-width:1.58749998;stroke-linecap:round;stroke-linejoin:miter;stroke-miterlimit:4;stroke-dasharray:none;stroke-opacity:1" />
  </g>
</svg>
