<svg xmlns="http://www.w3.org/2000/svg" height="600" width="600" viewBox="0 0 600 600"><path d="M299.598 10c-79.562 0-149.562 29.404-203.666 84.22C40.242 150.64 10 223.742 10 300.019c0 77.063 29.426 148.565 85.125 204.187C150.815 559.818 223.225 590 299.598 590c76.373 0 150.374-30.189 207.658-86.598C561.36 450.17 590 379.47 590 300.018c0-78.656-28.63-150.167-83.531-204.993C450.779 39.413 379.159 10 299.598 10zm.804 52.459c65.239 0 123.323 24.614 168.676 69.904 44.546 44.494 68.408 103.303 68.408 167.655 0 56.856-17.573 107.649-51.662 148.71L151.756 114.66C193.25 80.386 243.842 62.46 300.402 62.46zM115.08 152.174l332.992 332.992c-43.169 33.746-94.851 51.623-147.687 51.623-62.856 0-121.739-24.632-167.082-69.922-45.353-45.299-70.807-104.877-70.807-166.85 0-53.784 18.702-105.223 52.584-147.843z" fill="#FFF"/></svg>
