<svg xmlns="http://www.w3.org/2000/svg" fill="#fff" height="600" width="600" viewBox="0 0 600 600"><path d="M343.931 53.669C205.108 43.83 90.671 156.212 75.267 255.305 140.504 182.12 186.16 152.588 213.5 140.771 146.659 198.485 64.195 307.626 24.554 411.065c-74.08 264.844 157.126 153.002 189.389 136.307 167.866 79.53 322.21-27.68 360.708-146.429H437.79c-67.944 107.926-225.38 52.958-222.85-53.672H587.5c8.729-54.159-6.346-120.185-30.487-159.832C642.109-4.793 480.43-13.433 343.93 53.67zM550.5 176.379c-29.633-47.656-74.214-85.041-127.203-105.59 124.83-57.586 169.868 4.7 127.203 105.59zm-218.435-7.696c63.743 0 115.627 47.732 117.71 107.346h-235.42c2.082-59.614 53.964-107.346 117.71-107.346zm-248.97 230.63c20.346 58.496 60.946 107.51 113.422 138.618C29.714 618.37 28.708 495.474 83.095 399.313z"/></svg>
