<svg xmlns="http://www.w3.org/2000/svg" fill="#fff" height="600" width="600" viewBox="0 0 600 600"><path d="M10 10v580h580V10H10zm236.43 69.494c29.969.111 58.763 9.678 92.83 32.569l-47.752 164.92c-62.697-43.485-125.686-34.816-185.809-10.274h-.002l47.82-165.7c35.57-13.38 64.76-21.62 92.913-21.515zm118.08 49.942c41.993 28.26 88.587 50.785 185.49 10.72l-47.723 165.272c-92.97 41.62-143.623 18.253-185.576-10.17l47.809-165.822zM190.72 274.549c30.145.2 59.059 9.809 92.712 32.422l-48.463 166.527C192.879 445.174 147.132 421.875 50 462.04l47.564-166.127c35.435-13.438 64.839-21.552 93.157-21.363zm117.923 48.41c42.034 28.301 88.724 50.843 185.73 10.746L446.564 498.85c-97.023 40.129-143.619 17.404-185.609-11.07l47.688-164.821z"/></svg>
