<svg xmlns="http://www.w3.org/2000/svg" fill="#fff" height="600" width="600" viewBox="0 0 600 600"><path d="M300 10A290 290 0 0 0 10 300a290 290 0 0 0 290 290 290 290 0 0 0 290-290A290 290 0 0 0 300 10zM155.256 126h98.294c19.37 0 29.05 10.675 29.05 32.022v81.83c0 13.787-5.355 24.453-16.07 32.014l-29.88 20.904 30.285 20.461c10.44 6.968 15.665 17.42 15.665 31.354v97.617c0 21.199-9.68 31.798-29.05 31.798h-98.906C135.55 474 126 463.4 126 442.202v-80.278h47.39v67.378h62.028v-87.383l-59.146-43.809v-10.902l59.146-43.13v-73.386H173.39v63.374H126v-76.044c0-21.347 9.75-32.022 29.256-32.022zm191.57 0h97.748C464.192 126 474 136.528 474 157.578v67.369c0 10.97-3.502 23.128-10.499 36.47L375.02 428.41h98.566V474H317.4v-32.244l109.065-207.244v-64.267H364.52v64.713H317.4v-77.38c0-21.05 9.808-31.578 29.426-31.578z" /></svg>
